<svg width="26" height="21" viewBox="0 0 26 21" fill="none" xmlns="http://www.w3.org/2000/svg">
<path d="M14.586 10.268C14.586 13.6681 14.0267 16.185 12.9081 17.8184C11.7984 19.4519 10.085 20.2687 7.76795 20.2687C5.52191 20.2687 3.82628 19.4253 2.68107 17.7385C1.54473 16.0518 0.976562 13.5616 0.976562 10.268C0.976562 6.83237 1.53141 4.30225 2.64112 2.67764C3.75082 1.04416 5.45976 0.227417 7.76795 0.227417C10.014 0.227417 11.7096 1.07967 12.8548 2.78417C14.0089 4.48868 14.586 6.98329 14.586 10.268ZM5.06471 10.268C5.06471 12.6561 5.2689 14.3695 5.67727 15.4082C6.09452 16.438 6.79141 16.9529 7.76795 16.9529C8.72673 16.9529 9.41919 16.4291 9.84531 15.3815C10.2714 14.334 10.4845 12.6295 10.4845 10.268C10.4845 7.87993 10.267 6.16655 9.832 5.12787C9.40587 4.08031 8.71785 3.55653 7.76795 3.55653C6.80029 3.55653 6.10783 4.08031 5.69058 5.12787C5.27333 6.16655 5.06471 7.87993 5.06471 10.268Z" fill="black"/>
<path d="M25.2008 20.0023H21.086V8.73662L21.1259 6.88564L21.1925 4.86154C20.5089 5.54512 20.034 5.99344 19.7677 6.2065L17.5305 8.00422L15.5463 5.52736L21.8184 0.533695H25.2008V20.0023Z" fill="black"/>
</svg>
