<svg width="286" height="114" viewBox="0 0 286 114" fill="none" xmlns="http://www.w3.org/2000/svg">
<path d="M16.1616 47H9.46362V20.9858H0.885864V15.4114H24.7394V20.9858H16.1616V47ZM27.1671 47V15.4114H33.8651V47H27.1671ZM52.7569 47L45.1514 22.2174H44.957C45.2306 27.2589 45.3675 30.6223 45.3675 32.3076V47H39.3825V15.4114H48.5004L55.9762 39.5674H56.1059L64.0355 15.4114H73.1534V47H66.9091V32.0483C66.9091 31.3425 66.9163 30.5287 66.9307 29.6068C66.9595 28.6849 67.0604 26.2362 67.2332 22.2606H67.0387L58.8931 47H52.7569ZM96.885 47H78.6924V15.4114H96.885V20.8994H85.3904V27.8351H96.0856V33.3231H85.3904V41.4688H96.885V47ZM123.541 20.5321C121.021 20.5321 119.069 21.4828 117.686 23.3842C116.303 25.2711 115.612 27.9071 115.612 31.2921C115.612 38.3358 118.255 41.8577 123.541 41.8577C125.76 41.8577 128.446 41.3031 131.601 40.194V45.8116C129.008 46.892 126.113 47.4321 122.915 47.4321C118.32 47.4321 114.805 46.0421 112.371 43.2621C109.936 40.4677 108.719 36.4633 108.719 31.2489C108.719 27.9647 109.317 25.0911 110.513 22.6279C111.708 20.1504 113.422 18.2562 115.655 16.9454C117.902 15.6202 120.531 14.9576 123.541 14.9576C126.609 14.9576 129.692 15.6995 132.789 17.1831L130.628 22.6279C129.447 22.0662 128.259 21.5764 127.063 21.1587C125.868 20.741 124.694 20.5321 123.541 20.5321ZM155.246 47L152.955 39.481H141.439L139.149 47H131.932L143.081 15.2817H151.27L162.462 47H155.246ZM151.357 33.8633C149.239 27.05 148.044 23.1969 147.77 22.3038C147.511 21.4108 147.323 20.705 147.208 20.1864C146.733 22.0302 145.372 26.5891 143.125 33.8633H151.357ZM170.724 30.2766H172.928C174.987 30.2766 176.529 29.8733 177.551 29.0667C178.574 28.2456 179.085 27.0573 179.085 25.5016C179.085 23.9315 178.653 22.772 177.789 22.0229C176.939 21.2739 175.6 20.8994 173.77 20.8994H170.724V30.2766ZM185.848 25.2639C185.848 28.6633 184.782 31.2633 182.651 33.0638C180.533 34.8644 177.515 35.7646 173.597 35.7646H170.724V47H164.026V15.4114H174.116C177.948 15.4114 180.857 16.2396 182.845 17.8961C184.847 19.5382 185.848 21.9941 185.848 25.2639ZM208.024 38.2278C208.024 41.0798 206.994 43.3269 204.935 44.969C202.889 46.6111 200.037 47.4321 196.378 47.4321C193.008 47.4321 190.026 46.7983 187.433 45.5308V39.3081C189.565 40.2588 191.366 40.9286 192.835 41.3175C194.319 41.7064 195.673 41.9009 196.897 41.9009C198.366 41.9009 199.49 41.62 200.268 41.0582C201.06 40.4965 201.456 39.661 201.456 38.5519C201.456 37.9325 201.283 37.3851 200.937 36.9098C200.592 36.42 200.08 35.9519 199.403 35.5054C198.741 35.0588 197.379 34.3458 195.32 33.3663C193.389 32.4589 191.942 31.5874 190.977 30.752C190.012 29.9165 189.241 28.9442 188.665 27.8351C188.089 26.726 187.801 25.4296 187.801 23.9459C187.801 21.1515 188.744 18.9548 190.631 17.356C192.532 15.7571 195.154 14.9576 198.496 14.9576C200.138 14.9576 201.701 15.1521 203.184 15.541C204.682 15.9299 206.245 16.4773 207.873 17.1831L205.712 22.3903C204.027 21.6989 202.63 21.2163 201.521 20.9426C200.426 20.6689 199.346 20.5321 198.28 20.5321C197.012 20.5321 196.04 20.8274 195.363 21.418C194.686 22.0085 194.347 22.7792 194.347 23.7299C194.347 24.3204 194.484 24.839 194.758 25.2855C195.032 25.7177 195.464 26.1426 196.054 26.5603C196.659 26.9636 198.078 27.6982 200.311 28.7642C203.264 30.1758 205.287 31.5946 206.382 33.0206C207.477 34.4323 208.024 36.168 208.024 38.2278ZM237.028 15.4114V35.8511C237.028 38.1846 236.502 40.23 235.451 41.9873C234.414 43.7446 232.908 45.0914 230.935 46.0277C228.961 46.964 226.628 47.4321 223.934 47.4321C219.872 47.4321 216.718 46.395 214.471 44.3208C212.224 42.2322 211.1 39.3801 211.1 35.7646V15.4114H217.777V34.7491C217.777 37.1835 218.266 38.9696 219.246 40.1075C220.225 41.2455 221.846 41.8145 224.107 41.8145C226.297 41.8145 227.881 41.2455 228.861 40.1075C229.855 38.9552 230.352 37.1547 230.352 34.7059V15.4114H237.028ZM242.329 47V15.4114H249.027V41.4688H261.84V47H242.329ZM283.108 47H264.916V15.4114H283.108V20.8994H271.614V27.8351H282.309V33.3231H271.614V41.4688H283.108V47Z" fill="black"/>
<path d="M20.178 79.9457C20.178 81.0962 19.9715 82.1877 19.5585 83.2202C19.1455 84.2232 18.585 85.1967 17.877 86.1407C17.1985 87.0847 16.4168 87.9992 15.5318 88.8842C14.6468 89.7692 13.747 90.6542 12.8325 91.5392C12.0655 92.2767 11.3133 93.029 10.5758 93.796C9.86775 94.5335 9.21875 95.2857 8.62875 96.0527C8.06825 96.7902 7.611 97.5277 7.257 98.2652C6.9325 98.9732 6.77025 99.6812 6.77025 100.389V100.478H21.24V103H3.58425C3.58425 102.941 3.5695 102.838 3.54 102.69C3.54 102.513 3.54 102.262 3.54 101.938C3.54 100.551 3.79075 99.2682 4.29225 98.0882C4.79375 96.8787 5.428 95.743 6.195 94.681C6.9915 93.619 7.86175 92.6307 8.80575 91.7162C9.77925 90.8017 10.7085 89.9167 11.5935 89.0612C12.331 88.3532 13.0243 87.6747 13.6733 87.0257C14.3518 86.3472 14.9418 85.654 15.4433 84.946C15.9448 84.238 16.343 83.4857 16.638 82.6892C16.933 81.8927 17.0805 81.0225 17.0805 80.0785C17.0805 78.0135 16.52 76.5385 15.399 75.6535C14.3075 74.739 12.921 74.2817 11.2395 74.2817C10.2955 74.2817 9.45475 74.3997 8.71725 74.6357C7.97975 74.8717 7.33075 75.152 6.77025 75.4765C6.23925 75.7715 5.782 76.0812 5.3985 76.4057C5.015 76.7302 4.73475 76.981 4.55775 77.158L3.05325 75.1667C3.23025 74.9602 3.54 74.6652 3.9825 74.2817C4.4545 73.8687 5.02975 73.4705 5.70825 73.087C6.41625 72.7035 7.2275 72.379 8.142 72.1135C9.0565 71.8185 10.0743 71.671 11.1953 71.671C14.1748 71.671 16.4168 72.4085 17.9213 73.8835C19.4258 75.329 20.178 77.3497 20.178 79.9457ZM25.5966 87.6895C25.5966 82.4975 26.4521 78.5297 28.1631 75.7862C29.8741 73.0427 32.3078 71.671 35.4643 71.671C38.5913 71.671 41.0103 73.0427 42.7213 75.7862C44.4618 78.5297 45.3321 82.4975 45.3321 87.6895C45.3321 92.852 44.4618 96.805 42.7213 99.5485C41.0103 102.292 38.5913 103.664 35.4643 103.664C32.3373 103.664 29.9036 102.292 28.1631 99.5485C26.4521 96.805 25.5966 92.852 25.5966 87.6895ZM42.1903 87.6895C42.1903 85.9195 42.0723 84.238 41.8363 82.645C41.6298 81.0225 41.2611 79.5917 40.7301 78.3527C40.1991 77.1137 39.5058 76.1255 38.6503 75.388C37.7948 74.6505 36.7328 74.2817 35.4643 74.2817C34.1663 74.2817 33.0896 74.6505 32.2341 75.388C31.3786 76.1255 30.6853 77.1137 30.1543 78.3527C29.6528 79.5917 29.2841 81.0225 29.0481 82.645C28.8416 84.238 28.7383 85.9195 28.7383 87.6895C28.7383 89.4595 28.8416 91.1557 29.0481 92.7782C29.2841 94.3712 29.6528 95.7872 30.1543 97.0262C30.6853 98.2357 31.3786 99.2092 32.2341 99.9467C33.0896 100.684 34.1663 101.053 35.4643 101.053C36.7328 101.053 37.7948 100.684 38.6503 99.9467C39.5058 99.2092 40.1991 98.2357 40.7301 97.0262C41.2611 95.7872 41.6298 94.3712 41.8363 92.7782C42.0723 91.1557 42.1903 89.4595 42.1903 87.6895ZM56.5474 101.009C58.0224 101.009 59.2466 100.846 60.2201 100.522C61.2231 100.168 62.0196 99.696 62.6096 99.106C63.1996 98.516 63.6126 97.8375 63.8486 97.0705C64.1141 96.274 64.2469 95.4185 64.2469 94.504C64.2469 93.324 64.0551 92.262 63.6716 91.318C63.2881 90.374 62.6096 89.5775 61.6361 88.9285C60.6626 88.2795 59.3499 87.7927 57.6979 87.4682C56.0459 87.1142 53.9514 86.9372 51.4144 86.9372C51.5914 85.4327 51.7389 84.061 51.8569 82.822C51.9749 81.5535 52.0781 80.344 52.1666 79.1935C52.2551 78.0135 52.3141 76.8777 52.3436 75.7862C52.4026 74.6652 52.4469 73.5147 52.4764 72.3347H66.2824V74.857H54.9986C54.9691 75.4175 54.9249 76.1402 54.8659 77.0252C54.8069 77.9102 54.7479 78.8247 54.6889 79.7687C54.6299 80.6832 54.5561 81.5682 54.4676 82.4237C54.3791 83.2792 54.3054 83.9577 54.2464 84.4592C56.5179 84.5182 58.4796 84.7985 60.1316 85.3C61.7836 85.8015 63.1406 86.48 64.2026 87.3355C65.2646 88.191 66.0464 89.2235 66.5479 90.433C67.0789 91.6425 67.3444 92.9847 67.3444 94.4597C67.3444 95.7577 67.1231 96.9672 66.6806 98.0882C66.2676 99.2092 65.6186 100.183 64.7336 101.009C63.8486 101.835 62.7276 102.484 61.3706 102.956C60.0136 103.428 58.4059 103.664 56.5474 103.664C55.6034 103.664 54.7184 103.59 53.8924 103.443C53.0959 103.325 52.3731 103.177 51.7241 103C51.1046 102.823 50.5736 102.646 50.1311 102.469C49.6886 102.292 49.3641 102.144 49.1576 102.026L49.9099 99.46C50.0869 99.578 50.3819 99.7255 50.7949 99.9025C51.2374 100.079 51.7389 100.256 52.2994 100.433C52.8894 100.581 53.5384 100.714 54.2464 100.832C54.9839 100.95 55.7509 101.009 56.5474 101.009ZM90.6399 84.5035C90.6399 90.669 89.1649 95.3152 86.2149 98.4422C83.2649 101.54 78.9579 103.089 73.2939 103.089L73.2054 100.699C75.1524 100.699 76.9372 100.478 78.5597 100.035C80.1822 99.5927 81.5834 98.9142 82.7634 97.9997C83.9729 97.0557 84.9464 95.861 85.6839 94.4155C86.4509 92.9405 86.9672 91.1705 87.2327 89.1055C86.4362 89.5185 85.4774 89.8872 84.3564 90.2117C83.2354 90.5067 82.0407 90.6542 80.7722 90.6542C79.1202 90.6542 77.7189 90.4035 76.5684 89.902C75.4179 89.371 74.4887 88.6777 73.7807 87.8222C73.0727 86.9667 72.5564 85.9785 72.2319 84.8575C71.9074 83.7365 71.7452 82.5712 71.7452 81.3617C71.7452 80.2407 71.9222 79.105 72.2762 77.9545C72.6302 76.804 73.1759 75.7715 73.9134 74.857C74.6804 73.913 75.6244 73.146 76.7454 72.556C77.8959 71.966 79.2529 71.671 80.8164 71.671C84.0319 71.671 86.4657 72.8067 88.1177 75.0782C89.7992 77.3202 90.6399 80.462 90.6399 84.5035ZM81.0377 88.132C82.3947 88.132 83.5747 87.9845 84.5777 87.6895C85.6102 87.365 86.5689 86.9962 87.4539 86.5832C87.4834 86.2292 87.4982 85.89 87.4982 85.5655C87.5277 85.241 87.5424 84.8722 87.5424 84.4592C87.5424 83.0727 87.4392 81.76 87.2327 80.521C87.0557 79.282 86.7017 78.1905 86.1707 77.2465C85.6692 76.3025 84.9907 75.565 84.1352 75.034C83.2797 74.4735 82.1882 74.1932 80.8607 74.1932C79.7692 74.1932 78.8399 74.3997 78.0729 74.8127C77.3059 75.1962 76.6864 75.7125 76.2144 76.3615C75.7424 77.0105 75.3884 77.7627 75.1524 78.6183C74.9459 79.4737 74.8427 80.3587 74.8427 81.2732C74.8427 83.6037 75.3589 85.3295 76.3914 86.4505C77.4534 87.5715 79.0022 88.132 81.0377 88.132ZM117.122 89.3662C117.122 91.6423 116.508 93.3867 115.28 94.5996C114.052 95.8125 112.315 96.4189 110.069 96.4189C107.823 96.4189 106.011 95.6253 104.634 94.0381C103.271 92.4508 102.59 90.3021 102.59 87.5918V85.5703C102.59 82.9648 103.278 80.8685 104.656 79.2812C106.034 77.679 107.838 76.8779 110.069 76.8779C112.3 76.8779 114.037 77.4844 115.28 78.6973C116.523 79.8952 117.144 81.6322 117.144 83.9082H114.921C114.921 80.554 113.304 78.877 110.069 78.877C108.482 78.877 107.209 79.4834 106.251 80.6963C105.292 81.9092 104.813 83.5713 104.813 85.6826V87.7266C104.813 89.7331 105.285 91.3503 106.228 92.5781C107.172 93.791 108.452 94.3975 110.069 94.3975C111.656 94.3975 112.854 94.0007 113.663 93.207C114.487 92.4134 114.898 91.1331 114.898 89.3662H117.122ZM96.2557 86.626C96.2557 89.2614 96.8622 91.7321 98.075 94.0381C99.3029 96.3441 101.017 98.1709 103.219 99.5186C105.42 100.866 107.778 101.54 110.294 101.54C112.794 101.54 115.13 100.874 117.302 99.541C119.473 98.2083 121.18 96.3965 122.423 94.1055C123.681 91.7995 124.309 89.3063 124.309 86.626C124.309 83.9606 123.688 81.4899 122.445 79.2139C121.202 76.9229 119.488 75.1185 117.302 73.8008C115.13 72.4681 112.794 71.8018 110.294 71.8018C107.733 71.8018 105.352 72.4831 103.151 73.8457C100.95 75.2083 99.2505 77.0277 98.0526 79.3037C96.8547 81.5798 96.2557 84.0205 96.2557 86.626ZM94.3465 86.626C94.3465 83.6012 95.0428 80.7936 96.4354 78.2031C97.8429 75.6126 99.7821 73.5762 102.253 72.0938C104.738 70.5964 107.419 69.8477 110.294 69.8477C113.169 69.8477 115.842 70.5964 118.312 72.0938C120.783 73.5762 122.715 75.6126 124.107 78.2031C125.515 80.7936 126.219 83.6012 126.219 86.626C126.219 89.5758 125.545 92.3385 124.197 94.9141C122.849 97.4896 120.933 99.5635 118.447 101.136C115.976 102.693 113.259 103.472 110.294 103.472C107.344 103.472 104.626 102.701 102.14 101.158C99.6698 99.6009 97.7531 97.5345 96.3905 94.959C95.0278 92.3835 94.3465 89.6058 94.3465 86.626Z" fill="black"/>
<path d="M243.747 93.0443H231.4V81.6635H243.747V83.2359H234.968V86.3341H243.194V87.891H234.968V91.4641H243.747V93.0443Z" fill="black"/>
<path d="M256.389 83.0958C254.339 83.0958 252.727 83.4747 251.552 84.2323C250.378 84.99 249.791 86.0357 249.791 87.3695C249.791 88.7655 250.353 89.8216 251.478 90.5377C252.612 91.2539 254.25 91.612 256.389 91.612C257.315 91.612 258.211 91.5653 259.077 91.4719C259.943 91.3733 260.843 91.2487 261.779 91.0982V92.694C260.067 93.0313 258.126 93.2 255.956 93.2C252.762 93.2 250.308 92.6966 248.596 91.6898C246.884 90.6778 246.028 89.2325 246.028 87.3539C246.028 86.1707 246.441 85.1353 247.268 84.2479C248.104 83.3605 249.308 82.6806 250.88 82.2084C252.453 81.7361 254.299 81.5 256.419 81.5C258.649 81.5 260.709 81.7439 262.6 82.2317L261.316 83.7808C260.58 83.5992 259.798 83.4409 258.972 83.306C258.156 83.1659 257.295 83.0958 256.389 83.0958Z" fill="black"/>
<path fill-rule="evenodd" clip-rule="evenodd" d="M281.936 90.8427C283.729 89.4999 284.34 88.3029 284.34 87.35C284.34 86.3971 283.729 85.2001 281.936 83.8573C280.17 82.5351 277.509 81.2742 274.073 80.1859C267.219 78.0155 257.647 76.6467 247 76.6467C236.353 76.6467 226.781 78.0155 219.927 80.1859C216.491 81.2742 213.83 82.5351 212.064 83.8573C210.271 85.2001 209.66 86.3971 209.66 87.35C209.66 88.3029 210.271 89.4999 212.064 90.8427C213.83 92.1649 216.491 93.4258 219.927 94.5141C226.781 96.6845 236.353 98.0533 247 98.0533C257.647 98.0533 267.219 96.6845 274.073 94.5141C277.509 93.4258 280.17 92.1649 281.936 90.8427ZM247 99.7C268.539 99.7 286 94.1707 286 87.35C286 80.5293 268.539 75 247 75C225.461 75 208 80.5293 208 87.35C208 94.1707 225.461 99.7 247 99.7Z" fill="black"/>
</svg>
