<svg width="392" height="165" viewBox="0 0 392 165" fill="none" xmlns="http://www.w3.org/2000/svg">
<g filter="url(#filter0_bi)">
<ellipse cx="196" cy="82.5" rx="196" ry="82.5" fill="#C4C4C4" fill-opacity="0.05"/>
<ellipse cx="196" cy="82.5" rx="196" ry="82.5" fill="url(#paint0_linear)" fill-opacity="0.05"/>
</g>
<path d="M101.993 101.899C101.937 105.123 102.958 107.691 105.088 109.637C107.218 111.567 109.603 112.532 112.229 112.532C113.989 112.532 115.65 112.12 117.197 111.297C118.743 110.459 119.992 109.266 120.959 107.677C121.909 106.101 122.379 104.27 122.364 102.169C122.336 100.154 121.852 98.3936 120.902 96.873C119.964 95.356 118.716 94.1764 117.169 93.3553C115.621 92.5185 113.989 92.1057 112.299 92.1057C111.136 92.1057 109.971 92.3179 108.794 92.7298C107.616 93.1547 106.508 93.7946 105.486 94.6471C104.45 95.513 103.626 96.5338 103.015 97.7412C102.391 98.9321 102.051 100.325 101.993 101.899L101.993 101.899ZM107.686 97.3724C107.459 97.7982 107.232 98.4784 107.005 99.4153C106.776 100.351 106.65 101.176 106.636 101.9H102.946C103.172 99.4301 103.953 97.4846 105.287 96.0932C105.429 96.2359 105.614 96.3642 105.869 96.5051C106.125 96.6469 106.409 96.7891 106.72 96.9309C107.048 97.0727 107.36 97.2154 107.686 97.3724V97.3724ZM109.603 93.4531C108.921 94.4178 108.367 95.4547 107.928 96.5755C106.849 96.0645 106.181 95.6956 105.912 95.4547C106.834 94.5179 108.055 93.8502 109.603 93.4531V93.4531ZM110.822 93.1843C110.923 93.1695 111.022 93.1547 111.107 93.1412C111.207 93.1264 111.306 93.1264 111.435 93.1264H111.76V97.5555C111.42 97.5555 110.98 97.4985 110.426 97.3724C109.873 97.2584 109.304 97.1023 108.737 96.9309C109.276 95.596 109.97 94.3478 110.822 93.1843V93.1843ZM111.76 98.4923V101.9H107.501C107.501 100.578 107.814 99.1734 108.438 97.6838C109.83 98.2222 110.937 98.4923 111.76 98.4923ZM111.76 102.764V106.214C110.923 106.214 109.829 106.485 108.495 107.024C108.298 106.64 108.084 105.974 107.842 105.008C107.616 104.028 107.501 103.291 107.501 102.765L111.76 102.764V102.764ZM106.636 102.764C106.636 103.872 106.962 105.391 107.629 107.321C106.168 108.06 105.387 108.472 105.286 108.557C104.562 107.777 104.01 106.825 103.612 105.719C103.215 104.611 103.015 103.631 103.015 102.764H106.636L106.636 102.764ZM111.76 107.023V111.608L110.822 111.552C110.014 110.43 109.304 109.153 108.737 107.748C109.135 107.55 110.142 107.309 111.76 107.023V107.023ZM107.927 108.102C108.665 109.637 109.233 110.686 109.659 111.254C108.425 110.886 107.175 110.203 105.911 109.21C106.593 108.769 107.26 108.4 107.927 108.102V108.102ZM113.577 111.552L112.655 111.608V107.08C113.619 107.136 114.627 107.364 115.678 107.748C114.826 109.622 114.116 110.886 113.577 111.552ZM118.503 109.21C117.553 110.203 116.331 110.871 114.811 111.183C115.11 110.813 115.366 110.416 115.592 110.018C115.807 109.621 116.004 109.209 116.174 108.769C116.345 108.344 116.445 108.118 116.46 108.102C117.595 108.657 118.275 109.025 118.503 109.21L118.503 109.21ZM121.428 102.764C121.428 103.786 121.214 104.852 120.76 105.959C120.306 107.067 119.781 107.932 119.156 108.557C119 108.429 118.717 108.272 118.304 108.06C117.893 107.847 117.381 107.578 116.786 107.266C117.51 105.406 117.864 103.915 117.864 102.765L121.428 102.764H121.428ZM116.913 102.764C116.913 104.015 116.601 105.42 115.976 107.023C115.621 106.825 115.096 106.625 114.4 106.442C113.719 106.243 113.137 106.172 112.654 106.213V102.764L116.913 102.764L116.913 102.764ZM112.655 98.4923C113.535 98.4923 114.642 98.2222 115.975 97.6833C116.174 98.0095 116.387 98.6489 116.6 99.5719C116.799 100.48 116.913 101.261 116.913 101.9H112.654V98.4923H112.655ZM119.1 96.0927C119.81 96.7752 120.377 97.6403 120.803 98.7198C121.229 99.7985 121.429 100.864 121.429 101.899H117.808C117.808 100.536 117.467 99.0316 116.787 97.3719C117.821 96.8725 118.602 96.4485 119.1 96.0927V96.0927ZM118.503 95.4547C118.275 95.6535 117.623 96.0506 116.516 96.6325C116.004 95.3699 115.393 94.2899 114.699 93.397C116.047 93.7941 117.324 94.4752 118.503 95.4547ZM113.521 93.1843C114.358 94.2069 115.082 95.426 115.678 96.873C115.125 97.2306 114.117 97.4577 112.655 97.5555V93.1264H112.981C113.266 93.1264 113.449 93.1412 113.521 93.1843V93.1843Z" fill="black" stroke="black" stroke-width="0.565922"/>
<circle cx="145.001" cy="102.292" r="9.33772" stroke="black" stroke-width="1.69777"/>
<path d="M149.311 100.082C149.311 100.929 149.083 101.64 148.627 102.216C148.171 102.758 147.535 103.114 146.721 103.283L149.653 107.652L147.161 107.703L144.473 103.385H143.349V107.703H141.248V96.7798H145.793C146.868 96.7798 147.715 97.0846 148.333 97.6943C148.985 98.2701 149.311 99.0661 149.311 100.082ZM143.349 101.556H145.646C146.102 101.556 146.477 101.437 146.77 101.2C147.063 100.963 147.21 100.607 147.21 100.133C147.21 99.6588 147.063 99.3201 146.77 99.1169C146.477 98.8798 146.102 98.7612 145.646 98.7612H143.349V101.556Z" fill="black"/>
<path d="M278.586 60.268C278.586 63.6681 278.027 66.185 276.908 67.8184C275.798 69.4519 274.085 70.2687 271.768 70.2687C269.522 70.2687 267.826 69.4253 266.681 67.7385C265.545 66.0518 264.977 63.5616 264.977 60.268C264.977 56.8324 265.531 54.3022 266.641 52.6776C267.751 51.0442 269.46 50.2274 271.768 50.2274C274.014 50.2274 275.71 51.0797 276.855 52.7842C278.009 54.4887 278.586 56.9833 278.586 60.268ZM269.065 60.268C269.065 62.6561 269.269 64.3695 269.677 65.4082C270.095 66.438 270.791 66.9529 271.768 66.9529C272.727 66.9529 273.419 66.4291 273.845 65.3815C274.271 64.334 274.485 62.6295 274.485 60.268C274.485 57.8799 274.267 56.1666 273.832 55.1279C273.406 54.0803 272.718 53.5565 271.768 53.5565C270.8 53.5565 270.108 54.0803 269.691 55.1279C269.273 56.1666 269.065 57.8799 269.065 60.268Z" fill="black"/>
<path d="M289.201 70.0023H285.086V58.7366L285.126 56.8856L285.193 54.8615C284.509 55.5451 284.034 55.9934 283.768 56.2065L281.53 58.0042L279.546 55.5274L285.818 50.5337H289.201V70.0023Z" fill="black"/>
<path d="M187.244 96.0787C187.244 96.7353 187.062 97.2378 186.697 97.586C186.333 97.9325 185.807 98.1057 185.122 98.1057H184.009V94.1279H185.239C185.872 94.1279 186.364 94.2984 186.716 94.6394C187.068 94.9804 187.244 95.4602 187.244 96.0787ZM186.558 96.1005C186.558 95.1482 186.113 94.6721 185.222 94.6721H184.659V97.5588H185.122C186.08 97.5588 186.558 97.0727 186.558 96.1005ZM190.885 94.1279V96.7018C190.885 96.9956 190.821 97.2532 190.694 97.4745C190.569 97.6939 190.387 97.8635 190.147 97.9832C189.91 98.1011 189.625 98.1601 189.293 98.1601C188.8 98.1601 188.416 98.0295 188.142 97.7683C187.868 97.5071 187.731 97.148 187.731 96.6909V94.1279H188.384V96.6446C188.384 96.9729 188.461 97.2151 188.613 97.3711C188.765 97.5271 188.999 97.6051 189.315 97.6051C189.928 97.6051 190.234 97.2831 190.234 96.6392V94.1279H190.885ZM193.818 98.1057H191.568V94.1279H193.818V94.6775H192.218V95.7604H193.717V96.3045H192.218V97.5534H193.818V98.1057ZM196.833 98.1057H196.183V94.6857H195.013V94.1279H198.003V94.6857H196.833V98.1057ZM201.813 96.1113C201.813 96.7589 201.65 97.2622 201.326 97.6214C201.003 97.9805 200.545 98.1601 199.952 98.1601C199.351 98.1601 198.89 97.9823 198.567 97.6268C198.246 97.2695 198.085 96.7625 198.085 96.1059C198.085 95.4493 198.247 94.945 198.57 94.5932C198.894 94.2413 199.357 94.0653 199.957 94.0653C200.548 94.0653 201.006 94.244 201.328 94.6013C201.651 94.9586 201.813 95.462 201.813 96.1113ZM198.776 96.1113C198.776 96.6011 198.875 96.9729 199.073 97.2269C199.271 97.479 199.564 97.6051 199.952 97.6051C200.338 97.6051 200.629 97.4799 200.825 97.2296C201.023 96.9793 201.122 96.6065 201.122 96.1113C201.122 95.6234 201.024 95.2534 200.828 95.0013C200.634 94.7491 200.343 94.6231 199.957 94.6231C199.567 94.6231 199.272 94.7491 199.073 95.0013C198.875 95.2534 198.776 95.6234 198.776 96.1113ZM205.739 97.0255C205.739 97.3792 205.612 97.6568 205.356 97.8581C205.1 98.0594 204.747 98.1601 204.297 98.1601C203.848 98.1601 203.479 98.0903 203.193 97.9506V97.3357C203.374 97.421 203.566 97.4881 203.77 97.537C203.975 97.586 204.165 97.6105 204.341 97.6105C204.599 97.6105 204.788 97.5615 204.91 97.4636C205.033 97.3656 205.095 97.2341 205.095 97.0691C205.095 96.9203 205.038 96.7943 204.926 96.6909C204.813 96.5875 204.581 96.4651 204.229 96.3236C203.867 96.1766 203.611 96.0089 203.462 95.8202C203.313 95.6316 203.239 95.4049 203.239 95.14C203.239 94.8081 203.357 94.5469 203.593 94.3564C203.829 94.166 204.145 94.0708 204.542 94.0708C204.923 94.0708 205.302 94.1542 205.68 94.3211L205.473 94.8516C205.119 94.7029 204.803 94.6285 204.526 94.6285C204.316 94.6285 204.156 94.6748 204.047 94.7673C203.938 94.858 203.884 94.9786 203.884 95.1291C203.884 95.2325 203.906 95.3214 203.949 95.3958C203.993 95.4683 204.064 95.5373 204.164 95.6026C204.264 95.6679 204.443 95.754 204.703 95.861C204.995 95.9826 205.209 96.0959 205.345 96.2011C205.481 96.3063 205.581 96.4251 205.644 96.5576C205.708 96.69 205.739 96.846 205.739 97.0255ZM208.643 98.1057L208.246 97.001H206.725L206.336 98.1057H205.65L207.138 94.1116H207.846L209.334 98.1057H208.643ZM208.074 96.4406L207.701 95.3577C207.674 95.2851 207.636 95.1709 207.587 95.0149C207.54 94.8589 207.507 94.7446 207.489 94.6721C207.44 94.8952 207.369 95.1391 207.274 95.4039L206.915 96.4406H208.074ZM210.17 98.1057H209.525V94.1279H211.769V94.6775H210.17V95.9209H211.669V96.4732H210.17V98.1057ZM214.406 98.1057H212.156V94.1279H214.406V94.6775H212.806V95.7604H214.305V96.3045H212.806V97.5534H214.406V98.1057ZM216.308 98.1057H215.658V94.6857H214.488V94.1279H217.478V94.6857H216.308V98.1057ZM218.88 95.9427L219.821 94.1279H220.529L219.204 96.563V98.1057H218.551V96.5848L217.231 94.1279H217.938L218.88 95.9427ZM224.466 95.3305C224.466 95.7459 224.33 96.0642 224.058 96.2855C223.786 96.5068 223.399 96.6174 222.896 96.6174H222.483V98.1057H221.832V94.1279H222.978C223.475 94.1279 223.847 94.2295 224.093 94.4326C224.342 94.6358 224.466 94.9351 224.466 95.3305ZM222.483 96.0705H222.828C223.162 96.0705 223.407 96.0125 223.563 95.8964C223.719 95.7803 223.797 95.5989 223.797 95.3523C223.797 95.1237 223.727 94.9532 223.587 94.8407C223.448 94.7283 223.23 94.6721 222.934 94.6721H222.483V96.0705ZM225.577 95.978H226.028C226.331 95.978 226.551 95.9218 226.687 95.8093C226.823 95.6969 226.891 95.53 226.891 95.3087C226.891 95.0838 226.817 94.9224 226.67 94.8244C226.523 94.7265 226.302 94.6775 226.006 94.6775H225.577V95.978ZM225.577 96.5167V98.1057H224.926V94.1279H226.05C226.563 94.1279 226.943 94.224 227.19 94.4163C227.437 94.6086 227.56 94.8988 227.56 95.287C227.56 95.7821 227.302 96.1349 226.787 96.3453L227.911 98.1057H227.171L226.219 96.5167H225.577ZM231.688 96.1113C231.688 96.7589 231.525 97.2622 231.201 97.6214C230.878 97.9805 230.42 98.1601 229.827 98.1601C229.226 98.1601 228.765 97.9823 228.442 97.6268C228.121 97.2695 227.96 96.7625 227.96 96.1059C227.96 95.4493 228.122 94.945 228.445 94.5932C228.769 94.2413 229.232 94.0653 229.832 94.0653C230.423 94.0653 230.881 94.244 231.203 94.6013C231.526 94.9586 231.688 95.462 231.688 96.1113ZM228.651 96.1113C228.651 96.6011 228.75 96.9729 228.948 97.2269C229.146 97.479 229.439 97.6051 229.827 97.6051C230.213 97.6051 230.504 97.4799 230.7 97.2296C230.898 96.9793 230.997 96.6065 230.997 96.1113C230.997 95.6234 230.899 95.2534 230.703 95.0013C230.509 94.7491 230.219 94.6231 229.832 94.6231C229.442 94.6231 229.147 94.7491 228.948 95.0013C228.75 95.2534 228.651 95.6234 228.651 96.1113ZM233.582 98.1057H232.931V94.6857H231.762V94.1279H234.752V94.6857H233.582V98.1057ZM238.561 96.1113C238.561 96.7589 238.399 97.2622 238.074 97.6214C237.751 97.9805 237.293 98.1601 236.7 98.1601C236.1 98.1601 235.638 97.9823 235.315 97.6268C234.994 97.2695 234.834 96.7625 234.834 96.1059C234.834 95.4493 234.995 94.945 235.318 94.5932C235.643 94.2413 236.105 94.0653 236.706 94.0653C237.297 94.0653 237.754 94.244 238.077 94.6013C238.4 94.9586 238.561 95.462 238.561 96.1113ZM235.525 96.1113C235.525 96.6011 235.624 96.9729 235.821 97.2269C236.019 97.479 236.312 97.6051 236.7 97.6051C237.086 97.6051 237.378 97.4799 237.573 97.2296C237.771 96.9793 237.87 96.6065 237.87 96.1113C237.87 95.6234 237.772 95.2534 237.576 95.0013C237.382 94.7491 237.092 94.6231 236.706 94.6231C236.316 94.6231 236.021 94.7491 235.821 95.0013C235.624 95.2534 235.525 95.6234 235.525 96.1113ZM240.773 94.6285C240.4 94.6285 240.106 94.7609 239.892 95.0258C239.678 95.2906 239.571 95.6561 239.571 96.1222C239.571 96.6102 239.673 96.9793 239.878 97.2296C240.085 97.4799 240.383 97.6051 240.773 97.6051C240.942 97.6051 241.105 97.5887 241.263 97.5561C241.421 97.5216 241.585 97.4781 241.756 97.4255V97.9832C241.444 98.1011 241.09 98.1601 240.695 98.1601C240.112 98.1601 239.665 97.9842 239.353 97.6323C239.041 97.2786 238.885 96.7734 238.885 96.1168C238.885 95.7032 238.96 95.3414 239.111 95.0312C239.263 94.721 239.483 94.4834 239.769 94.3184C240.056 94.1533 240.393 94.0708 240.779 94.0708C241.185 94.0708 241.561 94.156 241.905 94.3265L241.671 94.868C241.537 94.8045 241.395 94.7491 241.244 94.702C241.095 94.653 240.938 94.6285 240.773 94.6285ZM245.81 96.1113C245.81 96.7589 245.648 97.2622 245.323 97.6214C245 97.9805 244.542 98.1601 243.949 98.1601C243.349 98.1601 242.887 97.9823 242.564 97.6268C242.243 97.2695 242.082 96.7625 242.082 96.1059C242.082 95.4493 242.244 94.945 242.567 94.5932C242.891 94.2413 243.354 94.0653 243.954 94.0653C244.546 94.0653 245.003 94.244 245.326 94.6013C245.648 94.9586 245.81 95.462 245.81 96.1113ZM242.774 96.1113C242.774 96.6011 242.872 96.9729 243.07 97.2269C243.268 97.479 243.561 97.6051 243.949 97.6051C244.335 97.6051 244.626 97.4799 244.822 97.2296C245.02 96.9793 245.119 96.6065 245.119 96.1113C245.119 95.6234 245.021 95.2534 244.825 95.0013C244.631 94.7491 244.341 94.6231 243.954 94.6231C243.564 94.6231 243.27 94.7491 243.07 95.0013C242.872 95.2534 242.774 95.6234 242.774 96.1113ZM246.33 98.1057V94.1279H246.98V97.5479H248.664V98.1057H246.33ZM251.309 97.0255C251.309 97.3792 251.181 97.6568 250.926 97.8581C250.67 98.0594 250.317 98.1601 249.867 98.1601C249.417 98.1601 249.049 98.0903 248.763 97.9506V97.3357C248.944 97.421 249.136 97.4881 249.339 97.537C249.544 97.586 249.735 97.6105 249.911 97.6105C250.168 97.6105 250.358 97.5615 250.479 97.4636C250.603 97.3656 250.664 97.2341 250.664 97.0691C250.664 96.9203 250.608 96.7943 250.496 96.6909C250.383 96.5875 250.151 96.4651 249.799 96.3236C249.436 96.1766 249.181 96.0089 249.032 95.8202C248.883 95.6316 248.809 95.4049 248.809 95.14C248.809 94.8081 248.927 94.5469 249.163 94.3564C249.398 94.166 249.715 94.0708 250.112 94.0708C250.493 94.0708 250.872 94.1542 251.249 94.3211L251.043 94.8516C250.689 94.7029 250.373 94.6285 250.096 94.6285C249.885 94.6285 249.726 94.6748 249.617 94.7673C249.508 94.858 249.454 94.9786 249.454 95.1291C249.454 95.2325 249.475 95.3214 249.519 95.3958C249.563 95.4683 249.634 95.5373 249.734 95.6026C249.834 95.6679 250.013 95.754 250.273 95.861C250.565 95.9826 250.779 96.0959 250.915 96.2011C251.051 96.3063 251.151 96.4251 251.214 96.5576C251.278 96.69 251.309 96.846 251.309 97.0255ZM256.528 98.1057H255.821L255.146 95.7332C255.117 95.6298 255.081 95.481 255.037 95.287C254.994 95.0911 254.968 94.955 254.958 94.8788C254.94 94.9949 254.91 95.1455 254.869 95.3305C254.829 95.5155 254.795 95.6534 254.768 95.744L254.11 98.1057H253.402L252.888 96.1141L252.366 94.1279H253.029L253.598 96.446C253.687 96.8178 253.75 97.1462 253.789 97.4309C253.809 97.2768 253.838 97.1044 253.878 96.914C253.918 96.7235 253.955 96.5693 253.987 96.4514L254.635 94.1279H255.28L255.943 96.4623C256.007 96.6782 256.074 97.001 256.145 97.4309C256.172 97.1715 256.237 96.8414 256.341 96.4406L256.907 94.1279H257.565L256.528 98.1057ZM260.047 98.1057H257.797V94.1279H260.047V94.6775H258.447V95.7604H259.946V96.3045H258.447V97.5534H260.047V98.1057ZM263.982 97.0255C263.982 97.3792 263.854 97.6568 263.598 97.8581C263.342 98.0594 262.989 98.1601 262.54 98.1601C262.09 98.1601 261.722 98.0903 261.435 97.9506V97.3357C261.616 97.421 261.809 97.4881 262.012 97.537C262.217 97.586 262.407 97.6105 262.583 97.6105C262.841 97.6105 263.03 97.5615 263.152 97.4636C263.275 97.3656 263.337 97.2341 263.337 97.0691C263.337 96.9203 263.281 96.7943 263.168 96.6909C263.056 96.5875 262.823 96.4651 262.472 96.3236C262.109 96.1766 261.853 96.0089 261.704 95.8202C261.556 95.6316 261.481 95.4049 261.481 95.14C261.481 94.8081 261.599 94.5469 261.835 94.3564C262.071 94.166 262.387 94.0708 262.784 94.0708C263.165 94.0708 263.544 94.1542 263.922 94.3211L263.715 94.8516C263.361 94.7029 263.046 94.6285 262.768 94.6285C262.558 94.6285 262.398 94.6748 262.289 94.7673C262.18 94.858 262.126 94.9786 262.126 95.1291C262.126 95.2325 262.148 95.3214 262.191 95.3958C262.235 95.4683 262.306 95.5373 262.406 95.6026C262.506 95.6679 262.686 95.754 262.945 95.861C263.237 95.9826 263.451 96.0959 263.587 96.2011C263.723 96.3063 263.823 96.4251 263.886 96.5576C263.95 96.69 263.982 96.846 263.982 97.0255ZM265.791 98.1057H265.141V94.6857H263.971V94.1279H266.961V94.6857H265.791V98.1057ZM267.889 95.978H268.341C268.644 95.978 268.863 95.9218 268.999 95.8093C269.135 95.6969 269.203 95.53 269.203 95.3087C269.203 95.0838 269.13 94.9224 268.983 94.8244C268.836 94.7265 268.615 94.6775 268.319 94.6775H267.889V95.978ZM267.889 96.5167V98.1057H267.239V94.1279H268.363C268.876 94.1279 269.256 94.224 269.503 94.4163C269.749 94.6086 269.873 94.8988 269.873 95.287C269.873 95.7821 269.615 96.1349 269.1 96.3453L270.224 98.1057H269.484L268.531 96.5167H267.889ZM274 96.1113C274 96.7589 273.838 97.2622 273.513 97.6214C273.191 97.9805 272.733 98.1601 272.139 98.1601C271.539 98.1601 271.077 97.9823 270.755 97.6268C270.434 97.2695 270.273 96.7625 270.273 96.1059C270.273 95.4493 270.434 94.945 270.757 94.5932C271.082 94.2413 271.545 94.0653 272.145 94.0653C272.736 94.0653 273.193 94.244 273.516 94.6013C273.839 94.9586 274 95.462 274 96.1113ZM270.964 96.1113C270.964 96.6011 271.063 96.9729 271.261 97.2269C271.458 97.479 271.751 97.6051 272.139 97.6051C272.526 97.6051 272.817 97.4799 273.013 97.2296C273.211 96.9793 273.309 96.6065 273.309 96.1113C273.309 95.6234 273.211 95.2534 273.016 95.0013C272.821 94.7491 272.531 94.6231 272.145 94.6231C271.755 94.6231 271.46 94.7491 271.261 95.0013C271.063 95.2534 270.964 95.6234 270.964 96.1113ZM277.834 98.1057H277.037L275.081 94.936H275.059L275.073 95.1128C275.098 95.4502 275.111 95.7586 275.111 96.0379V98.1057H274.52V94.1279H275.309L277.26 97.2813H277.277C277.273 97.2396 277.266 97.0881 277.255 96.8269C277.244 96.5639 277.239 96.3589 277.239 96.212V94.1279H277.834V98.1057ZM280.177 95.9481H281.641V97.9452C281.402 98.0232 281.171 98.0785 280.95 98.1111C280.731 98.1438 280.493 98.1601 280.237 98.1601C279.635 98.1601 279.171 97.9823 278.844 97.6268C278.518 97.2695 278.354 96.7662 278.354 96.1168C278.354 95.4765 278.538 94.9759 278.907 94.6149C279.275 94.2521 279.782 94.0708 280.428 94.0708C280.843 94.0708 281.237 94.1506 281.608 94.3102L281.38 94.8516C281.057 94.7029 280.734 94.6285 280.411 94.6285C279.987 94.6285 279.651 94.7618 279.405 95.0285C279.158 95.2951 279.035 95.6597 279.035 96.1222C279.035 96.6083 279.145 96.9784 279.367 97.2323C279.59 97.4844 279.91 97.6105 280.327 97.6105C280.537 97.6105 280.762 97.5842 281.002 97.5316V96.5059H280.177V95.9481ZM282.264 98.1057V94.1279H282.915V97.5479H284.599V98.1057H282.264ZM286.074 95.9427L287.015 94.1279H287.723L286.398 96.563V98.1057H285.745V96.5848L284.425 94.1279H285.132L286.074 95.9427ZM184.659 103.978H185.111C185.414 103.978 185.633 103.922 185.769 103.809C185.905 103.697 185.973 103.53 185.973 103.309C185.973 103.084 185.9 102.922 185.753 102.824C185.606 102.726 185.385 102.677 185.089 102.677H184.659V103.978ZM184.659 104.517V106.106H184.009V102.128H185.133C185.646 102.128 186.026 102.224 186.273 102.416C186.519 102.609 186.643 102.899 186.643 103.287C186.643 103.782 186.385 104.135 185.87 104.345L186.994 106.106H186.254L185.301 104.517H184.659ZM189.489 106.106H187.239V102.128H189.489V102.677H187.889V103.76H189.388V104.305H187.889V105.553H189.489V106.106ZM191.709 102.629C191.336 102.629 191.042 102.761 190.828 103.026C190.614 103.291 190.507 103.656 190.507 104.122C190.507 104.61 190.609 104.979 190.814 105.23C191.021 105.48 191.319 105.605 191.709 105.605C191.878 105.605 192.041 105.589 192.199 105.556C192.357 105.522 192.521 105.478 192.692 105.425V105.983C192.38 106.101 192.026 106.16 191.631 106.16C191.048 106.16 190.601 105.984 190.289 105.632C189.977 105.279 189.821 104.773 189.821 104.117C189.821 103.703 189.897 103.341 190.047 103.031C190.199 102.721 190.419 102.483 190.705 102.318C190.992 102.153 191.329 102.071 191.715 102.071C192.121 102.071 192.497 102.156 192.841 102.327L192.607 102.868C192.473 102.804 192.331 102.749 192.18 102.702C192.031 102.653 191.875 102.629 191.709 102.629ZM196.746 104.111C196.746 104.759 196.584 105.262 196.259 105.621C195.936 105.981 195.478 106.16 194.885 106.16C194.285 106.16 193.823 105.982 193.5 105.627C193.179 105.269 193.018 104.763 193.018 104.106C193.018 103.449 193.18 102.945 193.503 102.593C193.827 102.241 194.29 102.065 194.89 102.065C195.482 102.065 195.939 102.244 196.262 102.601C196.585 102.959 196.746 103.462 196.746 104.111ZM193.71 104.111C193.71 104.601 193.808 104.973 194.006 105.227C194.204 105.479 194.497 105.605 194.885 105.605C195.271 105.605 195.562 105.48 195.758 105.23C195.956 104.979 196.055 104.607 196.055 104.111C196.055 103.623 195.957 103.253 195.761 103.001C195.567 102.749 195.277 102.623 194.89 102.623C194.5 102.623 194.206 102.749 194.006 103.001C193.808 103.253 193.71 103.623 193.71 104.111ZM198.985 106.106L197.832 102.784H197.81C197.841 103.277 197.856 103.74 197.856 104.171V106.106H197.266V102.128H198.183L199.287 105.292H199.304L200.441 102.128H201.361V106.106H200.735V104.139C200.735 103.941 200.739 103.683 200.749 103.366C200.759 103.048 200.769 102.856 200.776 102.789H200.754L199.56 106.106H198.985ZM203.793 106.106L202.64 102.784H202.618C202.649 103.277 202.664 103.74 202.664 104.171V106.106H202.074V102.128H202.991L204.095 105.292H204.112L205.249 102.128H206.169V106.106H205.543V104.139C205.543 103.941 205.547 103.683 205.556 103.366C205.567 103.048 205.576 102.856 205.584 102.789H205.562L204.368 106.106H203.793ZM209.132 106.106H206.882V102.128H209.132V102.677H207.532V103.76H209.031V104.305H207.532V105.553H209.132V106.106ZM212.974 106.106H212.177L210.221 102.936H210.199L210.212 103.113C210.238 103.45 210.25 103.759 210.25 104.038V106.106H209.66V102.128H210.449L212.4 105.281H212.416C212.413 105.24 212.405 105.088 212.394 104.827C212.384 104.564 212.378 104.359 212.378 104.212V102.128H212.974V106.106ZM216.925 104.079C216.925 104.735 216.743 105.238 216.378 105.586C216.013 105.932 215.488 106.106 214.803 106.106H213.69V102.128H214.92C215.553 102.128 216.045 102.298 216.397 102.639C216.749 102.98 216.925 103.46 216.925 104.079ZM216.239 104.1C216.239 103.148 215.794 102.672 214.903 102.672H214.34V105.559H214.803C215.76 105.559 216.239 105.073 216.239 104.1ZM219.684 103.943L220.626 102.128H221.333L220.008 104.563V106.106H219.355V104.585L218.036 102.128H218.743L219.684 103.943ZM225.056 104.111C225.056 104.759 224.893 105.262 224.569 105.621C224.246 105.981 223.788 106.16 223.195 106.16C222.594 106.16 222.133 105.982 221.81 105.627C221.489 105.269 221.328 104.763 221.328 104.106C221.328 103.449 221.49 102.945 221.812 102.593C222.137 102.241 222.6 102.065 223.2 102.065C223.791 102.065 224.248 102.244 224.571 102.601C224.894 102.959 225.056 103.462 225.056 104.111ZM222.019 104.111C222.019 104.601 222.118 104.973 222.316 105.227C222.513 105.479 222.806 105.605 223.195 105.605C223.581 105.605 223.872 105.48 224.068 105.23C224.266 104.979 224.364 104.607 224.364 104.111C224.364 103.623 224.267 103.253 224.071 103.001C223.877 102.749 223.586 102.623 223.2 102.623C222.81 102.623 222.515 102.749 222.316 103.001C222.118 103.253 222.019 103.623 222.019 104.111ZM228.694 102.128V104.702C228.694 104.996 228.63 105.253 228.503 105.474C228.378 105.694 228.196 105.864 227.956 105.983C227.719 106.101 227.434 106.16 227.102 106.16C226.609 106.16 226.225 106.03 225.951 105.768C225.677 105.507 225.54 105.148 225.54 104.691V102.128H226.193V104.645C226.193 104.973 226.269 105.215 226.422 105.371C226.574 105.527 226.808 105.605 227.124 105.605C227.737 105.605 228.043 105.283 228.043 104.639V102.128H228.694ZM231.864 106.106H231.214V102.686H230.044V102.128H233.034V102.686H231.864V106.106ZM236.843 104.111C236.843 104.759 236.681 105.262 236.356 105.621C236.033 105.981 235.575 106.16 234.982 106.16C234.382 106.16 233.92 105.982 233.597 105.627C233.276 105.269 233.116 104.763 233.116 104.106C233.116 103.449 233.277 102.945 233.6 102.593C233.925 102.241 234.387 102.065 234.988 102.065C235.579 102.065 236.036 102.244 236.359 102.601C236.682 102.959 236.843 103.462 236.843 104.111ZM233.807 104.111C233.807 104.601 233.906 104.973 234.103 105.227C234.301 105.479 234.594 105.605 234.982 105.605C235.369 105.605 235.66 105.48 235.856 105.23C236.053 104.979 236.152 104.607 236.152 104.111C236.152 103.623 236.054 103.253 235.858 103.001C235.664 102.749 235.374 102.623 234.988 102.623C234.598 102.623 234.303 102.749 234.103 103.001C233.906 103.253 233.807 103.623 233.807 104.111ZM241.513 106.106H240.759L239.51 104.305L239.127 104.617V106.106H238.476V102.128H239.127V104.027C239.304 103.809 239.481 103.6 239.657 103.399L240.732 102.128H241.472C240.777 102.944 240.279 103.525 239.978 103.872L241.513 106.106ZM243.956 106.106H241.706V102.128H243.956V102.677H242.357V103.76H243.856V104.305H242.357V105.553H243.956V106.106ZM246.735 106.106H244.485V102.128H246.735V102.677H245.135V103.76H246.634V104.305H245.135V105.553H246.735V106.106ZM249.897 103.33C249.897 103.746 249.76 104.064 249.488 104.285C249.216 104.507 248.829 104.617 248.327 104.617H247.913V106.106H247.263V102.128H248.408C248.905 102.128 249.277 102.229 249.524 102.433C249.772 102.636 249.897 102.935 249.897 103.33ZM247.913 104.071H248.259C248.592 104.071 248.837 104.012 248.993 103.896C249.149 103.78 249.227 103.599 249.227 103.352C249.227 103.124 249.157 102.953 249.018 102.841C248.878 102.728 248.66 102.672 248.365 102.672H247.913V104.071ZM254.705 104.079C254.705 104.735 254.523 105.238 254.158 105.586C253.793 105.932 253.268 106.106 252.583 106.106H251.47V102.128H252.7C253.333 102.128 253.825 102.298 254.177 102.639C254.529 102.98 254.705 103.46 254.705 104.079ZM254.019 104.1C254.019 103.148 253.574 102.672 252.683 102.672H252.12V105.559H252.583C253.54 105.559 254.019 105.073 254.019 104.1ZM255.228 106.106V102.128H255.878V106.106H255.228ZM258.89 105.026C258.89 105.379 258.762 105.657 258.506 105.858C258.251 106.059 257.898 106.16 257.448 106.16C256.998 106.16 256.63 106.09 256.343 105.951V105.336C256.525 105.421 256.717 105.488 256.92 105.537C257.125 105.586 257.316 105.611 257.492 105.611C257.749 105.611 257.939 105.562 258.06 105.464C258.184 105.366 258.245 105.234 258.245 105.069C258.245 104.92 258.189 104.794 258.077 104.691C257.964 104.587 257.732 104.465 257.38 104.324C257.017 104.177 256.761 104.009 256.613 103.82C256.464 103.632 256.39 103.405 256.39 103.14C256.39 102.808 256.508 102.547 256.743 102.356C256.979 102.166 257.296 102.071 257.693 102.071C258.074 102.071 258.453 102.154 258.83 102.321L258.623 102.852C258.27 102.703 257.954 102.629 257.677 102.629C257.466 102.629 257.307 102.675 257.198 102.767C257.089 102.858 257.034 102.979 257.034 103.129C257.034 103.233 257.056 103.321 257.1 103.396C257.143 103.468 257.215 103.537 257.315 103.603C257.414 103.668 257.594 103.754 257.853 103.861C258.145 103.983 258.359 104.096 258.496 104.201C258.632 104.306 258.731 104.425 258.795 104.558C258.858 104.69 258.89 104.846 258.89 105.026ZM260.7 106.106H260.049V102.686H258.879V102.128H261.87V102.686H260.7V106.106ZM264.615 106.106L264.218 105.001H262.697L262.308 106.106H261.622L263.111 102.112H263.818L265.306 106.106H264.615ZM264.047 104.441L263.674 103.358C263.647 103.285 263.609 103.171 263.56 103.015C263.512 102.859 263.48 102.745 263.462 102.672C263.413 102.895 263.341 103.139 263.247 103.404L262.887 104.441H264.047ZM268.811 106.106H268.014L266.058 102.936H266.036L266.049 103.113C266.075 103.45 266.087 103.759 266.087 104.038V106.106H265.497V102.128H266.286L268.237 105.281H268.253C268.25 105.24 268.242 105.088 268.231 104.827C268.221 104.564 268.215 104.359 268.215 104.212V102.128H268.811V106.106ZM271.219 102.629C270.846 102.629 270.552 102.761 270.338 103.026C270.124 103.291 270.017 103.656 270.017 104.122C270.017 104.61 270.119 104.979 270.324 105.23C270.531 105.48 270.829 105.605 271.219 105.605C271.388 105.605 271.551 105.589 271.709 105.556C271.867 105.522 272.031 105.478 272.201 105.425V105.983C271.889 106.101 271.536 106.16 271.14 106.16C270.558 106.16 270.111 105.984 269.799 105.632C269.487 105.279 269.331 104.773 269.331 104.117C269.331 103.703 269.406 103.341 269.557 103.031C269.709 102.721 269.929 102.483 270.215 102.318C270.502 102.153 270.838 102.071 271.225 102.071C271.631 102.071 272.006 102.156 272.351 102.327L272.117 102.868C271.983 102.804 271.84 102.749 271.69 102.702C271.541 102.653 271.384 102.629 271.219 102.629ZM274.974 106.106H272.724V102.128H274.974V102.677H273.374V103.76H274.874V104.305H273.374V105.553H274.974V106.106ZM279.083 106.106L278.686 105.001H277.165L276.776 106.106H276.09L277.579 102.112H278.286L279.774 106.106H279.083ZM278.515 104.441L278.142 103.358C278.115 103.285 278.077 103.171 278.028 103.015C277.98 102.859 277.948 102.745 277.93 102.672C277.881 102.895 277.809 103.139 277.715 103.404L277.356 104.441H278.515ZM283.279 106.106H282.482L280.526 102.936H280.504L280.517 103.113C280.543 103.45 280.555 103.759 280.555 104.038V106.106H279.965V102.128H280.754L282.705 105.281H282.721C282.718 105.24 282.71 105.088 282.699 104.827C282.689 104.564 282.683 104.359 282.683 104.212V102.128H283.279V106.106ZM287.23 104.079C287.23 104.735 287.048 105.238 286.683 105.586C286.318 105.932 285.793 106.106 285.108 106.106H283.995V102.128H285.225C285.858 102.128 286.35 102.298 286.702 102.639C287.054 102.98 287.23 103.46 287.23 104.079ZM286.544 104.1C286.544 103.148 286.099 102.672 285.208 102.672H284.645V105.559H285.108C286.065 105.559 286.544 105.073 286.544 104.1ZM186.303 113.026C186.303 113.379 186.175 113.657 185.919 113.858C185.663 114.059 185.31 114.16 184.861 114.16C184.411 114.16 184.043 114.09 183.756 113.951V113.336C183.937 113.421 184.13 113.488 184.333 113.537C184.538 113.586 184.728 113.611 184.904 113.611C185.162 113.611 185.351 113.562 185.473 113.464C185.596 113.366 185.658 113.234 185.658 113.069C185.658 112.92 185.602 112.794 185.489 112.691C185.377 112.587 185.144 112.465 184.793 112.324C184.43 112.177 184.174 112.009 184.025 111.82C183.877 111.632 183.802 111.405 183.802 111.14C183.802 110.808 183.92 110.547 184.156 110.356C184.392 110.166 184.708 110.071 185.105 110.071C185.486 110.071 185.865 110.154 186.243 110.321L186.036 110.852C185.682 110.703 185.367 110.629 185.089 110.629C184.879 110.629 184.719 110.675 184.61 110.767C184.501 110.858 184.447 110.979 184.447 111.129C184.447 111.233 184.469 111.321 184.512 111.396C184.556 111.468 184.628 111.537 184.727 111.603C184.827 111.668 185.007 111.754 185.266 111.861C185.558 111.983 185.772 112.096 185.908 112.201C186.044 112.306 186.144 112.425 186.207 112.558C186.271 112.69 186.303 112.846 186.303 113.026ZM188.112 114.106H187.462V110.686H186.292V110.128H189.282V110.686H188.112V114.106ZM192.028 114.106L191.631 113.001H190.11L189.721 114.106H189.035L190.523 110.112H191.231L192.719 114.106H192.028ZM191.459 112.441L191.086 111.358C191.059 111.285 191.021 111.171 190.972 111.015C190.925 110.859 190.892 110.745 190.874 110.672C190.825 110.895 190.754 111.139 190.659 111.404L190.3 112.441H191.459ZM194.033 111.943L194.975 110.128H195.682L194.357 112.563V114.106H193.704V112.585L192.385 110.128H193.092L194.033 111.943ZM200.518 112.111C200.518 112.759 200.355 113.262 200.031 113.621C199.708 113.981 199.25 114.16 198.657 114.16C198.056 114.16 197.595 113.982 197.272 113.627C196.951 113.269 196.79 112.763 196.79 112.106C196.79 111.449 196.952 110.945 197.274 110.593C197.599 110.241 198.062 110.065 198.662 110.065C199.253 110.065 199.71 110.244 200.033 110.601C200.356 110.959 200.518 111.462 200.518 112.111ZM197.481 112.111C197.481 112.601 197.58 112.973 197.778 113.227C197.975 113.479 198.268 113.605 198.657 113.605C199.043 113.605 199.334 113.48 199.53 113.23C199.728 112.979 199.827 112.607 199.827 112.111C199.827 111.623 199.729 111.253 199.533 111.001C199.339 110.749 199.048 110.623 198.662 110.623C198.272 110.623 197.977 110.749 197.778 111.001C197.58 111.253 197.481 111.623 197.481 112.111ZM204.156 110.128V112.702C204.156 112.996 204.092 113.253 203.965 113.474C203.84 113.694 203.658 113.864 203.418 113.983C203.181 114.101 202.896 114.16 202.564 114.16C202.071 114.16 201.687 114.03 201.413 113.768C201.139 113.507 201.002 113.148 201.002 112.691V110.128H201.655V112.645C201.655 112.973 201.731 113.215 201.884 113.371C202.036 113.527 202.27 113.605 202.586 113.605C203.199 113.605 203.505 113.283 203.505 112.639V110.128H204.156ZM206.213 114.106H205.563V110.686H204.393V110.128H207.383V110.686H206.213V114.106ZM209.954 113.026C209.954 113.379 209.826 113.657 209.571 113.858C209.315 114.059 208.962 114.16 208.512 114.16C208.062 114.16 207.694 114.09 207.408 113.951V113.336C207.589 113.421 207.781 113.488 207.984 113.537C208.189 113.586 208.38 113.611 208.556 113.611C208.813 113.611 209.003 113.562 209.124 113.464C209.248 113.366 209.309 113.234 209.309 113.069C209.309 112.92 209.253 112.794 209.141 112.691C209.028 112.587 208.796 112.465 208.444 112.324C208.081 112.177 207.826 112.009 207.677 111.82C207.528 111.632 207.454 111.405 207.454 111.14C207.454 110.808 207.572 110.547 207.808 110.356C208.043 110.166 208.36 110.071 208.757 110.071C209.138 110.071 209.517 110.154 209.894 110.321L209.688 110.852C209.334 110.703 209.018 110.629 208.741 110.629C208.53 110.629 208.371 110.675 208.262 110.767C208.153 110.858 208.099 110.979 208.099 111.129C208.099 111.233 208.12 111.321 208.164 111.396C208.208 111.468 208.279 111.537 208.379 111.603C208.479 111.668 208.658 111.754 208.918 111.861C209.21 111.983 209.424 112.096 209.56 112.201C209.696 112.306 209.796 112.425 209.859 112.558C209.923 112.69 209.954 112.846 209.954 113.026ZM210.39 114.106V110.128H211.04V114.106H210.39ZM214.994 112.079C214.994 112.735 214.812 113.238 214.447 113.586C214.082 113.932 213.557 114.106 212.872 114.106H211.759V110.128H212.989C213.622 110.128 214.114 110.298 214.466 110.639C214.818 110.98 214.994 111.46 214.994 112.079ZM214.308 112.1C214.308 111.148 213.863 110.672 212.972 110.672H212.409V113.559H212.872C213.829 113.559 214.308 113.073 214.308 112.1ZM217.767 114.106H215.517V110.128H217.767V110.677H216.167V111.76H217.666V112.305H216.167V113.553H217.767V114.106ZM220.782 114.106H220.132V110.686H218.962V110.128H221.952V110.686H220.782V114.106ZM225.367 114.106H224.714V112.313H222.88V114.106H222.23V110.128H222.88V111.755H224.714V110.128H225.367V114.106ZM228.33 114.106H226.08V110.128H228.33V110.677H226.73V111.76H228.229V112.305H226.73V113.553H228.33V114.106ZM231.664 110.629C231.29 110.629 230.996 110.761 230.782 111.026C230.568 111.291 230.461 111.656 230.461 112.122C230.461 112.61 230.563 112.979 230.768 113.23C230.975 113.48 231.274 113.605 231.664 113.605C231.832 113.605 231.996 113.589 232.153 113.556C232.311 113.522 232.475 113.478 232.646 113.425V113.983C232.334 114.101 231.98 114.16 231.585 114.16C231.002 114.16 230.555 113.984 230.243 113.632C229.931 113.279 229.775 112.773 229.775 112.117C229.775 111.703 229.851 111.341 230.001 111.031C230.154 110.721 230.373 110.483 230.66 110.318C230.946 110.153 231.283 110.071 231.669 110.071C232.075 110.071 232.451 110.156 232.795 110.327L232.561 110.868C232.427 110.804 232.285 110.749 232.134 110.702C231.986 110.653 231.829 110.629 231.664 110.629ZM235.636 114.106L235.239 113.001H233.718L233.329 114.106H232.643L234.132 110.112H234.839L236.327 114.106H235.636ZM235.068 112.441L234.695 111.358C234.668 111.285 234.63 111.171 234.581 111.015C234.533 110.859 234.501 110.745 234.483 110.672C234.434 110.895 234.362 111.139 234.268 111.404L233.909 112.441H235.068ZM239.152 111.33C239.152 111.746 239.016 112.064 238.744 112.285C238.472 112.507 238.084 112.617 237.582 112.617H237.168V114.106H236.518V110.128H237.664C238.161 110.128 238.532 110.229 238.779 110.433C239.028 110.636 239.152 110.935 239.152 111.33ZM237.168 112.071H237.514C237.848 112.071 238.093 112.012 238.249 111.896C238.405 111.78 238.483 111.599 238.483 111.352C238.483 111.124 238.413 110.953 238.273 110.841C238.133 110.728 237.916 110.672 237.62 110.672H237.168V112.071ZM241.906 113.026C241.906 113.379 241.778 113.657 241.522 113.858C241.266 114.059 240.913 114.16 240.464 114.16C240.014 114.16 239.646 114.09 239.359 113.951V113.336C239.54 113.421 239.733 113.488 239.936 113.537C240.141 113.586 240.331 113.611 240.507 113.611C240.765 113.611 240.954 113.562 241.076 113.464C241.199 113.366 241.261 113.234 241.261 113.069C241.261 112.92 241.205 112.794 241.092 112.691C240.98 112.587 240.747 112.465 240.396 112.324C240.033 112.177 239.777 112.009 239.628 111.82C239.48 111.632 239.405 111.405 239.405 111.14C239.405 110.808 239.523 110.547 239.759 110.356C239.995 110.166 240.311 110.071 240.708 110.071C241.089 110.071 241.468 110.154 241.846 110.321L241.639 110.852C241.285 110.703 240.97 110.629 240.692 110.629C240.482 110.629 240.322 110.675 240.213 110.767C240.104 110.858 240.05 110.979 240.05 111.129C240.05 111.233 240.072 111.321 240.115 111.396C240.159 111.468 240.23 111.537 240.33 111.603C240.43 111.668 240.61 111.754 240.869 111.861C241.161 111.983 241.375 112.096 241.511 112.201C241.647 112.306 241.747 112.425 241.81 112.558C241.874 112.69 241.906 112.846 241.906 113.026ZM245.459 110.128V112.702C245.459 112.996 245.396 113.253 245.269 113.474C245.144 113.694 244.961 113.864 244.722 113.983C244.484 114.101 244.2 114.16 243.868 114.16C243.374 114.16 242.991 114.03 242.717 113.768C242.443 113.507 242.306 113.148 242.306 112.691V110.128H242.959V112.645C242.959 112.973 243.035 113.215 243.187 113.371C243.34 113.527 243.574 113.605 243.889 113.605C244.502 113.605 244.809 113.283 244.809 112.639V110.128H245.459ZM246.143 114.106V110.128H246.793V113.548H248.477V114.106H246.143ZM251.296 114.106L250.899 113.001H249.378L248.989 114.106H248.303L249.791 110.112H250.499L251.987 114.106H251.296ZM250.727 112.441L250.355 111.358C250.327 111.285 250.289 111.171 250.24 111.015C250.193 110.859 250.161 110.745 250.142 110.672C250.093 110.895 250.022 111.139 249.927 111.404L249.568 112.441H250.727Z" fill="black"/>
<path d="M105.749 54.2017C105.749 54.8579 105.567 55.36 105.202 55.7081C104.838 56.0543 104.313 56.2274 103.628 56.2274H102.516V52.2521H103.745C104.377 52.2521 104.87 52.4225 105.221 52.7633C105.573 53.1041 105.749 53.5836 105.749 54.2017ZM105.064 54.2235C105.064 53.2718 104.619 52.7959 103.728 52.7959H103.166V55.6809H103.628C104.585 55.6809 105.064 55.1951 105.064 54.2235ZM109.387 52.2521V54.8244C109.387 55.118 109.324 55.3754 109.197 55.5966C109.072 55.8159 108.89 55.9854 108.65 56.1051C108.413 56.2229 108.128 56.2818 107.797 56.2818C107.303 56.2818 106.92 56.1513 106.646 55.8903C106.373 55.6292 106.236 55.2703 106.236 54.8135V52.2521H106.888V54.7673C106.888 55.0954 106.964 55.3374 107.117 55.4933C107.269 55.6492 107.503 55.7271 107.818 55.7271C108.431 55.7271 108.737 55.4053 108.737 54.7618V52.2521H109.387ZM112.319 56.2274H110.07V52.2521H112.319V52.8014H110.72V53.8836H112.218V54.4274H110.72V55.6754H112.319V56.2274ZM115.332 56.2274H114.682V52.8095H113.513V52.2521H116.501V52.8095H115.332V56.2274ZM120.308 54.2343C120.308 54.8815 120.146 55.3845 119.822 55.7434C119.499 56.1023 119.041 56.2818 118.448 56.2818C117.848 56.2818 117.387 56.1042 117.064 55.7489C116.744 55.3918 116.583 54.8851 116.583 54.2289C116.583 53.5727 116.745 53.0688 117.067 52.7171C117.392 52.3654 117.854 52.1896 118.454 52.1896C119.045 52.1896 119.502 52.3681 119.824 52.7252C120.147 53.0823 120.308 53.5854 120.308 54.2343ZM117.274 54.2343C117.274 54.7238 117.373 55.0954 117.57 55.3492C117.768 55.6011 118.061 55.7271 118.448 55.7271C118.835 55.7271 119.126 55.602 119.321 55.3519C119.519 55.1017 119.618 54.7292 119.618 54.2343C119.618 53.7467 119.52 53.3769 119.324 53.1249C119.13 52.873 118.84 52.747 118.454 52.747C118.064 52.747 117.77 52.873 117.57 53.1249C117.373 53.3769 117.274 53.7467 117.274 54.2343ZM124.233 55.1479C124.233 55.5014 124.105 55.7788 123.849 55.98C123.594 56.1812 123.241 56.2818 122.792 56.2818C122.342 56.2818 121.974 56.212 121.688 56.0724V55.4579C121.869 55.5431 122.061 55.6102 122.264 55.6591C122.469 55.7081 122.659 55.7325 122.835 55.7325C123.092 55.7325 123.282 55.6836 123.403 55.5857C123.527 55.4878 123.588 55.3564 123.588 55.1914C123.588 55.0428 123.532 54.9168 123.42 54.8135C123.307 54.7102 123.075 54.5878 122.724 54.4464C122.361 54.2996 122.105 54.1319 121.957 53.9434C121.808 53.7549 121.734 53.5283 121.734 53.2636C121.734 52.9319 121.852 52.6709 122.087 52.4805C122.323 52.2902 122.639 52.195 123.036 52.195C123.417 52.195 123.796 52.2784 124.173 52.4452L123.966 52.9754C123.613 52.8268 123.297 52.7524 123.02 52.7524C122.81 52.7524 122.65 52.7987 122.541 52.8911C122.433 52.9817 122.378 53.1023 122.378 53.2527C122.378 53.3561 122.4 53.4449 122.443 53.5192C122.487 53.5917 122.559 53.6606 122.658 53.7259C122.758 53.7911 122.937 53.8772 123.197 53.9842C123.488 54.1056 123.702 54.2189 123.838 54.3241C123.974 54.4292 124.074 54.5479 124.137 54.6803C124.201 54.8126 124.233 54.9685 124.233 55.1479ZM127.134 56.2274L126.737 55.1235H125.217L124.828 56.2274H124.143L125.631 52.2358H126.338L127.825 56.2274H127.134ZM126.566 54.5633L126.193 53.4811C126.166 53.4086 126.128 53.2944 126.079 53.1385C126.032 52.9826 125.999 52.8684 125.981 52.7959C125.932 53.0189 125.861 53.2627 125.767 53.5274L125.408 54.5633H126.566ZM128.66 56.2274H128.016V52.2521H130.259V52.8014H128.66V54.044H130.158V54.596H128.66V56.2274ZM132.894 56.2274H130.645V52.2521H132.894V52.8014H131.295V53.8836H132.793V54.4274H131.295V55.6754H132.894V56.2274ZM134.795 56.2274H134.145V52.8095H132.976V52.2521H135.964V52.8095H134.795V56.2274ZM137.365 54.0657L138.305 52.2521H139.012L137.688 54.6857V56.2274H137.036V54.7075L135.717 52.2521H136.424L137.365 54.0657ZM142.948 53.454C142.948 53.8691 142.812 54.1872 142.54 54.4084C142.268 54.6295 141.881 54.7401 141.379 54.7401H140.965V56.2274H140.316V52.2521H141.46C141.957 52.2521 142.329 52.3536 142.575 52.5567C142.823 52.7597 142.948 53.0588 142.948 53.454ZM140.965 54.1935H141.311C141.644 54.1935 141.889 54.1355 142.045 54.0195C142.201 53.9035 142.279 53.7222 142.279 53.4757C142.279 53.2473 142.209 53.0769 142.069 52.9645C141.93 52.8521 141.712 52.7959 141.417 52.7959H140.965V54.1935ZM144.057 54.1011H144.509C144.811 54.1011 145.031 54.0449 145.167 53.9325C145.303 53.8201 145.371 53.6534 145.371 53.4322C145.371 53.2074 145.297 53.0461 145.15 52.9482C145.004 52.8503 144.782 52.8014 144.487 52.8014H144.057V54.1011ZM144.057 54.6395V56.2274H143.407V52.2521H144.53C145.043 52.2521 145.423 52.3482 145.67 52.5403C145.916 52.7325 146.04 53.0225 146.04 53.4104C146.04 53.9053 145.782 54.2579 145.267 54.4682L146.39 56.2274H145.651L144.699 54.6395H144.057ZM150.165 54.2343C150.165 54.8815 150.002 55.3845 149.678 55.7434C149.355 56.1023 148.898 56.2818 148.305 56.2818C147.705 56.2818 147.244 56.1042 146.921 55.7489C146.6 55.3918 146.44 54.8851 146.44 54.2289C146.44 53.5727 146.601 53.0688 146.924 52.7171C147.248 52.3654 147.71 52.1896 148.31 52.1896C148.901 52.1896 149.358 52.3681 149.681 52.7252C150.003 53.0823 150.165 53.5854 150.165 54.2343ZM147.13 54.2343C147.13 54.7238 147.229 55.0954 147.427 55.3492C147.624 55.6011 147.917 55.7271 148.305 55.7271C148.691 55.7271 148.982 55.602 149.178 55.3519C149.375 55.1017 149.474 54.7292 149.474 54.2343C149.474 53.7467 149.376 53.3769 149.18 53.1249C148.986 52.873 148.696 52.747 148.31 52.747C147.921 52.747 147.626 52.873 147.427 53.1249C147.229 53.3769 147.13 53.7467 147.13 54.2343ZM152.058 56.2274H151.408V52.8095H150.238V52.2521H153.227V52.8095H152.058V56.2274ZM157.034 54.2343C157.034 54.8815 156.872 55.3845 156.547 55.7434C156.224 56.1023 155.767 56.2818 155.174 56.2818C154.574 56.2818 154.113 56.1042 153.79 55.7489C153.469 55.3918 153.309 54.8851 153.309 54.2289C153.309 53.5727 153.47 53.0688 153.793 52.7171C154.117 52.3654 154.579 52.1896 155.179 52.1896C155.77 52.1896 156.227 52.3681 156.55 52.7252C156.872 53.0823 157.034 53.5854 157.034 54.2343ZM153.999 54.2343C153.999 54.7238 154.098 55.0954 154.296 55.3492C154.493 55.6011 154.786 55.7271 155.174 55.7271C155.56 55.7271 155.851 55.602 156.047 55.3519C156.244 55.1017 156.343 54.7292 156.343 54.2343C156.343 53.7467 156.245 53.3769 156.049 53.1249C155.855 52.873 155.565 52.747 155.179 52.747C154.79 52.747 154.495 52.873 154.296 53.1249C154.098 53.3769 153.999 53.7467 153.999 54.2343ZM159.245 52.7524C158.871 52.7524 158.578 52.8848 158.364 53.1494C158.15 53.4141 158.043 53.7793 158.043 54.2452C158.043 54.7328 158.145 55.1017 158.35 55.3519C158.557 55.602 158.855 55.7271 159.245 55.7271C159.413 55.7271 159.576 55.7108 159.734 55.6782C159.892 55.6437 160.056 55.6002 160.226 55.5476V56.1051C159.914 56.2229 159.561 56.2818 159.166 56.2818C158.584 56.2818 158.137 56.106 157.825 55.7543C157.514 55.4008 157.358 54.896 157.358 54.2398C157.358 53.8265 157.433 53.4648 157.583 53.1549C157.736 52.8449 157.955 52.6074 158.241 52.4425C158.528 52.2775 158.864 52.195 159.25 52.195C159.656 52.195 160.031 52.2802 160.376 52.4506L160.142 52.9917C160.008 52.9283 159.866 52.873 159.715 52.8258C159.566 52.7769 159.41 52.7524 159.245 52.7524ZM164.278 54.2343C164.278 54.8815 164.116 55.3845 163.791 55.7434C163.469 56.1023 163.011 56.2818 162.418 56.2818C161.818 56.2818 161.357 56.1042 161.034 55.7489C160.713 55.3918 160.553 54.8851 160.553 54.2289C160.553 53.5727 160.714 53.0688 161.037 52.7171C161.361 52.3654 161.824 52.1896 162.424 52.1896C163.015 52.1896 163.471 52.3681 163.794 52.7252C164.117 53.0823 164.278 53.5854 164.278 54.2343ZM161.244 54.2343C161.244 54.7238 161.342 55.0954 161.54 55.3492C161.738 55.6011 162.03 55.7271 162.418 55.7271C162.804 55.7271 163.095 55.602 163.291 55.3519C163.489 55.1017 163.587 54.7292 163.587 54.2343C163.587 53.7467 163.49 53.3769 163.294 53.1249C163.1 52.873 162.81 52.747 162.424 52.747C162.034 52.747 161.739 52.873 161.54 53.1249C161.342 53.3769 161.244 53.7467 161.244 54.2343ZM164.798 56.2274V52.2521H165.448V55.67H167.131V56.2274H164.798ZM169.774 55.1479C169.774 55.5014 169.646 55.7788 169.391 55.98C169.135 56.1812 168.782 56.2818 168.333 56.2818C167.883 56.2818 167.515 56.212 167.229 56.0724V55.4579C167.41 55.5431 167.602 55.6102 167.805 55.6591C168.01 55.7081 168.201 55.7325 168.376 55.7325C168.634 55.7325 168.823 55.6836 168.945 55.5857C169.068 55.4878 169.13 55.3564 169.13 55.1914C169.13 55.0428 169.073 54.9168 168.961 54.8135C168.849 54.7102 168.617 54.5878 168.265 54.4464C167.902 54.2996 167.647 54.1319 167.498 53.9434C167.349 53.7549 167.275 53.5283 167.275 53.2636C167.275 52.9319 167.393 52.6709 167.629 52.4805C167.864 52.2902 168.181 52.195 168.578 52.195C168.958 52.195 169.337 52.2784 169.714 52.4452L169.507 52.9754C169.154 52.8268 168.839 52.7524 168.561 52.7524C168.351 52.7524 168.191 52.7987 168.083 52.8911C167.974 52.9817 167.92 53.1023 167.92 53.2527C167.92 53.3561 167.941 53.4449 167.985 53.5192C168.028 53.5917 168.1 53.6606 168.2 53.7259C168.299 53.7911 168.479 53.8772 168.738 53.9842C169.03 54.1056 169.244 54.2189 169.38 54.3241C169.516 54.4292 169.615 54.5479 169.679 54.6803C169.742 54.8126 169.774 54.9685 169.774 55.1479ZM174.99 56.2274H174.283L173.609 53.8564C173.58 53.7531 173.543 53.6044 173.5 53.4104C173.456 53.2147 173.43 53.0787 173.421 53.0026C173.403 53.1186 173.373 53.2691 173.331 53.454C173.291 53.6389 173.258 53.7766 173.231 53.8673L172.573 56.2274H171.866L171.352 54.237L170.83 52.2521H171.493L172.061 54.5688C172.15 54.9404 172.214 55.2685 172.252 55.5531C172.272 55.399 172.302 55.2268 172.341 55.0365C172.381 54.8461 172.418 54.692 172.45 54.5742L173.097 52.2521H173.742L174.405 54.5851C174.469 54.8008 174.536 55.1235 174.606 55.5531C174.634 55.2939 174.699 54.964 174.802 54.5633L175.368 52.2521H176.026L174.99 56.2274ZM178.506 56.2274H176.257V52.2521H178.506V52.8014H176.907V53.8836H178.405V54.4274H176.907V55.6754H178.506V56.2274ZM182.438 55.1479C182.438 55.5014 182.311 55.7788 182.055 55.98C181.799 56.1812 181.447 56.2818 180.997 56.2818C180.548 56.2818 180.18 56.212 179.893 56.0724V55.4579C180.075 55.5431 180.267 55.6102 180.47 55.6591C180.675 55.7081 180.865 55.7325 181.041 55.7325C181.298 55.7325 181.488 55.6836 181.609 55.5857C181.732 55.4878 181.794 55.3564 181.794 55.1914C181.794 55.0428 181.738 54.9168 181.625 54.8135C181.513 54.7102 181.281 54.5878 180.929 54.4464C180.567 54.2996 180.311 54.1319 180.162 53.9434C180.014 53.7549 179.94 53.5283 179.94 53.2636C179.94 52.9319 180.057 52.6709 180.293 52.4805C180.529 52.2902 180.845 52.195 181.242 52.195C181.623 52.195 182.001 52.2784 182.379 52.4452L182.172 52.9754C181.818 52.8268 181.503 52.7524 181.226 52.7524C181.015 52.7524 180.856 52.7987 180.747 52.8911C180.638 52.9817 180.584 53.1023 180.584 53.2527C180.584 53.3561 180.606 53.4449 180.649 53.5192C180.693 53.5917 180.764 53.6606 180.864 53.7259C180.964 53.7911 181.143 53.8772 181.402 53.9842C181.694 54.1056 181.908 54.2189 182.044 54.3241C182.18 54.4292 182.28 54.5479 182.343 54.6803C182.407 54.8126 182.438 54.9685 182.438 55.1479ZM184.247 56.2274H183.597V52.8095H182.428V52.2521H185.416V52.8095H184.247V56.2274ZM186.344 54.1011H186.795C187.098 54.1011 187.317 54.0449 187.453 53.9325C187.589 53.8201 187.657 53.6534 187.657 53.4322C187.657 53.2074 187.583 53.0461 187.437 52.9482C187.29 52.8503 187.069 52.8014 186.773 52.8014H186.344V54.1011ZM186.344 54.6395V56.2274H185.694V52.2521H186.817C187.33 52.2521 187.709 52.3482 187.956 52.5403C188.203 52.7325 188.326 53.0225 188.326 53.4104C188.326 53.9053 188.068 54.2579 187.554 54.4682L188.677 56.2274H187.937L186.985 54.6395H186.344ZM192.451 54.2343C192.451 54.8815 192.289 55.3845 191.964 55.7434C191.642 56.1023 191.184 56.2818 190.591 56.2818C189.991 56.2818 189.53 56.1042 189.207 55.7489C188.886 55.3918 188.726 54.8851 188.726 54.2289C188.726 53.5727 188.887 53.0688 189.21 52.7171C189.534 52.3654 189.997 52.1896 190.597 52.1896C191.188 52.1896 191.644 52.3681 191.967 52.7252C192.29 53.0823 192.451 53.5854 192.451 54.2343ZM189.416 54.2343C189.416 54.7238 189.515 55.0954 189.713 55.3492C189.91 55.6011 190.203 55.7271 190.591 55.7271C190.977 55.7271 191.268 55.602 191.464 55.3519C191.662 55.1017 191.76 54.7292 191.76 54.2343C191.76 53.7467 191.662 53.3769 191.467 53.1249C191.273 52.873 190.983 52.747 190.597 52.747C190.207 52.747 189.912 52.873 189.713 53.1249C189.515 53.3769 189.416 53.7467 189.416 54.2343ZM196.282 56.2274H195.486L193.531 53.0597H193.509L193.523 53.2364C193.548 53.5736 193.561 53.8818 193.561 54.1609V56.2274H192.971V52.2521H193.759L195.709 55.4035H195.725C195.721 55.3618 195.714 55.2105 195.703 54.9494C195.692 54.6866 195.687 54.4818 195.687 54.3349V52.2521H196.282V56.2274ZM198.624 54.0712H200.087V56.067C199.848 56.1449 199.617 56.2002 199.396 56.2329C199.177 56.2655 198.939 56.2818 198.684 56.2818C198.082 56.2818 197.618 56.1042 197.292 55.7489C196.965 55.3918 196.802 54.8887 196.802 54.2398C196.802 53.5999 196.986 53.0996 197.354 52.7388C197.722 52.3763 198.229 52.195 198.874 52.195C199.289 52.195 199.683 52.2748 200.054 52.4343L199.826 52.9754C199.503 52.8268 199.18 52.7524 198.858 52.7524C198.434 52.7524 198.098 52.8857 197.852 53.1521C197.605 53.4186 197.482 53.783 197.482 54.2452C197.482 54.731 197.593 55.1008 197.814 55.3546C198.037 55.6066 198.357 55.7325 198.773 55.7325C198.984 55.7325 199.209 55.7063 199.448 55.6537V54.6286H198.624V54.0712ZM200.71 56.2274V52.2521H201.36V55.67H203.043V56.2274H200.71ZM204.517 54.0657L205.458 52.2521H206.165L204.84 54.6857V56.2274H204.188V54.7075L202.869 52.2521H203.576L204.517 54.0657ZM103.166 62.1011H103.617C103.92 62.1011 104.139 62.0449 104.275 61.9325C104.411 61.8201 104.479 61.6534 104.479 61.4322C104.479 61.2074 104.406 61.0461 104.259 60.9482C104.112 60.8503 103.891 60.8014 103.595 60.8014H103.166V62.1011ZM103.166 62.6395V64.2274H102.516V60.2521H103.639C104.152 60.2521 104.531 60.3482 104.778 60.5403C105.025 60.7325 105.148 61.0225 105.148 61.4104C105.148 61.9053 104.89 62.2579 104.376 62.4682L105.499 64.2274H104.759L103.807 62.6395H103.166ZM107.992 64.2274H105.744V60.2521H107.992V60.8014H106.393V61.8836H107.892V62.4274H106.393V63.6754H107.992V64.2274ZM110.211 60.7524C109.838 60.7524 109.544 60.8848 109.33 61.1494C109.117 61.4141 109.01 61.7793 109.01 62.2452C109.01 62.7328 109.112 63.1017 109.317 63.3519C109.523 63.602 109.822 63.7271 110.211 63.7271C110.38 63.7271 110.543 63.7108 110.701 63.6782C110.859 63.6437 111.023 63.6002 111.193 63.5476V64.1051C110.881 64.2229 110.528 64.2818 110.133 64.2818C109.551 64.2818 109.104 64.106 108.792 63.7543C108.48 63.4008 108.324 62.896 108.324 62.2398C108.324 61.8265 108.4 61.4648 108.55 61.1549C108.702 60.8449 108.922 60.6074 109.208 60.4425C109.494 60.2775 109.831 60.195 110.217 60.195C110.623 60.195 110.998 60.2802 111.343 60.4506L111.109 60.9917C110.975 60.9283 110.832 60.873 110.682 60.8258C110.533 60.7769 110.376 60.7524 110.211 60.7524ZM115.245 62.2343C115.245 62.8815 115.083 63.3845 114.758 63.7434C114.435 64.1023 113.978 64.2818 113.385 64.2818C112.785 64.2818 112.324 64.1042 112.001 63.7489C111.68 63.3918 111.52 62.8851 111.52 62.2289C111.52 61.5727 111.681 61.0688 112.004 60.7171C112.328 60.3654 112.79 60.1896 113.39 60.1896C113.981 60.1896 114.438 60.3681 114.761 60.7252C115.083 61.0823 115.245 61.5854 115.245 62.2343ZM112.21 62.2343C112.21 62.7238 112.309 63.0954 112.507 63.3492C112.704 63.6011 112.997 63.7271 113.385 63.7271C113.771 63.7271 114.062 63.602 114.258 63.3519C114.455 63.1017 114.554 62.7292 114.554 62.2343C114.554 61.7467 114.456 61.3769 114.26 61.1249C114.066 60.873 113.776 60.747 113.39 60.747C113.001 60.747 112.706 60.873 112.507 61.1249C112.309 61.3769 112.21 61.7467 112.21 62.2343ZM117.483 64.2274L116.33 60.9074H116.308C116.339 61.4005 116.354 61.8627 116.354 62.2942V64.2274H115.764V60.2521H116.681L117.785 63.4144H117.801L118.938 60.2521H119.857V64.2274H119.231V62.2615C119.231 62.0639 119.236 61.8065 119.245 61.4893C119.256 61.1721 119.265 60.9799 119.272 60.9129H119.25L118.057 64.2274H117.483ZM122.288 64.2274L121.135 60.9074H121.113C121.144 61.4005 121.159 61.8627 121.159 62.2942V64.2274H120.569V60.2521H121.486L122.59 63.4144H122.606L123.743 60.2521H124.662V64.2274H124.036V62.2615C124.036 62.0639 124.041 61.8065 124.05 61.4893C124.061 61.1721 124.07 60.9799 124.077 60.9129H124.055L122.862 64.2274H122.288ZM127.623 64.2274H125.374V60.2521H127.623V60.8014H126.024V61.8836H127.522V62.4274H126.024V63.6754H127.623V64.2274ZM131.463 64.2274H130.666L128.711 61.0597H128.689L128.703 61.2364C128.728 61.5736 128.741 61.8818 128.741 62.1609V64.2274H128.151V60.2521H128.939L130.889 63.4035H130.905C130.902 63.3618 130.894 63.2105 130.883 62.9494C130.873 62.6866 130.867 62.4818 130.867 62.3349V60.2521H131.463V64.2274ZM135.411 62.2017C135.411 62.8579 135.229 63.36 134.865 63.7081C134.5 64.0543 133.975 64.2274 133.29 64.2274H132.178V60.2521H133.407C134.04 60.2521 134.532 60.4225 134.884 60.7633C135.235 61.1041 135.411 61.5836 135.411 62.2017ZM134.726 62.2235C134.726 61.2718 134.281 60.7959 133.391 60.7959H132.828V63.6809H133.29C134.247 63.6809 134.726 63.1951 134.726 62.2235ZM138.169 62.0657L139.11 60.2521H139.817L138.492 62.6857V64.2274H137.84V62.7075L136.521 60.2521H137.228L138.169 62.0657ZM143.537 62.2343C143.537 62.8815 143.374 63.3845 143.05 63.7434C142.727 64.1023 142.27 64.2818 141.677 64.2818C141.077 64.2818 140.615 64.1042 140.293 63.7489C139.972 63.3918 139.812 62.8851 139.812 62.2289C139.812 61.5727 139.973 61.0688 140.296 60.7171C140.62 60.3654 141.082 60.1896 141.682 60.1896C142.273 60.1896 142.73 60.3681 143.053 60.7252C143.375 61.0823 143.537 61.5854 143.537 62.2343ZM140.502 62.2343C140.502 62.7238 140.601 63.0954 140.799 63.3492C140.996 63.6011 141.289 63.7271 141.677 63.7271C142.063 63.7271 142.354 63.602 142.55 63.3519C142.747 63.1017 142.846 62.7292 142.846 62.2343C142.846 61.7467 142.748 61.3769 142.552 61.1249C142.358 60.873 142.068 60.747 141.682 60.747C141.293 60.747 140.998 60.873 140.799 61.1249C140.601 61.3769 140.502 61.7467 140.502 62.2343ZM147.172 60.2521V62.8244C147.172 63.118 147.109 63.3754 146.982 63.5966C146.857 63.8159 146.675 63.9854 146.436 64.1051C146.198 64.2229 145.913 64.2818 145.582 64.2818C145.089 64.2818 144.705 64.1513 144.432 63.8903C144.158 63.6292 144.021 63.2703 144.021 62.8135V60.2521H144.674V62.7673C144.674 63.0954 144.75 63.3374 144.902 63.4933C145.054 63.6492 145.288 63.7271 145.603 63.7271C146.216 63.7271 146.523 63.4053 146.523 62.7618V60.2521H147.172ZM150.341 64.2274H149.691V60.8095H148.522V60.2521H151.51V60.8095H150.341V64.2274ZM155.317 62.2343C155.317 62.8815 155.155 63.3845 154.83 63.7434C154.508 64.1023 154.05 64.2818 153.457 64.2818C152.857 64.2818 152.396 64.1042 152.073 63.7489C151.752 63.3918 151.592 62.8851 151.592 62.2289C151.592 61.5727 151.753 61.0688 152.076 60.7171C152.4 60.3654 152.863 60.1896 153.463 60.1896C154.054 60.1896 154.51 60.3681 154.833 60.7252C155.156 61.0823 155.317 61.5854 155.317 62.2343ZM152.283 62.2343C152.283 62.7238 152.381 63.0954 152.579 63.3492C152.777 63.6011 153.069 63.7271 153.457 63.7271C153.843 63.7271 154.134 63.602 154.33 63.3519C154.528 63.1017 154.626 62.7292 154.626 62.2343C154.626 61.7467 154.529 61.3769 154.333 61.1249C154.139 60.873 153.849 60.747 153.463 60.747C153.073 60.747 152.778 60.873 152.579 61.1249C152.381 61.3769 152.283 61.7467 152.283 62.2343ZM159.984 64.2274H159.23L157.982 62.4274L157.599 62.7401V64.2274H156.949V60.2521H157.599V62.15C157.777 61.9325 157.953 61.7231 158.129 61.5219L159.203 60.2521H159.943C159.249 61.0678 158.751 61.6488 158.45 61.9951L159.984 64.2274ZM162.426 64.2274H160.177V60.2521H162.426V60.8014H160.827V61.8836H162.325V62.4274H160.827V63.6754H162.426V64.2274ZM165.202 64.2274H162.954V60.2521H165.202V60.8014H163.603V61.8836H165.102V62.4274H163.603V63.6754H165.202V64.2274ZM168.362 61.454C168.362 61.8691 168.226 62.1872 167.954 62.4084C167.682 62.6295 167.295 62.7401 166.793 62.7401H166.38V64.2274H165.73V60.2521H166.875C167.371 60.2521 167.743 60.3536 167.99 60.5567C168.238 60.7597 168.362 61.0588 168.362 61.454ZM166.38 62.1935H166.725C167.059 62.1935 167.303 62.1355 167.459 62.0195C167.615 61.9035 167.693 61.7222 167.693 61.4757C167.693 61.2473 167.623 61.0769 167.484 60.9645C167.344 60.8521 167.127 60.7959 166.831 60.7959H166.38V62.1935ZM173.167 62.2017C173.167 62.8579 172.985 63.36 172.621 63.7081C172.256 64.0543 171.732 64.2274 171.046 64.2274H169.934V60.2521H171.163C171.796 60.2521 172.288 60.4225 172.64 60.7633C172.992 61.1041 173.167 61.5836 173.167 62.2017ZM172.482 62.2235C172.482 61.2718 172.037 60.7959 171.147 60.7959H170.584V63.6809H171.046C172.004 63.6809 172.482 63.1951 172.482 62.2235ZM173.69 64.2274V60.2521H174.34V64.2274H173.69ZM177.35 63.1479C177.35 63.5014 177.222 63.7788 176.967 63.98C176.711 64.1812 176.358 64.2818 175.909 64.2818C175.459 64.2818 175.091 64.212 174.805 64.0724V63.4579C174.986 63.5431 175.178 63.6102 175.381 63.6591C175.586 63.7081 175.777 63.7325 175.952 63.7325C176.21 63.7325 176.399 63.6836 176.521 63.5857C176.644 63.4878 176.706 63.3564 176.706 63.1914C176.706 63.0428 176.649 62.9168 176.537 62.8135C176.425 62.7102 176.193 62.5878 175.841 62.4464C175.478 62.2996 175.223 62.1319 175.074 61.9434C174.925 61.7549 174.851 61.5283 174.851 61.2636C174.851 60.9319 174.969 60.6709 175.205 60.4805C175.44 60.2902 175.757 60.195 176.154 60.195C176.534 60.195 176.913 60.2784 177.29 60.4452L177.083 60.9754C176.73 60.8268 176.415 60.7524 176.137 60.7524C175.927 60.7524 175.767 60.7987 175.659 60.8911C175.55 60.9817 175.496 61.1023 175.496 61.2527C175.496 61.3561 175.517 61.4449 175.561 61.5192C175.604 61.5917 175.676 61.6606 175.776 61.7259C175.875 61.7911 176.055 61.8772 176.314 61.9842C176.606 62.1056 176.82 62.2189 176.956 62.3241C177.092 62.4292 177.191 62.5479 177.255 62.6803C177.318 62.8126 177.35 62.9685 177.35 63.1479ZM179.158 64.2274H178.509V60.8095H177.339V60.2521H180.328V60.8095H179.158V64.2274ZM183.072 64.2274L182.675 63.1235H181.155L180.766 64.2274H180.081L181.568 60.2358H182.275L183.762 64.2274H183.072ZM182.503 62.5633L182.131 61.4811C182.104 61.4086 182.066 61.2944 182.017 61.1385C181.969 60.9826 181.937 60.8684 181.919 60.7959C181.87 61.0189 181.798 61.2627 181.704 61.5274L181.345 62.5633H182.503ZM187.265 64.2274H186.468L184.513 61.0597H184.491L184.505 61.2364C184.53 61.5736 184.543 61.8818 184.543 62.1609V64.2274H183.953V60.2521H184.741L186.691 63.4035H186.707C186.704 63.3618 186.696 63.2105 186.686 62.9494C186.675 62.6866 186.669 62.4818 186.669 62.3349V60.2521H187.265V64.2274ZM189.671 60.7524C189.298 60.7524 189.004 60.8848 188.79 61.1494C188.577 61.4141 188.47 61.7793 188.47 62.2452C188.47 62.7328 188.572 63.1017 188.777 63.3519C188.983 63.602 189.282 63.7271 189.671 63.7271C189.84 63.7271 190.003 63.7108 190.161 63.6782C190.319 63.6437 190.483 63.6002 190.653 63.5476V64.1051C190.341 64.2229 189.988 64.2818 189.593 64.2818C189.011 64.2818 188.564 64.106 188.252 63.7543C187.94 63.4008 187.784 62.896 187.784 62.2398C187.784 61.8265 187.86 61.4648 188.01 61.1549C188.162 60.8449 188.382 60.6074 188.668 60.4425C188.954 60.2775 189.291 60.195 189.677 60.195C190.083 60.195 190.458 60.2802 190.803 60.4506L190.569 60.9917C190.435 60.9283 190.292 60.873 190.142 60.8258C189.993 60.7769 189.836 60.7524 189.671 60.7524ZM193.424 64.2274H191.175V60.2521H193.424V60.8014H191.825V61.8836H193.323V62.4274H191.825V63.6754H193.424V64.2274ZM197.531 64.2274L197.134 63.1235H195.614L195.225 64.2274H194.54L196.027 60.2358H196.734L198.221 64.2274H197.531ZM196.962 62.5633L196.59 61.4811C196.563 61.4086 196.524 61.2944 196.476 61.1385C196.428 60.9826 196.396 60.8684 196.378 60.7959C196.329 61.0189 196.257 61.2627 196.163 61.5274L195.804 62.5633H196.962ZM201.724 64.2274H200.927L198.972 61.0597H198.95L198.964 61.2364C198.989 61.5736 199.002 61.8818 199.002 62.1609V64.2274H198.412V60.2521H199.2L201.15 63.4035H201.166C201.163 63.3618 201.155 63.2105 201.145 62.9494C201.134 62.6866 201.128 62.4818 201.128 62.3349V60.2521H201.724V64.2274ZM205.672 62.2017C205.672 62.8579 205.49 63.36 205.126 63.7081C204.761 64.0543 204.236 64.2274 203.551 64.2274H202.439V60.2521H203.668C204.301 60.2521 204.793 60.4225 205.145 60.7633C205.496 61.1041 205.672 61.5836 205.672 62.2017ZM204.987 62.2235C204.987 61.2718 204.542 60.7959 203.652 60.7959H203.089V63.6809H203.551C204.508 63.6809 204.987 63.1951 204.987 62.2235ZM209.599 63.1479C209.599 63.5014 209.471 63.7788 209.216 63.98C208.96 64.1812 208.608 64.2818 208.158 64.2818C207.708 64.2818 207.34 64.212 207.054 64.0724V63.4579C207.235 63.5431 207.427 63.6102 207.631 63.6591C207.835 63.7081 208.026 63.7325 208.202 63.7325C208.459 63.7325 208.648 63.6836 208.77 63.5857C208.893 63.4878 208.955 63.3564 208.955 63.1914C208.955 63.0428 208.899 62.9168 208.786 62.8135C208.674 62.7102 208.442 62.5878 208.09 62.4464C207.727 62.2996 207.472 62.1319 207.323 61.9434C207.175 61.7549 207.1 61.5283 207.1 61.2636C207.1 60.9319 207.218 60.6709 207.454 60.4805C207.689 60.2902 208.006 60.195 208.403 60.195C208.783 60.195 209.162 60.2784 209.539 60.4452L209.333 60.9754C208.979 60.8268 208.664 60.7524 208.386 60.7524C208.176 60.7524 208.017 60.7987 207.908 60.8911C207.799 60.9817 207.745 61.1023 207.745 61.2527C207.745 61.3561 207.766 61.4449 207.81 61.5192C207.853 61.5917 207.925 61.6606 208.025 61.7259C208.124 61.7911 208.304 61.8772 208.563 61.9842C208.855 62.1056 209.069 62.2189 209.205 62.3241C209.341 62.4292 209.441 62.5479 209.504 62.6803C209.567 62.8126 209.599 62.9685 209.599 63.1479ZM211.408 64.2274H210.758V60.8095H209.589V60.2521H212.577V60.8095H211.408V64.2274ZM215.321 64.2274L214.924 63.1235H213.404L213.015 64.2274H212.33L213.817 60.2358H214.524L216.011 64.2274H215.321ZM214.752 62.5633L214.38 61.4811C214.353 61.4086 214.315 61.2944 214.266 61.1385C214.219 60.9826 214.186 60.8684 214.168 60.7959C214.119 61.0189 214.047 61.2627 213.953 61.5274L213.594 62.5633H214.752ZM217.325 62.0657L218.266 60.2521H218.973L217.649 62.6857V64.2274H216.996V62.7075L215.677 60.2521H216.384L217.325 62.0657ZM106.045 70.2343C106.045 70.8815 105.883 71.3845 105.558 71.7434C105.236 72.1023 104.778 72.2818 104.185 72.2818C103.585 72.2818 103.124 72.1042 102.801 71.7489C102.48 71.3918 102.32 70.8851 102.32 70.2289C102.32 69.5727 102.481 69.0688 102.804 68.7171C103.128 68.3654 103.591 68.1896 104.191 68.1896C104.782 68.1896 105.238 68.3681 105.561 68.7252C105.884 69.0823 106.045 69.5854 106.045 70.2343ZM103.011 70.2343C103.011 70.7238 103.109 71.0954 103.307 71.3492C103.505 71.6011 103.797 71.7271 104.185 71.7271C104.571 71.7271 104.862 71.602 105.058 71.3519C105.256 71.1017 105.354 70.7292 105.354 70.2343C105.354 69.7467 105.257 69.3769 105.061 69.1249C104.867 68.873 104.577 68.747 104.191 68.747C103.801 68.747 103.506 68.873 103.307 69.1249C103.109 69.3769 103.011 69.7467 103.011 70.2343ZM109.681 68.2521V70.8244C109.681 71.118 109.617 71.3754 109.491 71.5966C109.365 71.8159 109.183 71.9854 108.944 72.1051C108.707 72.2229 108.422 72.2818 108.09 72.2818C107.597 72.2818 107.214 72.1513 106.94 71.8903C106.666 71.6292 106.529 71.2703 106.529 70.8135V68.2521H107.182V70.7673C107.182 71.0954 107.258 71.3374 107.41 71.4933C107.563 71.6492 107.797 71.7271 108.112 71.7271C108.725 71.7271 109.031 71.4053 109.031 70.7618V68.2521H109.681ZM111.737 72.2274H111.087V68.8095H109.918V68.2521H112.906V68.8095H111.737V72.2274ZM115.476 71.1479C115.476 71.5014 115.348 71.7788 115.092 71.98C114.837 72.1812 114.484 72.2818 114.035 72.2818C113.585 72.2818 113.217 72.212 112.931 72.0724V71.4579C113.112 71.5431 113.304 71.6102 113.507 71.6591C113.712 71.7081 113.902 71.7325 114.078 71.7325C114.336 71.7325 114.525 71.6836 114.647 71.5857C114.77 71.4878 114.831 71.3564 114.831 71.1914C114.831 71.0428 114.775 70.9168 114.663 70.8135C114.55 70.7102 114.318 70.5878 113.967 70.4464C113.604 70.2996 113.349 70.1319 113.2 69.9434C113.051 69.7549 112.977 69.5283 112.977 69.2636C112.977 68.9319 113.095 68.6709 113.331 68.4805C113.566 68.2902 113.882 68.195 114.279 68.195C114.66 68.195 115.039 68.2784 115.416 68.4452L115.209 68.9754C114.856 68.8268 114.541 68.7524 114.263 68.7524C114.053 68.7524 113.893 68.7987 113.785 68.8911C113.676 68.9817 113.621 69.1023 113.621 69.2527C113.621 69.3561 113.643 69.4449 113.687 69.5192C113.73 69.5917 113.802 69.6606 113.902 69.7259C114.001 69.7911 114.181 69.8772 114.44 69.9842C114.732 70.1056 114.946 70.2189 115.082 70.3241C115.218 70.4292 115.317 70.5479 115.381 70.6803C115.444 70.8126 115.476 70.9685 115.476 71.1479ZM115.911 72.2274V68.2521H116.561V72.2274H115.911ZM120.512 70.2017C120.512 70.8579 120.33 71.36 119.966 71.7081C119.601 72.0543 119.077 72.2274 118.391 72.2274H117.279V68.2521H118.508C119.141 68.2521 119.633 68.4225 119.985 68.7633C120.336 69.1041 120.512 69.5836 120.512 70.2017ZM119.827 70.2235C119.827 69.2718 119.382 68.7959 118.492 68.7959H117.929V71.6809H118.391C119.348 71.6809 119.827 71.1951 119.827 70.2235ZM123.283 72.2274H121.035V68.2521H123.283V68.8014H121.685V69.8836H123.183V70.4274H121.685V71.6754H123.283V72.2274ZM126.297 72.2274H125.647V68.8095H124.478V68.2521H127.466V68.8095H126.297V72.2274ZM130.879 72.2274H130.226V70.4355H128.393V72.2274H127.744V68.2521H128.393V69.8781H130.226V68.2521H130.879V72.2274ZM133.84 72.2274H131.591V68.2521H133.84V68.8014H132.241V69.8836H133.739V70.4274H132.241V71.6754H133.84V72.2274ZM137.172 68.7524C136.798 68.7524 136.505 68.8848 136.291 69.1494C136.077 69.4141 135.97 69.7793 135.97 70.2452C135.97 70.7328 136.072 71.1017 136.277 71.3519C136.484 71.602 136.782 71.7271 137.172 71.7271C137.34 71.7271 137.503 71.7108 137.661 71.6782C137.819 71.6437 137.983 71.6002 138.153 71.5476V72.1051C137.841 72.2229 137.488 72.2818 137.093 72.2818C136.511 72.2818 136.064 72.106 135.752 71.7543C135.44 71.4008 135.285 70.896 135.285 70.2398C135.285 69.8265 135.36 69.4648 135.51 69.1549C135.663 68.8449 135.882 68.6074 136.168 68.4425C136.455 68.2775 136.791 68.195 137.177 68.195C137.583 68.195 137.958 68.2802 138.303 68.4506L138.069 68.9917C137.935 68.9283 137.792 68.873 137.642 68.8258C137.493 68.7769 137.337 68.7524 137.172 68.7524ZM141.142 72.2274L140.745 71.1235H139.225L138.836 72.2274H138.151L139.638 68.2358H140.345L141.832 72.2274H141.142ZM140.574 70.5633L140.201 69.4811C140.174 69.4086 140.136 69.2944 140.087 69.1385C140.04 68.9826 140.007 68.8684 139.989 68.7959C139.94 69.0189 139.868 69.2627 139.774 69.5274L139.415 70.5633H140.574ZM144.655 69.454C144.655 69.8691 144.519 70.1872 144.247 70.4084C143.975 70.6295 143.588 70.7401 143.086 70.7401H142.673V72.2274H142.023V68.2521H143.168C143.665 68.2521 144.036 68.3536 144.283 68.5567C144.531 68.7597 144.655 69.0588 144.655 69.454ZM142.673 70.1935H143.018C143.352 70.1935 143.597 70.1355 143.752 70.0195C143.908 69.9035 143.986 69.7222 143.986 69.4757C143.986 69.2473 143.917 69.0769 143.777 68.9645C143.637 68.8521 143.42 68.7959 143.124 68.7959H142.673V70.1935ZM147.407 71.1479C147.407 71.5014 147.279 71.7788 147.024 71.98C146.768 72.1812 146.416 72.2818 145.966 72.2818C145.517 72.2818 145.149 72.212 144.862 72.0724V71.4579C145.043 71.5431 145.236 71.6102 145.439 71.6591C145.643 71.7081 145.834 71.7325 146.01 71.7325C146.267 71.7325 146.456 71.6836 146.578 71.5857C146.701 71.4878 146.763 71.3564 146.763 71.1914C146.763 71.0428 146.707 70.9168 146.594 70.8135C146.482 70.7102 146.25 70.5878 145.898 70.4464C145.536 70.2996 145.28 70.1319 145.131 69.9434C144.983 69.7549 144.908 69.5283 144.908 69.2636C144.908 68.9319 145.026 68.6709 145.262 68.4805C145.498 68.2902 145.814 68.195 146.211 68.195C146.592 68.195 146.97 68.2784 147.347 68.4452L147.141 68.9754C146.787 68.8268 146.472 68.7524 146.195 68.7524C145.984 68.7524 145.825 68.7987 145.716 68.8911C145.607 68.9817 145.553 69.1023 145.553 69.2527C145.553 69.3561 145.575 69.4449 145.618 69.5192C145.662 69.5917 145.733 69.6606 145.833 69.7259C145.933 69.7911 146.112 69.8772 146.371 69.9842C146.663 70.1056 146.877 70.2189 147.013 70.3241C147.149 70.4292 147.249 70.5479 147.312 70.6803C147.376 70.8126 147.407 70.9685 147.407 71.1479ZM150.959 68.2521V70.8244C150.959 71.118 150.895 71.3754 150.768 71.5966C150.643 71.8159 150.461 71.9854 150.222 72.1051C149.984 72.2229 149.7 72.2818 149.368 72.2818C148.875 72.2818 148.492 72.1513 148.218 71.8903C147.944 71.6292 147.807 71.2703 147.807 70.8135V68.2521H148.46V70.7673C148.46 71.0954 148.536 71.3374 148.688 71.4933C148.841 71.6492 149.074 71.7271 149.39 71.7271C150.002 71.7271 150.309 71.4053 150.309 70.7618V68.2521H150.959ZM151.641 72.2274V68.2521H152.291V71.67H153.974V72.2274H151.641ZM156.792 72.2274L156.395 71.1235H154.875L154.486 72.2274H153.801L155.288 68.2358H155.995L157.482 72.2274H156.792ZM156.223 70.5633L155.851 69.4811C155.824 69.4086 155.786 69.2944 155.737 69.1385C155.69 68.9826 155.657 68.8684 155.639 68.7959C155.59 69.0189 155.518 69.2627 155.424 69.5274L155.065 70.5633H156.223Z" fill="black"/>
<defs>
<filter id="filter0_bi" x="-30" y="-30" width="452" height="225" filterUnits="userSpaceOnUse" color-interpolation-filters="sRGB">
<feFlood flood-opacity="0" result="BackgroundImageFix"/>
<feGaussianBlur in="BackgroundImage" stdDeviation="15"/>
<feComposite in2="SourceAlpha" operator="in" result="effect1_backgroundBlur"/>
<feBlend mode="normal" in="SourceGraphic" in2="effect1_backgroundBlur" result="shape"/>
<feColorMatrix in="SourceAlpha" type="matrix" values="0 0 0 0 0 0 0 0 0 0 0 0 0 0 0 0 0 0 127 0" result="hardAlpha"/>
<feOffset dy="-2"/>
<feGaussianBlur stdDeviation="0.5"/>
<feComposite in2="hardAlpha" operator="arithmetic" k2="-1" k3="1"/>
<feColorMatrix type="matrix" values="0 0 0 0 1 0 0 0 0 1 0 0 0 0 1 0 0 0 0.1 0"/>
<feBlend mode="normal" in2="shape" result="effect2_innerShadow"/>
</filter>
<linearGradient id="paint0_linear" x1="-56.0793" y1="343.75" x2="295.645" y2="284.691" gradientUnits="userSpaceOnUse">
<stop stop-color="white" stop-opacity="0"/>
<stop offset="0.549357" stop-color="white"/>
<stop offset="1" stop-color="white" stop-opacity="0"/>
</linearGradient>
</defs>
</svg>
