<svg width="193" height="65" viewBox="0 0 193 65" fill="none" xmlns="http://www.w3.org/2000/svg">
<path d="M1.99319 51.8992C1.93666 55.1226 2.95831 57.6914 5.08785 59.6369C7.21777 61.5667 9.60303 62.5323 12.2292 62.5323C13.9886 62.5323 15.6496 62.1204 17.1967 61.2966C18.7429 60.4589 19.9925 59.2663 20.9594 57.6766C21.9093 56.1008 22.3786 54.2701 22.3638 52.1689C22.336 50.1543 21.8524 48.3936 20.9025 46.873C19.9643 45.356 18.7165 44.1764 17.1689 43.3553C15.6209 42.5185 13.9886 42.1057 12.2993 42.1057C11.1358 42.1057 9.97057 42.3179 8.79363 42.7298C7.61581 43.1547 6.50754 43.7946 5.48632 44.6471C4.44986 45.513 3.62649 46.5338 3.01493 47.7412C2.39079 48.9321 2.05116 50.3248 1.99323 51.8993L1.99319 51.8992ZM7.68575 47.3724C7.45873 47.7982 7.23166 48.4784 7.00465 49.4153C6.77627 50.3513 6.64972 51.176 6.63583 51.8997H2.94578C3.17236 49.4301 3.9531 47.4846 5.2866 46.0932C5.42932 46.2359 5.6137 46.3642 5.86898 46.5051C6.12475 46.6469 6.40877 46.7891 6.7197 46.9309C7.04772 47.0727 7.35952 47.2154 7.68575 47.3724V47.3724ZM9.60298 43.4531C8.92096 44.4178 8.36685 45.4547 7.92758 46.5755C6.84936 46.0645 6.18127 45.6956 5.91162 45.4547C6.83415 44.5179 8.05548 43.8502 9.60298 43.4531V43.4531ZM10.8221 43.1843C10.9235 43.1695 11.0218 43.1547 11.1074 43.1412C11.2075 43.1264 11.3062 43.1264 11.4345 43.1264H11.7603V47.5555C11.4197 47.5555 10.9799 47.4985 10.4258 47.3724C9.87259 47.2584 9.3041 47.1023 8.73653 46.9309C9.27632 45.596 9.97044 44.3478 10.8221 43.1843V43.1843ZM11.7598 48.4923V51.8997H7.50084C7.50084 50.5783 7.81404 49.1734 8.4377 47.6838C9.82952 48.2222 10.9369 48.4923 11.7598 48.4923ZM11.7598 52.7643V56.2139C10.923 56.2139 9.82908 56.4849 8.49466 57.0237C8.2977 56.6401 8.08365 55.9738 7.84226 55.0082C7.61568 54.0283 7.50084 53.2906 7.50084 52.7648L11.7598 52.7643V52.7643ZM6.63579 52.7643C6.63579 53.8722 6.96241 55.391 7.62874 57.3213C6.16826 58.0598 5.38664 58.4717 5.28612 58.557C4.56239 57.7771 4.00958 56.8255 3.61163 55.7185C3.215 54.6107 3.01488 53.6312 3.01488 52.7644H6.63583L6.63579 52.7643ZM11.7598 57.0233V61.6085L10.8216 61.5524C10.0139 60.4298 9.30367 59.1527 8.73653 57.7479C9.13453 57.55 10.1419 57.3091 11.7598 57.0233V57.0233ZM7.92709 58.1024C8.66472 59.6369 9.23325 60.686 9.65903 61.2544C8.42512 60.8856 7.17505 60.2027 5.91065 59.2098C6.59311 58.7692 7.26032 58.4003 7.92709 58.1024V58.1024ZM13.577 61.5524L12.6545 61.6085V57.0803C13.6192 57.1364 14.6275 57.3643 15.6778 57.748C14.8257 59.6217 14.1164 60.8856 13.577 61.5524ZM18.5032 59.2098C17.5533 60.2027 16.3311 60.8713 14.8114 61.1832C15.1102 60.8134 15.3655 60.4164 15.5921 60.0184C15.807 59.6212 16.0044 59.2094 16.1744 58.7687C16.3454 58.3438 16.4445 58.1177 16.4598 58.102C17.5945 58.657 18.2752 59.0249 18.5031 59.2098L18.5032 59.2098ZM21.4282 52.7643C21.4282 53.786 21.2142 54.8517 20.7601 55.9595C20.306 57.0672 19.7806 57.9319 19.1565 58.5569C19.0004 58.4291 18.7168 58.272 18.3035 58.0602C17.8925 57.8471 17.3815 57.5783 16.7865 57.2656C17.5098 55.4057 17.8642 53.9152 17.8642 52.7648L21.4282 52.7643H21.4282ZM16.9131 52.7643C16.9131 54.0148 16.6008 55.4197 15.9757 57.0233C15.6208 56.8254 15.0959 56.6253 14.3999 56.4422C13.7188 56.2426 13.1373 56.1721 12.6545 56.2134V52.7638L16.913 52.7643L16.9131 52.7643ZM12.6545 48.4923C13.5349 48.4923 14.6422 48.2222 15.9753 47.6833C16.174 48.0095 16.3872 48.6489 16.6003 49.5719C16.7991 50.4795 16.9126 51.2607 16.9126 51.8997H12.6545V48.4923H12.6545ZM19.0996 46.0927C19.8098 46.7752 20.3765 47.6403 20.8033 48.7198C21.2286 49.7985 21.4287 50.8641 21.4287 51.8992H17.8078C17.8078 50.5357 17.4672 49.0316 16.787 47.3719C17.8212 46.8725 18.6024 46.4485 19.0996 46.0927V46.0927ZM18.5032 45.4547C18.2753 45.6535 17.6229 46.0506 16.5159 46.6325C16.0045 45.3699 15.3933 44.2899 14.6992 43.397C16.0471 43.7941 17.3245 44.4752 18.5032 45.4547ZM13.5205 43.1843C14.3582 44.2069 15.0824 45.426 15.6783 46.873C15.125 47.2306 14.1168 47.4577 12.655 47.5555V43.1264H12.9812C13.2657 43.1264 13.4488 43.1412 13.5205 43.1843V43.1843Z" fill="black" stroke="black" stroke-width="0.565922"/>
<circle cx="45.0011" cy="52.2923" r="9.33772" stroke="black" stroke-width="1.69777"/>
<path d="M49.3107 50.0822C49.3107 50.929 49.0827 51.6402 48.6266 52.216C48.1706 52.758 47.5353 53.1136 46.721 53.283L49.6527 57.6523L47.1607 57.7031L44.4733 53.3846H43.3494V57.7031H41.2483V46.7798H45.7926C46.8676 46.7798 47.7145 47.0846 48.3334 47.6943C48.985 48.2701 49.3107 49.0661 49.3107 50.0822ZM43.3494 51.5556H45.646C46.102 51.5556 46.4766 51.437 46.7698 51.1999C47.063 50.9628 47.2096 50.6072 47.2096 50.133C47.2096 49.6588 47.063 49.3201 46.7698 49.1169C46.4766 48.8798 46.102 48.7612 45.646 48.7612H43.3494V51.5556Z" fill="black"/>
<path d="M178.586 10.268C178.586 13.6681 178.027 16.185 176.908 17.8184C175.798 19.4519 174.085 20.2687 171.768 20.2687C169.522 20.2687 167.826 19.4253 166.681 17.7385C165.545 16.0518 164.977 13.5616 164.977 10.268C164.977 6.83237 165.531 4.30225 166.641 2.67764C167.751 1.04416 169.46 0.227417 171.768 0.227417C174.014 0.227417 175.71 1.07967 176.855 2.78417C178.009 4.48868 178.586 6.98329 178.586 10.268ZM169.065 10.268C169.065 12.6561 169.269 14.3695 169.677 15.4082C170.095 16.438 170.791 16.9529 171.768 16.9529C172.727 16.9529 173.419 16.4291 173.845 15.3815C174.271 14.334 174.485 12.6295 174.485 10.268C174.485 7.87993 174.267 6.16655 173.832 5.12787C173.406 4.08031 172.718 3.55653 171.768 3.55653C170.8 3.55653 170.108 4.08031 169.691 5.12787C169.273 6.16655 169.065 7.87993 169.065 10.268Z" fill="black"/>
<path d="M189.201 20.0023H185.086V8.73662L185.126 6.88564L185.193 4.86154C184.509 5.54512 184.034 5.99344 183.768 6.2065L181.53 8.00422L179.546 5.52736L185.818 0.533695H189.201V20.0023Z" fill="black"/>
<path d="M87.244 46.0787C87.244 46.7353 87.0617 47.2378 86.6971 47.586C86.3325 47.9325 85.8074 48.1057 85.1218 48.1057H84.009V44.1279H85.2388C85.8718 44.1279 86.3643 44.2984 86.7162 44.6394C87.0681 44.9804 87.244 45.4602 87.244 46.0787ZM86.5584 46.1005C86.5584 45.1482 86.1131 44.6721 85.2225 44.6721H84.6593V47.5588H85.1218C86.0795 47.5588 86.5584 47.0727 86.5584 46.1005ZM90.8847 44.1279V46.7018C90.8847 46.9956 90.8213 47.2532 90.6943 47.4745C90.5691 47.6939 90.3868 47.8635 90.1474 47.9832C89.9098 48.1011 89.625 48.1601 89.2931 48.1601C88.7997 48.1601 88.4161 48.0295 88.1422 47.7683C87.8683 47.5071 87.7314 47.148 87.7314 46.6909V44.1279H88.3843V46.6446C88.3843 46.9729 88.4605 47.2151 88.6129 47.3711C88.7653 47.5271 88.9992 47.6051 89.3148 47.6051C89.9279 47.6051 90.2345 47.2831 90.2345 46.6392V44.1279H90.8847ZM93.8181 48.1057H91.568V44.1279H93.8181V44.6775H92.2182V45.7604H93.7174V46.3045H92.2182V47.5534H93.8181V48.1057ZM96.8333 48.1057H96.1831V44.6857H95.0131V44.1279H98.0033V44.6857H96.8333V48.1057ZM101.813 46.1113C101.813 46.7589 101.65 47.2622 101.326 47.6214C101.003 47.9805 100.545 48.1601 99.9517 48.1601C99.3513 48.1601 98.8897 47.9823 98.5668 47.6268C98.2458 47.2695 98.0852 46.7625 98.0852 46.1059C98.0852 45.4493 98.2467 44.945 98.5695 44.5932C98.8942 44.2413 99.3567 44.0653 99.9571 44.0653C100.548 44.0653 101.006 44.244 101.328 44.6013C101.651 44.9586 101.813 45.462 101.813 46.1113ZM98.7763 46.1113C98.7763 46.6011 98.8752 46.9729 99.0729 47.2269C99.2706 47.479 99.5635 47.6051 99.9517 47.6051C100.338 47.6051 100.629 47.4799 100.825 47.2296C101.023 46.9793 101.122 46.6065 101.122 46.1113C101.122 45.6234 101.024 45.2534 100.828 45.0013C100.634 44.7491 100.343 44.6231 99.9571 44.6231C99.5672 44.6231 99.2724 44.7491 99.0729 45.0013C98.8752 45.2534 98.7763 45.6234 98.7763 46.1113ZM105.739 47.0255C105.739 47.3792 105.612 47.6568 105.356 47.8581C105.1 48.0594 104.747 48.1601 104.297 48.1601C103.848 48.1601 103.479 48.0903 103.193 47.9506V47.3357C103.374 47.421 103.566 47.4881 103.77 47.537C103.975 47.586 104.165 47.6105 104.341 47.6105C104.599 47.6105 104.788 47.5615 104.91 47.4636C105.033 47.3656 105.095 47.2341 105.095 47.0691C105.095 46.9203 105.038 46.7943 104.926 46.6909C104.813 46.5875 104.581 46.4651 104.229 46.3236C103.867 46.1766 103.611 46.0089 103.462 45.8202C103.313 45.6316 103.239 45.4049 103.239 45.14C103.239 44.8081 103.357 44.5469 103.593 44.3564C103.829 44.166 104.145 44.0708 104.542 44.0708C104.923 44.0708 105.302 44.1542 105.68 44.3211L105.473 44.8516C105.119 44.7029 104.803 44.6285 104.526 44.6285C104.316 44.6285 104.156 44.6748 104.047 44.7673C103.938 44.858 103.884 44.9786 103.884 45.1291C103.884 45.2325 103.906 45.3214 103.949 45.3958C103.993 45.4683 104.064 45.5373 104.164 45.6026C104.264 45.6679 104.443 45.754 104.703 45.861C104.995 45.9826 105.209 46.0959 105.345 46.2011C105.481 46.3063 105.581 46.4251 105.644 46.5576C105.708 46.69 105.739 46.846 105.739 47.0255ZM108.643 48.1057L108.246 47.001H106.725L106.336 48.1057H105.65L107.138 44.1116H107.846L109.334 48.1057H108.643ZM108.074 46.4406L107.701 45.3577C107.674 45.2851 107.636 45.1709 107.587 45.0149C107.54 44.8589 107.507 44.7446 107.489 44.6721C107.44 44.8952 107.369 45.1391 107.274 45.4039L106.915 46.4406H108.074ZM110.17 48.1057H109.525V44.1279H111.769V44.6775H110.17V45.9209H111.669V46.4732H110.17V48.1057ZM114.406 48.1057H112.156V44.1279H114.406V44.6775H112.806V45.7604H114.305V46.3045H112.806V47.5534H114.406V48.1057ZM116.308 48.1057H115.658V44.6857H114.488V44.1279H117.478V44.6857H116.308V48.1057ZM118.88 45.9427L119.821 44.1279H120.529L119.204 46.563V48.1057H118.551V46.5848L117.231 44.1279H117.938L118.88 45.9427ZM124.466 45.3305C124.466 45.7459 124.33 46.0642 124.058 46.2855C123.786 46.5068 123.399 46.6174 122.896 46.6174H122.483V48.1057H121.832V44.1279H122.978C123.475 44.1279 123.847 44.2295 124.093 44.4326C124.342 44.6358 124.466 44.9351 124.466 45.3305ZM122.483 46.0705H122.828C123.162 46.0705 123.407 46.0125 123.563 45.8964C123.719 45.7803 123.797 45.5989 123.797 45.3523C123.797 45.1237 123.727 44.9532 123.587 44.8407C123.448 44.7283 123.23 44.6721 122.934 44.6721H122.483V46.0705ZM125.577 45.978H126.028C126.331 45.978 126.551 45.9218 126.687 45.8093C126.823 45.6969 126.891 45.53 126.891 45.3087C126.891 45.0838 126.817 44.9224 126.67 44.8244C126.523 44.7265 126.302 44.6775 126.006 44.6775H125.577V45.978ZM125.577 46.5167V48.1057H124.926V44.1279H126.05C126.563 44.1279 126.943 44.224 127.19 44.4163C127.437 44.6086 127.56 44.8988 127.56 45.287C127.56 45.7821 127.302 46.1349 126.787 46.3453L127.911 48.1057H127.171L126.219 46.5167H125.577ZM131.688 46.1113C131.688 46.7589 131.525 47.2622 131.201 47.6214C130.878 47.9805 130.42 48.1601 129.827 48.1601C129.226 48.1601 128.765 47.9823 128.442 47.6268C128.121 47.2695 127.96 46.7625 127.96 46.1059C127.96 45.4493 128.122 44.945 128.445 44.5932C128.769 44.2413 129.232 44.0653 129.832 44.0653C130.423 44.0653 130.881 44.244 131.203 44.6013C131.526 44.9586 131.688 45.462 131.688 46.1113ZM128.651 46.1113C128.651 46.6011 128.75 46.9729 128.948 47.2269C129.146 47.479 129.439 47.6051 129.827 47.6051C130.213 47.6051 130.504 47.4799 130.7 47.2296C130.898 46.9793 130.997 46.6065 130.997 46.1113C130.997 45.6234 130.899 45.2534 130.703 45.0013C130.509 44.7491 130.219 44.6231 129.832 44.6231C129.442 44.6231 129.147 44.7491 128.948 45.0013C128.75 45.2534 128.651 45.6234 128.651 46.1113ZM133.582 48.1057H132.931V44.6857H131.762V44.1279H134.752V44.6857H133.582V48.1057ZM138.561 46.1113C138.561 46.7589 138.399 47.2622 138.074 47.6214C137.751 47.9805 137.293 48.1601 136.7 48.1601C136.1 48.1601 135.638 47.9823 135.315 47.6268C134.994 47.2695 134.834 46.7625 134.834 46.1059C134.834 45.4493 134.995 44.945 135.318 44.5932C135.643 44.2413 136.105 44.0653 136.706 44.0653C137.297 44.0653 137.754 44.244 138.077 44.6013C138.4 44.9586 138.561 45.462 138.561 46.1113ZM135.525 46.1113C135.525 46.6011 135.624 46.9729 135.821 47.2269C136.019 47.479 136.312 47.6051 136.7 47.6051C137.086 47.6051 137.378 47.4799 137.573 47.2296C137.771 46.9793 137.87 46.6065 137.87 46.1113C137.87 45.6234 137.772 45.2534 137.576 45.0013C137.382 44.7491 137.092 44.6231 136.706 44.6231C136.316 44.6231 136.021 44.7491 135.821 45.0013C135.624 45.2534 135.525 45.6234 135.525 46.1113ZM140.773 44.6285C140.4 44.6285 140.106 44.7609 139.892 45.0258C139.678 45.2906 139.571 45.6561 139.571 46.1222C139.571 46.6102 139.673 46.9793 139.878 47.2296C140.085 47.4799 140.383 47.6051 140.773 47.6051C140.942 47.6051 141.105 47.5887 141.263 47.5561C141.421 47.5216 141.585 47.4781 141.756 47.4255V47.9832C141.444 48.1011 141.09 48.1601 140.695 48.1601C140.112 48.1601 139.665 47.9842 139.353 47.6323C139.041 47.2786 138.885 46.7734 138.885 46.1168C138.885 45.7032 138.96 45.3414 139.111 45.0312C139.263 44.721 139.483 44.4834 139.769 44.3184C140.056 44.1533 140.393 44.0708 140.779 44.0708C141.185 44.0708 141.561 44.156 141.905 44.3265L141.671 44.868C141.537 44.8045 141.395 44.7491 141.244 44.702C141.095 44.653 140.938 44.6285 140.773 44.6285ZM145.81 46.1113C145.81 46.7589 145.648 47.2622 145.323 47.6214C145 47.9805 144.542 48.1601 143.949 48.1601C143.349 48.1601 142.887 47.9823 142.564 47.6268C142.243 47.2695 142.082 46.7625 142.082 46.1059C142.082 45.4493 142.244 44.945 142.567 44.5932C142.891 44.2413 143.354 44.0653 143.954 44.0653C144.546 44.0653 145.003 44.244 145.326 44.6013C145.648 44.9586 145.81 45.462 145.81 46.1113ZM142.774 46.1113C142.774 46.6011 142.872 46.9729 143.07 47.2269C143.268 47.479 143.561 47.6051 143.949 47.6051C144.335 47.6051 144.626 47.4799 144.822 47.2296C145.02 46.9793 145.119 46.6065 145.119 46.1113C145.119 45.6234 145.021 45.2534 144.825 45.0013C144.631 44.7491 144.341 44.6231 143.954 44.6231C143.564 44.6231 143.27 44.7491 143.07 45.0013C142.872 45.2534 142.774 45.6234 142.774 46.1113ZM146.33 48.1057V44.1279H146.98V47.5479H148.664V48.1057H146.33ZM151.309 47.0255C151.309 47.3792 151.181 47.6568 150.926 47.8581C150.67 48.0594 150.317 48.1601 149.867 48.1601C149.417 48.1601 149.049 48.0903 148.763 47.9506V47.3357C148.944 47.421 149.136 47.4881 149.339 47.537C149.544 47.586 149.735 47.6105 149.911 47.6105C150.168 47.6105 150.358 47.5615 150.479 47.4636C150.603 47.3656 150.664 47.2341 150.664 47.0691C150.664 46.9203 150.608 46.7943 150.496 46.6909C150.383 46.5875 150.151 46.4651 149.799 46.3236C149.436 46.1766 149.181 46.0089 149.032 45.8202C148.883 45.6316 148.809 45.4049 148.809 45.14C148.809 44.8081 148.927 44.5469 149.163 44.3564C149.398 44.166 149.715 44.0708 150.112 44.0708C150.493 44.0708 150.872 44.1542 151.249 44.3211L151.043 44.8516C150.689 44.7029 150.373 44.6285 150.096 44.6285C149.885 44.6285 149.726 44.6748 149.617 44.7673C149.508 44.858 149.454 44.9786 149.454 45.1291C149.454 45.2325 149.475 45.3214 149.519 45.3958C149.563 45.4683 149.634 45.5373 149.734 45.6026C149.834 45.6679 150.013 45.754 150.273 45.861C150.565 45.9826 150.779 46.0959 150.915 46.2011C151.051 46.3063 151.151 46.4251 151.214 46.5576C151.278 46.69 151.309 46.846 151.309 47.0255ZM156.528 48.1057H155.821L155.146 45.7332C155.117 45.6298 155.081 45.481 155.037 45.287C154.994 45.0911 154.968 44.955 154.958 44.8788C154.94 44.9949 154.91 45.1455 154.869 45.3305C154.829 45.5155 154.795 45.6534 154.768 45.744L154.11 48.1057H153.402L152.888 46.1141L152.366 44.1279H153.029L153.598 46.446C153.687 46.8178 153.75 47.1462 153.789 47.4309C153.809 47.2768 153.838 47.1044 153.878 46.914C153.918 46.7235 153.955 46.5693 153.987 46.4514L154.635 44.1279H155.28L155.943 46.4623C156.007 46.6782 156.074 47.001 156.145 47.4309C156.172 47.1715 156.237 46.8414 156.341 46.4406L156.907 44.1279H157.565L156.528 48.1057ZM160.047 48.1057H157.797V44.1279H160.047V44.6775H158.447V45.7604H159.946V46.3045H158.447V47.5534H160.047V48.1057ZM163.982 47.0255C163.982 47.3792 163.854 47.6568 163.598 47.8581C163.342 48.0594 162.989 48.1601 162.54 48.1601C162.09 48.1601 161.722 48.0903 161.435 47.9506V47.3357C161.616 47.421 161.809 47.4881 162.012 47.537C162.217 47.586 162.407 47.6105 162.583 47.6105C162.841 47.6105 163.03 47.5615 163.152 47.4636C163.275 47.3656 163.337 47.2341 163.337 47.0691C163.337 46.9203 163.281 46.7943 163.168 46.6909C163.056 46.5875 162.823 46.4651 162.472 46.3236C162.109 46.1766 161.853 46.0089 161.704 45.8202C161.556 45.6316 161.481 45.4049 161.481 45.14C161.481 44.8081 161.599 44.5469 161.835 44.3564C162.071 44.166 162.387 44.0708 162.784 44.0708C163.165 44.0708 163.544 44.1542 163.922 44.3211L163.715 44.8516C163.361 44.7029 163.046 44.6285 162.768 44.6285C162.558 44.6285 162.398 44.6748 162.289 44.7673C162.18 44.858 162.126 44.9786 162.126 45.1291C162.126 45.2325 162.148 45.3214 162.191 45.3958C162.235 45.4683 162.306 45.5373 162.406 45.6026C162.506 45.6679 162.686 45.754 162.945 45.861C163.237 45.9826 163.451 46.0959 163.587 46.2011C163.723 46.3063 163.823 46.4251 163.886 46.5576C163.95 46.69 163.982 46.846 163.982 47.0255ZM165.791 48.1057H165.141V44.6857H163.971V44.1279H166.961V44.6857H165.791V48.1057ZM167.889 45.978H168.341C168.644 45.978 168.863 45.9218 168.999 45.8093C169.135 45.6969 169.203 45.53 169.203 45.3087C169.203 45.0838 169.13 44.9224 168.983 44.8244C168.836 44.7265 168.615 44.6775 168.319 44.6775H167.889V45.978ZM167.889 46.5167V48.1057H167.239V44.1279H168.363C168.876 44.1279 169.256 44.224 169.503 44.4163C169.749 44.6086 169.873 44.8988 169.873 45.287C169.873 45.7821 169.615 46.1349 169.1 46.3453L170.224 48.1057H169.484L168.531 46.5167H167.889ZM174 46.1113C174 46.7589 173.838 47.2622 173.513 47.6214C173.191 47.9805 172.733 48.1601 172.139 48.1601C171.539 48.1601 171.077 47.9823 170.755 47.6268C170.434 47.2695 170.273 46.7625 170.273 46.1059C170.273 45.4493 170.434 44.945 170.757 44.5932C171.082 44.2413 171.545 44.0653 172.145 44.0653C172.736 44.0653 173.193 44.244 173.516 44.6013C173.839 44.9586 174 45.462 174 46.1113ZM170.964 46.1113C170.964 46.6011 171.063 46.9729 171.261 47.2269C171.458 47.479 171.751 47.6051 172.139 47.6051C172.526 47.6051 172.817 47.4799 173.013 47.2296C173.211 46.9793 173.309 46.6065 173.309 46.1113C173.309 45.6234 173.211 45.2534 173.016 45.0013C172.821 44.7491 172.531 44.6231 172.145 44.6231C171.755 44.6231 171.46 44.7491 171.261 45.0013C171.063 45.2534 170.964 45.6234 170.964 46.1113ZM177.834 48.1057H177.037L175.081 44.936H175.059L175.073 45.1128C175.098 45.4502 175.111 45.7586 175.111 46.0379V48.1057H174.52V44.1279H175.309L177.26 47.2813H177.277C177.273 47.2396 177.266 47.0881 177.255 46.8269C177.244 46.5639 177.239 46.3589 177.239 46.212V44.1279H177.834V48.1057ZM180.177 45.9481H181.641V47.9452C181.402 48.0232 181.171 48.0785 180.95 48.1111C180.731 48.1438 180.493 48.1601 180.237 48.1601C179.635 48.1601 179.171 47.9823 178.844 47.6268C178.518 47.2695 178.354 46.7662 178.354 46.1168C178.354 45.4765 178.538 44.9759 178.907 44.6149C179.275 44.2521 179.782 44.0708 180.428 44.0708C180.843 44.0708 181.237 44.1506 181.608 44.3102L181.38 44.8516C181.057 44.7029 180.734 44.6285 180.411 44.6285C179.987 44.6285 179.651 44.7618 179.405 45.0285C179.158 45.2951 179.035 45.6597 179.035 46.1222C179.035 46.6083 179.145 46.9784 179.367 47.2323C179.59 47.4844 179.91 47.6105 180.327 47.6105C180.537 47.6105 180.762 47.5842 181.002 47.5316V46.5059H180.177V45.9481ZM182.264 48.1057V44.1279H182.915V47.5479H184.599V48.1057H182.264ZM186.074 45.9427L187.015 44.1279H187.723L186.398 46.563V48.1057H185.745V46.5848L184.425 44.1279H185.132L186.074 45.9427ZM84.6593 53.978H85.1109C85.4138 53.978 85.6333 53.9218 85.7693 53.8093C85.9054 53.6969 85.9734 53.53 85.9734 53.3087C85.9734 53.0838 85.8999 52.9224 85.753 52.8244C85.6061 52.7265 85.3848 52.6775 85.0891 52.6775H84.6593V53.978ZM84.6593 54.5167V56.1057H84.009V52.1279H85.1327C85.646 52.1279 86.026 52.224 86.2727 52.4163C86.5194 52.6086 86.6427 52.8988 86.6427 53.287C86.6427 53.7821 86.3851 54.1349 85.87 54.3453L86.9937 56.1057H86.2536L85.3014 54.5167H84.6593ZM89.489 56.1057H87.2389V52.1279H89.489V52.6775H87.8892V53.7604H89.3883V54.3045H87.8892V55.5534H89.489V56.1057ZM91.7095 52.6285C91.3358 52.6285 91.042 52.7609 90.8279 53.0258C90.6139 53.2906 90.5069 53.6561 90.5069 54.1222C90.5069 54.6102 90.6094 54.9793 90.8143 55.2296C91.0211 55.4799 91.3195 55.6051 91.7095 55.6051C91.8782 55.6051 92.0414 55.5887 92.1992 55.5561C92.357 55.5216 92.5212 55.4781 92.6917 55.4255V55.9832C92.3797 56.1011 92.026 56.1601 91.6306 56.1601C91.0483 56.1601 90.6012 55.9842 90.2892 55.6323C89.9772 55.2786 89.8212 54.7734 89.8212 54.1168C89.8212 53.7032 89.8965 53.3414 90.0471 53.0312C90.1994 52.721 90.4189 52.4834 90.7055 52.3184C90.9921 52.1533 91.3286 52.0708 91.7149 52.0708C92.1212 52.0708 92.4967 52.156 92.8413 52.3265L92.6073 52.868C92.4731 52.8045 92.3307 52.7491 92.1802 52.702C92.0314 52.653 91.8745 52.6285 91.7095 52.6285ZM96.746 54.1113C96.746 54.7589 96.5836 55.2622 96.2589 55.6214C95.9361 55.9805 95.4781 56.1601 94.8849 56.1601C94.2846 56.1601 93.8229 55.9823 93.5001 55.6268C93.179 55.2695 93.0185 54.7625 93.0185 54.1059C93.0185 53.4493 93.1799 52.945 93.5028 52.5932C93.8275 52.2413 94.29 52.0653 94.8904 52.0653C95.4817 52.0653 95.9388 52.244 96.2617 52.6013C96.5845 52.9586 96.746 53.462 96.746 54.1113ZM93.7096 54.1113C93.7096 54.6011 93.8084 54.9729 94.0061 55.2269C94.2038 55.479 94.4968 55.6051 94.8849 55.6051C95.2713 55.6051 95.5624 55.4799 95.7583 55.2296C95.956 54.9793 96.0549 54.6065 96.0549 54.1113C96.0549 53.6234 95.9569 53.2534 95.761 53.0013C95.5669 52.7491 95.2767 52.6231 94.8904 52.6231C94.5004 52.6231 94.2057 52.7491 94.0061 53.0013C93.8084 53.2534 93.7096 53.6234 93.7096 54.1113ZM98.9855 56.1057L97.8319 52.7836H97.8101C97.8409 53.277 97.8564 53.7395 97.8564 54.1712V56.1057H97.2659V52.1279H98.1829L99.2875 55.2922H99.3038L100.441 52.1279H101.361V56.1057H100.735V54.1386C100.735 53.9408 100.739 53.6833 100.749 53.3659C100.759 53.0484 100.769 52.8562 100.776 52.789H100.754L99.5596 56.1057H98.9855ZM103.793 56.1057L102.64 52.7836H102.618C102.649 53.277 102.664 53.7395 102.664 54.1712V56.1057H102.074V52.1279H102.991L104.095 55.2922H104.112L105.249 52.1279H106.169V56.1057H105.543V54.1386C105.543 53.9408 105.547 53.6833 105.556 53.3659C105.567 53.0484 105.576 52.8562 105.584 52.789H105.562L104.368 56.1057H103.793ZM109.132 56.1057H106.882V52.1279H109.132V52.6775H107.532V53.7604H109.031V54.3045H107.532V55.5534H109.132V56.1057ZM112.974 56.1057H112.177L110.221 52.936H110.199L110.212 53.1128C110.238 53.4502 110.25 53.7586 110.25 54.0379V56.1057H109.66V52.1279H110.449L112.4 55.2813H112.416C112.413 55.2396 112.405 55.0881 112.394 54.8269C112.384 54.5639 112.378 54.3589 112.378 54.212V52.1279H112.974V56.1057ZM116.925 54.0787C116.925 54.7353 116.743 55.2378 116.378 55.586C116.013 55.9325 115.488 56.1057 114.803 56.1057H113.69V52.1279H114.92C115.553 52.1279 116.045 52.2984 116.397 52.6394C116.749 52.9804 116.925 53.4602 116.925 54.0787ZM116.239 54.1005C116.239 53.1482 115.794 52.6721 114.903 52.6721H114.34V55.5588H114.803C115.76 55.5588 116.239 55.0727 116.239 54.1005ZM119.684 53.9427L120.626 52.1279H121.333L120.008 54.563V56.1057H119.355V54.5848L118.036 52.1279H118.743L119.684 53.9427ZM125.056 54.1113C125.056 54.7589 124.893 55.2622 124.569 55.6214C124.246 55.9805 123.788 56.1601 123.195 56.1601C122.594 56.1601 122.133 55.9823 121.81 55.6268C121.489 55.2695 121.328 54.7625 121.328 54.1059C121.328 53.4493 121.49 52.945 121.812 52.5932C122.137 52.2413 122.6 52.0653 123.2 52.0653C123.791 52.0653 124.248 52.244 124.571 52.6013C124.894 52.9586 125.056 53.462 125.056 54.1113ZM122.019 54.1113C122.019 54.6011 122.118 54.9729 122.316 55.2269C122.513 55.479 122.806 55.6051 123.195 55.6051C123.581 55.6051 123.872 55.4799 124.068 55.2296C124.266 54.9793 124.364 54.6065 124.364 54.1113C124.364 53.6234 124.267 53.2534 124.071 53.0013C123.877 52.7491 123.586 52.6231 123.2 52.6231C122.81 52.6231 122.515 52.7491 122.316 53.0013C122.118 53.2534 122.019 53.6234 122.019 54.1113ZM128.694 52.1279V54.7018C128.694 54.9956 128.63 55.2532 128.503 55.4745C128.378 55.6939 128.196 55.8635 127.956 55.9832C127.719 56.1011 127.434 56.1601 127.102 56.1601C126.609 56.1601 126.225 56.0295 125.951 55.7683C125.677 55.5071 125.54 55.148 125.54 54.6909V52.1279H126.193V54.6446C126.193 54.9729 126.269 55.2151 126.422 55.3711C126.574 55.5271 126.808 55.6051 127.124 55.6051C127.737 55.6051 128.043 55.2831 128.043 54.6392V52.1279H128.694ZM131.864 56.1057H131.214V52.6857H130.044V52.1279H133.034V52.6857H131.864V56.1057ZM136.843 54.1113C136.843 54.7589 136.681 55.2622 136.356 55.6214C136.033 55.9805 135.575 56.1601 134.982 56.1601C134.382 56.1601 133.92 55.9823 133.597 55.6268C133.276 55.2695 133.116 54.7625 133.116 54.1059C133.116 53.4493 133.277 52.945 133.6 52.5932C133.925 52.2413 134.387 52.0653 134.988 52.0653C135.579 52.0653 136.036 52.244 136.359 52.6013C136.682 52.9586 136.843 53.462 136.843 54.1113ZM133.807 54.1113C133.807 54.6011 133.906 54.9729 134.103 55.2269C134.301 55.479 134.594 55.6051 134.982 55.6051C135.369 55.6051 135.66 55.4799 135.856 55.2296C136.053 54.9793 136.152 54.6065 136.152 54.1113C136.152 53.6234 136.054 53.2534 135.858 53.0013C135.664 52.7491 135.374 52.6231 134.988 52.6231C134.598 52.6231 134.303 52.7491 134.103 53.0013C133.906 53.2534 133.807 53.6234 133.807 54.1113ZM141.513 56.1057H140.759L139.51 54.3045L139.127 54.6174V56.1057H138.476V52.1279H139.127V54.027C139.304 53.8093 139.481 53.5998 139.657 53.3985L140.732 52.1279H141.472C140.777 52.9441 140.279 53.5255 139.978 53.8719L141.513 56.1057ZM143.956 56.1057H141.706V52.1279H143.956V52.6775H142.357V53.7604H143.856V54.3045H142.357V55.5534H143.956V56.1057ZM146.735 56.1057H144.485V52.1279H146.735V52.6775H145.135V53.7604H146.634V54.3045H145.135V55.5534H146.735V56.1057ZM149.897 53.3305C149.897 53.7459 149.76 54.0642 149.488 54.2855C149.216 54.5068 148.829 54.6174 148.327 54.6174H147.913V56.1057H147.263V52.1279H148.408C148.905 52.1279 149.277 52.2295 149.524 52.4326C149.772 52.6358 149.897 52.9351 149.897 53.3305ZM147.913 54.0705H148.259C148.592 54.0705 148.837 54.0125 148.993 53.8964C149.149 53.7803 149.227 53.5989 149.227 53.3523C149.227 53.1237 149.157 52.9532 149.018 52.8407C148.878 52.7283 148.66 52.6721 148.365 52.6721H147.913V54.0705ZM154.705 54.0787C154.705 54.7353 154.523 55.2378 154.158 55.586C153.793 55.9325 153.268 56.1057 152.583 56.1057H151.47V52.1279H152.7C153.333 52.1279 153.825 52.2984 154.177 52.6394C154.529 52.9804 154.705 53.4602 154.705 54.0787ZM154.019 54.1005C154.019 53.1482 153.574 52.6721 152.683 52.6721H152.12V55.5588H152.583C153.54 55.5588 154.019 55.0727 154.019 54.1005ZM155.228 56.1057V52.1279H155.878V56.1057H155.228ZM158.89 55.0255C158.89 55.3792 158.762 55.6568 158.506 55.8581C158.251 56.0594 157.898 56.1601 157.448 56.1601C156.998 56.1601 156.63 56.0903 156.343 55.9506V55.3357C156.525 55.421 156.717 55.4881 156.92 55.537C157.125 55.586 157.316 55.6105 157.492 55.6105C157.749 55.6105 157.939 55.5615 158.06 55.4636C158.184 55.3656 158.245 55.2341 158.245 55.0691C158.245 54.9203 158.189 54.7943 158.077 54.6909C157.964 54.5875 157.732 54.4651 157.38 54.3236C157.017 54.1766 156.761 54.0089 156.613 53.8202C156.464 53.6316 156.39 53.4049 156.39 53.14C156.39 52.8081 156.508 52.5469 156.743 52.3564C156.979 52.166 157.296 52.0708 157.693 52.0708C158.074 52.0708 158.453 52.1542 158.83 52.3211L158.623 52.8516C158.27 52.7029 157.954 52.6285 157.677 52.6285C157.466 52.6285 157.307 52.6748 157.198 52.7673C157.089 52.858 157.034 52.9786 157.034 53.1291C157.034 53.2325 157.056 53.3214 157.1 53.3958C157.143 53.4683 157.215 53.5373 157.315 53.6026C157.414 53.6679 157.594 53.754 157.853 53.861C158.145 53.9826 158.359 54.0959 158.496 54.2011C158.632 54.3063 158.731 54.4251 158.795 54.5576C158.858 54.69 158.89 54.846 158.89 55.0255ZM160.7 56.1057H160.049V52.6857H158.879V52.1279H161.87V52.6857H160.7V56.1057ZM164.615 56.1057L164.218 55.001H162.697L162.308 56.1057H161.622L163.111 52.1116H163.818L165.306 56.1057H164.615ZM164.047 54.4406L163.674 53.3577C163.647 53.2851 163.609 53.1709 163.56 53.0149C163.512 52.8589 163.48 52.7446 163.462 52.6721C163.413 52.8952 163.341 53.1391 163.247 53.4039L162.887 54.4406H164.047ZM168.811 56.1057H168.014L166.058 52.936H166.036L166.049 53.1128C166.075 53.4502 166.087 53.7586 166.087 54.0379V56.1057H165.497V52.1279H166.286L168.237 55.2813H168.253C168.25 55.2396 168.242 55.0881 168.231 54.8269C168.221 54.5639 168.215 54.3589 168.215 54.212V52.1279H168.811V56.1057ZM171.219 52.6285C170.846 52.6285 170.552 52.7609 170.338 53.0258C170.124 53.2906 170.017 53.6561 170.017 54.1222C170.017 54.6102 170.119 54.9793 170.324 55.2296C170.531 55.4799 170.829 55.6051 171.219 55.6051C171.388 55.6051 171.551 55.5887 171.709 55.5561C171.867 55.5216 172.031 55.4781 172.201 55.4255V55.9832C171.889 56.1011 171.536 56.1601 171.14 56.1601C170.558 56.1601 170.111 55.9842 169.799 55.6323C169.487 55.2786 169.331 54.7734 169.331 54.1168C169.331 53.7032 169.406 53.3414 169.557 53.0312C169.709 52.721 169.929 52.4834 170.215 52.3184C170.502 52.1533 170.838 52.0708 171.225 52.0708C171.631 52.0708 172.006 52.156 172.351 52.3265L172.117 52.868C171.983 52.8045 171.84 52.7491 171.69 52.702C171.541 52.653 171.384 52.6285 171.219 52.6285ZM174.974 56.1057H172.724V52.1279H174.974V52.6775H173.374V53.7604H174.874V54.3045H173.374V55.5534H174.974V56.1057ZM179.083 56.1057L178.686 55.001H177.165L176.776 56.1057H176.09L177.579 52.1116H178.286L179.774 56.1057H179.083ZM178.515 54.4406L178.142 53.3577C178.115 53.2851 178.077 53.1709 178.028 53.0149C177.98 52.8589 177.948 52.7446 177.93 52.6721C177.881 52.8952 177.809 53.1391 177.715 53.4039L177.356 54.4406H178.515ZM183.279 56.1057H182.482L180.526 52.936H180.504L180.517 53.1128C180.543 53.4502 180.555 53.7586 180.555 54.0379V56.1057H179.965V52.1279H180.754L182.705 55.2813H182.721C182.718 55.2396 182.71 55.0881 182.699 54.8269C182.689 54.5639 182.683 54.3589 182.683 54.212V52.1279H183.279V56.1057ZM187.23 54.0787C187.23 54.7353 187.048 55.2378 186.683 55.586C186.318 55.9325 185.793 56.1057 185.108 56.1057H183.995V52.1279H185.225C185.858 52.1279 186.35 52.2984 186.702 52.6394C187.054 52.9804 187.23 53.4602 187.23 54.0787ZM186.544 54.1005C186.544 53.1482 186.099 52.6721 185.208 52.6721H184.645V55.5588H185.108C186.065 55.5588 186.544 55.0727 186.544 54.1005ZM86.3026 63.0255C86.3026 63.3792 86.1747 63.6568 85.919 63.8581C85.6632 64.0594 85.3104 64.1601 84.8606 64.1601C84.4108 64.1601 84.0426 64.0903 83.756 63.9506V63.3357C83.9374 63.421 84.1296 63.4881 84.3328 63.537C84.5377 63.586 84.7282 63.6105 84.9041 63.6105C85.1617 63.6105 85.3512 63.5615 85.4728 63.4636C85.5961 63.3656 85.6578 63.2341 85.6578 63.0691C85.6578 62.9203 85.6016 62.7943 85.4891 62.6909C85.3766 62.5875 85.1445 62.4651 84.7926 62.3236C84.4298 62.1766 84.1741 62.0089 84.0253 61.8202C83.8766 61.6316 83.8022 61.4049 83.8022 61.14C83.8022 60.8081 83.9201 60.5469 84.1559 60.3564C84.3917 60.166 84.7082 60.0708 85.1055 60.0708C85.4864 60.0708 85.8655 60.1542 86.2428 60.3211L86.036 60.8516C85.6823 60.7029 85.3667 60.6285 85.0891 60.6285C84.8787 60.6285 84.7191 60.6748 84.6103 60.7673C84.5015 60.858 84.447 60.9786 84.447 61.1291C84.447 61.2325 84.4688 61.3214 84.5123 61.3958C84.5559 61.4683 84.6275 61.5373 84.7273 61.6026C84.827 61.6679 85.0066 61.754 85.266 61.861C85.558 61.9826 85.7721 62.0959 85.9081 62.2011C86.0441 62.3063 86.1439 62.4251 86.2074 62.5576C86.2709 62.69 86.3026 62.846 86.3026 63.0255ZM88.1123 64.1057H87.462V60.6857H86.2921V60.1279H89.2822V60.6857H88.1123V64.1057ZM92.0278 64.1057L91.6306 63.001H90.1096L89.7206 64.1057H89.0349L90.5232 60.1116H91.2306L92.7189 64.1057H92.0278ZM91.4592 62.4406L91.0864 61.3577C91.0592 61.2851 91.0211 61.1709 90.9721 61.0149C90.925 60.8589 90.8923 60.7446 90.8742 60.6721C90.8252 60.8952 90.7536 61.1391 90.6592 61.4039L90.3001 62.4406H91.4592ZM94.0333 61.9427L94.9747 60.1279H95.6821L94.3571 62.563V64.1057H93.7041V62.5848L92.3845 60.1279H93.0919L94.0333 61.9427ZM100.518 62.1113C100.518 62.7589 100.355 63.2622 100.031 63.6214C99.7077 63.9805 99.2497 64.1601 98.6566 64.1601C98.0562 64.1601 97.5946 63.9823 97.2717 63.6268C96.9507 63.2695 96.7901 62.7625 96.7901 62.1059C96.7901 61.4493 96.9516 60.945 97.2744 60.5932C97.5991 60.2413 98.0617 60.0653 98.662 60.0653C99.2534 60.0653 99.7104 60.244 100.033 60.6013C100.356 60.9586 100.518 61.462 100.518 62.1113ZM97.4812 62.1113C97.4812 62.6011 97.5801 62.9729 97.7778 63.2269C97.9755 63.479 98.2684 63.6051 98.6566 63.6051C99.0429 63.6051 99.3341 63.4799 99.53 63.2296C99.7277 62.9793 99.8265 62.6065 99.8265 62.1113C99.8265 61.6234 99.7286 61.2534 99.5327 61.0013C99.3386 60.7491 99.0484 60.6231 98.662 60.6231C98.2721 60.6231 97.9773 60.7491 97.7778 61.0013C97.5801 61.2534 97.4812 61.6234 97.4812 62.1113ZM104.156 60.1279V62.7018C104.156 62.9956 104.092 63.2532 103.965 63.4745C103.84 63.6939 103.658 63.8635 103.418 63.9832C103.181 64.1011 102.896 64.1601 102.564 64.1601C102.071 64.1601 101.687 64.0295 101.413 63.7683C101.139 63.5071 101.002 63.148 101.002 62.6909V60.1279H101.655V62.6446C101.655 62.9729 101.731 63.2151 101.884 63.3711C102.036 63.5271 102.27 63.6051 102.586 63.6051C103.199 63.6051 103.505 63.2831 103.505 62.6392V60.1279H104.156ZM106.213 64.1057H105.563V60.6857H104.393V60.1279H107.383V60.6857H106.213V64.1057ZM109.954 63.0255C109.954 63.3792 109.826 63.6568 109.571 63.8581C109.315 64.0594 108.962 64.1601 108.512 64.1601C108.062 64.1601 107.694 64.0903 107.408 63.9506V63.3357C107.589 63.421 107.781 63.4881 107.984 63.537C108.189 63.586 108.38 63.6105 108.556 63.6105C108.813 63.6105 109.003 63.5615 109.124 63.4636C109.248 63.3656 109.309 63.2341 109.309 63.0691C109.309 62.9203 109.253 62.7943 109.141 62.6909C109.028 62.5875 108.796 62.4651 108.444 62.3236C108.081 62.1766 107.826 62.0089 107.677 61.8202C107.528 61.6316 107.454 61.4049 107.454 61.14C107.454 60.8081 107.572 60.5469 107.808 60.3564C108.043 60.166 108.36 60.0708 108.757 60.0708C109.138 60.0708 109.517 60.1542 109.894 60.3211L109.688 60.8516C109.334 60.7029 109.018 60.6285 108.741 60.6285C108.53 60.6285 108.371 60.6748 108.262 60.7673C108.153 60.858 108.099 60.9786 108.099 61.1291C108.099 61.2325 108.12 61.3214 108.164 61.3958C108.208 61.4683 108.279 61.5373 108.379 61.6026C108.479 61.6679 108.658 61.754 108.918 61.861C109.21 61.9826 109.424 62.0959 109.56 62.2011C109.696 62.3063 109.796 62.4251 109.859 62.5576C109.923 62.69 109.954 62.846 109.954 63.0255ZM110.39 64.1057V60.1279H111.04V64.1057H110.39ZM114.994 62.0787C114.994 62.7353 114.812 63.2378 114.447 63.586C114.082 63.9325 113.557 64.1057 112.872 64.1057H111.759V60.1279H112.989C113.622 60.1279 114.114 60.2984 114.466 60.6394C114.818 60.9804 114.994 61.4602 114.994 62.0787ZM114.308 62.1005C114.308 61.1482 113.863 60.6721 112.972 60.6721H112.409V63.5588H112.872C113.829 63.5588 114.308 63.0727 114.308 62.1005ZM117.767 64.1057H115.517V60.1279H117.767V60.6775H116.167V61.7604H117.666V62.3045H116.167V63.5534H117.767V64.1057ZM120.782 64.1057H120.132V60.6857H118.962V60.1279H121.952V60.6857H120.782V64.1057ZM125.367 64.1057H124.714V62.3127H122.88V64.1057H122.23V60.1279H122.88V61.7549H124.714V60.1279H125.367V64.1057ZM128.33 64.1057H126.08V60.1279H128.33V60.6775H126.73V61.7604H128.229V62.3045H126.73V63.5534H128.33V64.1057ZM131.664 60.6285C131.29 60.6285 130.996 60.7609 130.782 61.0258C130.568 61.2906 130.461 61.6561 130.461 62.1222C130.461 62.6102 130.563 62.9793 130.768 63.2296C130.975 63.4799 131.274 63.6051 131.664 63.6051C131.832 63.6051 131.996 63.5887 132.153 63.5561C132.311 63.5216 132.475 63.4781 132.646 63.4255V63.9832C132.334 64.1011 131.98 64.1601 131.585 64.1601C131.002 64.1601 130.555 63.9842 130.243 63.6323C129.931 63.2786 129.775 62.7734 129.775 62.1168C129.775 61.7032 129.851 61.3414 130.001 61.0312C130.154 60.721 130.373 60.4834 130.66 60.3184C130.946 60.1533 131.283 60.0708 131.669 60.0708C132.075 60.0708 132.451 60.156 132.795 60.3265L132.561 60.868C132.427 60.8045 132.285 60.7491 132.134 60.702C131.986 60.653 131.829 60.6285 131.664 60.6285ZM135.636 64.1057L135.239 63.001H133.718L133.329 64.1057H132.643L134.132 60.1116H134.839L136.327 64.1057H135.636ZM135.068 62.4406L134.695 61.3577C134.668 61.2851 134.63 61.1709 134.581 61.0149C134.533 60.8589 134.501 60.7446 134.483 60.6721C134.434 60.8952 134.362 61.1391 134.268 61.4039L133.909 62.4406H135.068ZM139.152 61.3305C139.152 61.7459 139.016 62.0642 138.744 62.2855C138.472 62.5068 138.084 62.6174 137.582 62.6174H137.168V64.1057H136.518V60.1279H137.664C138.161 60.1279 138.532 60.2295 138.779 60.4326C139.028 60.6358 139.152 60.9351 139.152 61.3305ZM137.168 62.0705H137.514C137.848 62.0705 138.093 62.0125 138.249 61.8964C138.405 61.7803 138.483 61.5989 138.483 61.3523C138.483 61.1237 138.413 60.9532 138.273 60.8407C138.133 60.7283 137.916 60.6721 137.62 60.6721H137.168V62.0705ZM141.906 63.0255C141.906 63.3792 141.778 63.6568 141.522 63.8581C141.266 64.0594 140.913 64.1601 140.464 64.1601C140.014 64.1601 139.646 64.0903 139.359 63.9506V63.3357C139.54 63.421 139.733 63.4881 139.936 63.537C140.141 63.586 140.331 63.6105 140.507 63.6105C140.765 63.6105 140.954 63.5615 141.076 63.4636C141.199 63.3656 141.261 63.2341 141.261 63.0691C141.261 62.9203 141.205 62.7943 141.092 62.6909C140.98 62.5875 140.747 62.4651 140.396 62.3236C140.033 62.1766 139.777 62.0089 139.628 61.8202C139.48 61.6316 139.405 61.4049 139.405 61.14C139.405 60.8081 139.523 60.5469 139.759 60.3564C139.995 60.166 140.311 60.0708 140.708 60.0708C141.089 60.0708 141.468 60.1542 141.846 60.3211L141.639 60.8516C141.285 60.7029 140.97 60.6285 140.692 60.6285C140.482 60.6285 140.322 60.6748 140.213 60.7673C140.104 60.858 140.05 60.9786 140.05 61.1291C140.05 61.2325 140.072 61.3214 140.115 61.3958C140.159 61.4683 140.23 61.5373 140.33 61.6026C140.43 61.6679 140.61 61.754 140.869 61.861C141.161 61.9826 141.375 62.0959 141.511 62.2011C141.647 62.3063 141.747 62.4251 141.81 62.5576C141.874 62.69 141.906 62.846 141.906 63.0255ZM145.459 60.1279V62.7018C145.459 62.9956 145.396 63.2532 145.269 63.4745C145.144 63.6939 144.961 63.8635 144.722 63.9832C144.484 64.1011 144.2 64.1601 143.868 64.1601C143.374 64.1601 142.991 64.0295 142.717 63.7683C142.443 63.5071 142.306 63.148 142.306 62.6909V60.1279H142.959V62.6446C142.959 62.9729 143.035 63.2151 143.187 63.3711C143.34 63.5271 143.574 63.6051 143.889 63.6051C144.502 63.6051 144.809 63.2831 144.809 62.6392V60.1279H145.459ZM146.143 64.1057V60.1279H146.793V63.5479H148.477V64.1057H146.143ZM151.296 64.1057L150.899 63.001H149.378L148.989 64.1057H148.303L149.791 60.1116H150.499L151.987 64.1057H151.296ZM150.727 62.4406L150.355 61.3577C150.327 61.2851 150.289 61.1709 150.24 61.0149C150.193 60.8589 150.161 60.7446 150.142 60.6721C150.093 60.8952 150.022 61.1391 149.927 61.4039L149.568 62.4406H150.727Z" fill="black"/>
<path d="M5.74874 4.2017C5.74874 4.85791 5.56656 5.36003 5.2022 5.70807C4.83784 6.0543 4.31306 6.22742 3.62785 6.22742H2.51575V2.25212H3.74477C4.37741 2.25212 4.86957 2.42252 5.22123 2.76331C5.5729 3.1041 5.74874 3.58356 5.74874 4.2017ZM5.06353 4.22345C5.06353 3.27178 4.61851 2.79594 3.72846 2.79594H3.16561V5.68088H3.62785C4.58497 5.68088 5.06353 5.19507 5.06353 4.22345ZM9.38719 2.25212V4.82437C9.38719 5.11803 9.32375 5.37544 9.19686 5.59659C9.07178 5.81593 8.8896 5.98542 8.65032 6.10506C8.41286 6.22289 8.12826 6.2818 7.79653 6.2818C7.30347 6.2818 6.92008 6.15128 6.64636 5.89025C6.37264 5.62922 6.23578 5.2703 6.23578 4.81349V2.25212H6.88836V4.76727C6.88836 5.09537 6.96449 5.33737 7.11676 5.49327C7.26903 5.64916 7.50287 5.72711 7.81828 5.72711C8.43098 5.72711 8.73733 5.40535 8.73733 4.76183V2.25212H9.38719ZM12.3187 6.22742H10.07V2.25212H12.3187V2.80138H10.7199V3.88357H12.2181V4.42739H10.7199V5.67544H12.3187V6.22742ZM15.3321 6.22742H14.6822V2.80953H13.513V2.25212H16.5013V2.80953H15.3321V6.22742ZM20.3083 4.23433C20.3083 4.88147 20.1461 5.3845 19.8216 5.74342C19.4989 6.10234 19.0412 6.2818 18.4485 6.2818C17.8485 6.2818 17.3871 6.10415 17.0645 5.74886C16.7436 5.39175 16.5832 4.8851 16.5832 4.22889C16.5832 3.57269 16.7445 3.06875 17.0672 2.71708C17.3917 2.36542 17.8539 2.18958 18.4539 2.18958C19.0449 2.18958 19.5017 2.36814 19.8243 2.72524C20.147 3.08235 20.3083 3.58538 20.3083 4.23433ZM17.2738 4.23433C17.2738 4.72377 17.3726 5.09537 17.5702 5.34915C17.7678 5.60112 18.0606 5.72711 18.4485 5.72711C18.8346 5.72711 19.1255 5.60203 19.3213 5.35187C19.5189 5.10172 19.6177 4.7292 19.6177 4.23433C19.6177 3.74671 19.5198 3.37691 19.324 3.12495C19.1301 2.87298 18.84 2.74699 18.4539 2.74699C18.0642 2.74699 17.7696 2.87298 17.5702 3.12495C17.3726 3.37691 17.2738 3.74671 17.2738 4.23433ZM24.2326 5.14794C24.2326 5.50142 24.1048 5.77877 23.8492 5.97998C23.5936 6.18119 23.2411 6.2818 22.7915 6.2818C22.3419 6.2818 21.974 6.21201 21.6876 6.07243V5.45792C21.8688 5.54311 22.061 5.61019 22.264 5.65913C22.4688 5.70807 22.6592 5.73254 22.835 5.73254C23.0924 5.73254 23.2818 5.6836 23.4033 5.58571C23.5266 5.48783 23.5882 5.3564 23.5882 5.19145C23.5882 5.0428 23.532 4.91682 23.4196 4.81349C23.3072 4.71017 23.0752 4.58781 22.7235 4.44642C22.361 4.29959 22.1054 4.13191 21.9567 3.94339C21.8081 3.75487 21.7338 3.52828 21.7338 3.26362C21.7338 2.93189 21.8516 2.67086 22.0873 2.48052C22.3229 2.29019 22.6392 2.19502 23.0362 2.19502C23.4169 2.19502 23.7957 2.27841 24.1728 2.44518L23.9661 2.9754C23.6127 2.82675 23.2972 2.75243 23.0199 2.75243C22.8096 2.75243 22.6501 2.79866 22.5413 2.8911C22.4326 2.98174 22.3782 3.10229 22.3782 3.25274C22.3782 3.35607 22.4 3.44489 22.4435 3.51921C22.487 3.59172 22.5586 3.6606 22.6583 3.72586C22.758 3.79112 22.9374 3.87722 23.1966 3.98418C23.4885 4.10563 23.7024 4.21892 23.8383 4.32406C23.9743 4.4292 24.074 4.54793 24.1374 4.68026C24.2009 4.81259 24.2326 4.96848 24.2326 5.14794ZM27.1342 6.22742L26.7372 5.12347H25.2172L24.8284 6.22742H24.1432L25.6305 2.23581H26.3375L27.8248 6.22742H27.1342ZM26.5659 4.56334L26.1934 3.48115C26.1662 3.40864 26.1281 3.29444 26.0792 3.13854C26.0321 2.98265 25.9994 2.86845 25.9813 2.79594C25.9324 3.0189 25.8608 3.26271 25.7665 3.52737L25.4076 4.56334H26.5659ZM28.6599 6.22742H28.0155V2.25212H30.2587V2.80138H28.6599V4.044H30.1581V4.59597H28.6599V6.22742ZM32.8939 6.22742H30.6452V2.25212H32.8939V2.80138H31.295V3.88357H32.7933V4.42739H31.295V5.67544H32.8939V6.22742ZM34.7948 6.22742H34.145V2.80953H32.9758V2.25212H35.964V2.80953H34.7948V6.22742ZM37.3647 4.06575L38.3055 2.25212H39.0124L37.6883 4.6857V6.22742H37.0357V4.70745L35.7169 2.25212H36.4239L37.3647 4.06575ZM42.9476 3.45395C42.9476 3.86907 42.8117 4.1872 42.5397 4.40835C42.2678 4.6295 41.8808 4.74008 41.3787 4.74008H40.9654V6.22742H40.3155V2.25212H41.4603C41.957 2.25212 42.3286 2.35363 42.5751 2.55666C42.8234 2.75968 42.9476 3.05878 42.9476 3.45395ZM40.9654 4.19354H41.3107C41.6443 4.19354 41.889 4.13554 42.0449 4.01952C42.2008 3.90351 42.2787 3.72224 42.2787 3.47571C42.2787 3.2473 42.2089 3.07691 42.0693 2.96452C41.9298 2.85213 41.7122 2.79594 41.4168 2.79594H40.9654V4.19354ZM44.0573 4.1011H44.5087C44.8114 4.1011 45.0308 4.0449 45.1667 3.93251C45.3027 3.82012 45.3706 3.65335 45.3706 3.4322C45.3706 3.20742 45.2972 3.04609 45.1504 2.94821C45.0036 2.85032 44.7824 2.80138 44.4869 2.80138H44.0573V4.1011ZM44.0573 4.63947V6.22742H43.4075V2.25212H44.5304C45.0434 2.25212 45.4232 2.3482 45.6697 2.54034C45.9163 2.73249 46.0395 3.02253 46.0395 3.41045C46.0395 3.90532 45.7821 4.2579 45.2673 4.46817L46.3903 6.22742H45.6507L44.699 4.63947H44.0573ZM50.1647 4.23433C50.1647 4.88147 50.0025 5.3845 49.678 5.74342C49.3553 6.10234 48.8976 6.2818 48.3049 6.2818C47.7048 6.2818 47.2435 6.10415 46.9208 5.74886C46.6 5.39175 46.4396 4.8851 46.4396 4.22889C46.4396 3.57269 46.6009 3.06875 46.9236 2.71708C47.248 2.36542 47.7103 2.18958 48.3103 2.18958C48.9012 2.18958 49.358 2.36814 49.6807 2.72524C50.0034 3.08235 50.1647 3.58538 50.1647 4.23433ZM47.1302 4.23433C47.1302 4.72377 47.229 5.09537 47.4266 5.34915C47.6242 5.60112 47.9169 5.72711 48.3049 5.72711C48.691 5.72711 48.9819 5.60203 49.1777 5.35187C49.3753 5.10172 49.4741 4.7292 49.4741 4.23433C49.4741 3.74671 49.3762 3.37691 49.1804 3.12495C48.9864 2.87298 48.6964 2.74699 48.3103 2.74699C47.9206 2.74699 47.626 2.87298 47.4266 3.12495C47.229 3.37691 47.1302 3.74671 47.1302 4.23433ZM52.0575 6.22742H51.4076V2.80953H50.2384V2.25212H53.2267V2.80953H52.0575V6.22742ZM57.0338 4.23433C57.0338 4.88147 56.8715 5.3845 56.547 5.74342C56.2244 6.10234 55.7667 6.2818 55.1739 6.2818C54.5739 6.2818 54.1126 6.10415 53.7899 5.74886C53.469 5.39175 53.3086 4.8851 53.3086 4.22889C53.3086 3.57269 53.4699 3.06875 53.7926 2.71708C54.1171 2.36542 54.5793 2.18958 55.1793 2.18958C55.7703 2.18958 56.2271 2.36814 56.5498 2.72524C56.8724 3.08235 57.0338 3.58538 57.0338 4.23433ZM53.9993 4.23433C53.9993 4.72377 54.0981 5.09537 54.2956 5.34915C54.4932 5.60112 54.786 5.72711 55.1739 5.72711C55.56 5.72711 55.851 5.60203 56.0467 5.35187C56.2443 5.10172 56.3431 4.7292 56.3431 4.23433C56.3431 3.74671 56.2452 3.37691 56.0494 3.12495C55.8555 2.87298 55.5655 2.74699 55.1793 2.74699C54.7896 2.74699 54.495 2.87298 54.2956 3.12495C54.0981 3.37691 53.9993 3.74671 53.9993 4.23433ZM59.2447 2.75243C58.8713 2.75243 58.5776 2.88476 58.3637 3.14942C58.1498 3.41407 58.0429 3.77934 58.0429 4.24521C58.0429 4.73283 58.1453 5.10172 58.3501 5.35187C58.5568 5.60203 58.855 5.72711 59.2447 5.72711C59.4133 5.72711 59.5764 5.71079 59.7341 5.67816C59.8918 5.64372 60.0559 5.60022 60.2263 5.54765V6.10506C59.9145 6.22289 59.561 6.2818 59.1658 6.2818C58.584 6.2818 58.1371 6.10596 57.8253 5.7543C57.5135 5.40082 57.3576 4.89597 57.3576 4.23977C57.3576 3.82647 57.4329 3.46483 57.5833 3.15486C57.7356 2.84488 57.9549 2.60741 58.2414 2.44246C58.5278 2.2775 58.864 2.19502 59.2501 2.19502C59.6562 2.19502 60.0314 2.28022 60.3758 2.45061L60.142 2.99171C60.0078 2.92827 59.8655 2.87298 59.7151 2.82585C59.5664 2.7769 59.4096 2.75243 59.2447 2.75243ZM64.278 4.23433C64.278 4.88147 64.1158 5.3845 63.7913 5.74342C63.4687 6.10234 63.0109 6.2818 62.4182 6.2818C61.8182 6.2818 61.3568 6.10415 61.0342 5.74886C60.7133 5.39175 60.5529 4.8851 60.5529 4.22889C60.5529 3.57269 60.7142 3.06875 61.0369 2.71708C61.3614 2.36542 61.8236 2.18958 62.4236 2.18958C63.0146 2.18958 63.4714 2.36814 63.794 2.72524C64.1167 3.08235 64.278 3.58538 64.278 4.23433ZM61.2435 4.23433C61.2435 4.72377 61.3423 5.09537 61.5399 5.34915C61.7375 5.60112 62.0303 5.72711 62.4182 5.72711C62.8043 5.72711 63.0952 5.60203 63.291 5.35187C63.4886 5.10172 63.5874 4.7292 63.5874 4.23433C63.5874 3.74671 63.4895 3.37691 63.2937 3.12495C63.0998 2.87298 62.8097 2.74699 62.4236 2.74699C62.0339 2.74699 61.7393 2.87298 61.5399 3.12495C61.3423 3.37691 61.2435 3.74671 61.2435 4.23433ZM64.7977 6.22742V2.25212H65.4476V5.67001H67.1307V6.22742H64.7977ZM69.774 5.14794C69.774 5.50142 69.6462 5.77877 69.3906 5.97998C69.135 6.18119 68.7824 6.2818 68.3328 6.2818C67.8833 6.2818 67.5153 6.21201 67.2289 6.07243V5.45792C67.4102 5.54311 67.6023 5.61019 67.8053 5.65913C68.0102 5.70807 68.2005 5.73254 68.3763 5.73254C68.6338 5.73254 68.8232 5.6836 68.9446 5.58571C69.0679 5.48783 69.1295 5.3564 69.1295 5.19145C69.1295 5.0428 69.0733 4.91682 68.9609 4.81349C68.8486 4.71017 68.6165 4.58781 68.2649 4.44642C67.9023 4.29959 67.6467 4.13191 67.4981 3.94339C67.3494 3.75487 67.2751 3.52828 67.2751 3.26362C67.2751 2.93189 67.3929 2.67086 67.6286 2.48052C67.8643 2.29019 68.1806 2.19502 68.5776 2.19502C68.9582 2.19502 69.3371 2.27841 69.7141 2.44518L69.5075 2.9754C69.154 2.82675 68.8386 2.75243 68.5612 2.75243C68.351 2.75243 68.1914 2.79866 68.0827 2.8911C67.9739 2.98174 67.9195 3.10229 67.9195 3.25274C67.9195 3.35607 67.9413 3.44489 67.9848 3.51921C68.0283 3.59172 68.0999 3.6606 68.1996 3.72586C68.2993 3.79112 68.4788 3.87722 68.738 3.98418C69.0298 4.10563 69.2437 4.21892 69.3797 4.32406C69.5156 4.4292 69.6153 4.54793 69.6788 4.68026C69.7422 4.81259 69.774 4.96848 69.774 5.14794ZM74.9898 6.22742H74.2828L73.6085 3.85638C73.5795 3.75305 73.5433 3.60441 73.4997 3.41045C73.4562 3.21468 73.43 3.07872 73.4209 3.00259C73.4028 3.1186 73.3729 3.26906 73.3312 3.45395C73.2913 3.63885 73.2577 3.77662 73.2306 3.86725L72.5725 6.22742H71.8656L71.3517 4.23705L70.8296 2.25212H71.4931L72.0614 4.56878C72.1502 4.94039 72.2136 5.26849 72.2517 5.55308C72.2716 5.399 72.3015 5.2268 72.3414 5.03646C72.3813 4.84612 72.4176 4.69204 72.4502 4.57422L73.0973 2.25212H73.7417L74.4052 4.58509C74.4686 4.80081 74.5357 5.12347 74.6064 5.55308C74.6336 5.29387 74.6989 4.96395 74.8022 4.56334L75.3678 2.25212H76.0258L74.9898 6.22742ZM78.5059 6.22742H76.2572V2.25212H78.5059V2.80138H76.9071V3.88357H78.4053V4.42739H76.9071V5.67544H78.5059V6.22742ZM82.4383 5.14794C82.4383 5.50142 82.3105 5.77877 82.055 5.97998C81.7994 6.18119 81.4468 6.2818 80.9972 6.2818C80.5477 6.2818 80.1797 6.21201 79.8933 6.07243V5.45792C80.0746 5.54311 80.2667 5.61019 80.4697 5.65913C80.6746 5.70807 80.8649 5.73254 81.0407 5.73254C81.2981 5.73254 81.4876 5.6836 81.609 5.58571C81.7323 5.48783 81.7939 5.3564 81.7939 5.19145C81.7939 5.0428 81.7377 4.91682 81.6253 4.81349C81.5129 4.71017 81.2809 4.58781 80.9293 4.44642C80.5667 4.29959 80.3111 4.13191 80.1625 3.94339C80.0138 3.75487 79.9395 3.52828 79.9395 3.26362C79.9395 2.93189 80.0573 2.67086 80.293 2.48052C80.5286 2.29019 80.845 2.19502 81.2419 2.19502C81.6226 2.19502 82.0015 2.27841 82.3785 2.44518L82.1719 2.9754C81.8184 2.82675 81.503 2.75243 81.2256 2.75243C81.0154 2.75243 80.8558 2.79866 80.7471 2.8911C80.6383 2.98174 80.5839 3.10229 80.5839 3.25274C80.5839 3.35607 80.6057 3.44489 80.6492 3.51921C80.6927 3.59172 80.7643 3.6606 80.864 3.72586C80.9637 3.79112 81.1432 3.87722 81.4024 3.98418C81.6942 4.10563 81.9081 4.21892 82.0441 4.32406C82.18 4.4292 82.2797 4.54793 82.3432 4.68026C82.4066 4.81259 82.4383 4.96848 82.4383 5.14794ZM84.2469 6.22742H83.597V2.80953H82.4278V2.25212H85.4161V2.80953H84.2469V6.22742ZM86.3436 4.1011H86.795C87.0977 4.1011 87.317 4.0449 87.453 3.93251C87.5889 3.82012 87.6569 3.65335 87.6569 3.4322C87.6569 3.20742 87.5835 3.04609 87.4367 2.94821C87.2898 2.85032 87.0687 2.80138 86.7732 2.80138H86.3436V4.1011ZM86.3436 4.63947V6.22742H85.6937V2.25212H86.8167C87.3297 2.25212 87.7095 2.3482 87.956 2.54034C88.2025 2.73249 88.3258 3.02253 88.3258 3.41045C88.3258 3.90532 88.0684 4.2579 87.5536 4.46817L88.6766 6.22742H87.937L86.9853 4.63947H86.3436ZM92.451 4.23433C92.451 4.88147 92.2887 5.3845 91.9643 5.74342C91.6416 6.10234 91.1839 6.2818 90.5911 6.2818C89.9911 6.2818 89.5298 6.10415 89.2071 5.74886C88.8863 5.39175 88.7258 4.8851 88.7258 4.22889C88.7258 3.57269 88.8872 3.06875 89.2098 2.71708C89.5343 2.36542 89.9966 2.18958 90.5966 2.18958C91.1875 2.18958 91.6443 2.36814 91.967 2.72524C92.2896 3.08235 92.451 3.58538 92.451 4.23433ZM89.4165 4.23433C89.4165 4.72377 89.5153 5.09537 89.7129 5.34915C89.9104 5.60112 90.2032 5.72711 90.5911 5.72711C90.9772 5.72711 91.2682 5.60203 91.464 5.35187C91.6615 5.10172 91.7603 4.7292 91.7603 4.23433C91.7603 3.74671 91.6624 3.37691 91.4667 3.12495C91.2727 2.87298 90.9827 2.74699 90.5966 2.74699C90.2068 2.74699 89.9123 2.87298 89.7129 3.12495C89.5153 3.37691 89.4165 3.74671 89.4165 4.23433ZM96.2825 6.22742H95.4858L93.5308 3.05969H93.509L93.5226 3.23643C93.548 3.57359 93.5607 3.88176 93.5607 4.16092V6.22742H92.9706V2.25212H93.7592L95.7088 5.40354H95.7251C95.7214 5.36184 95.7142 5.21048 95.7033 4.94945C95.6924 4.6866 95.687 4.48177 95.687 4.33494V2.25212H96.2825V6.22742ZM98.6239 4.07119H100.087V6.06699C99.8475 6.14494 99.6173 6.20023 99.3962 6.23286C99.1768 6.26548 98.9394 6.2818 98.6838 6.2818C98.0819 6.2818 97.6179 6.10415 97.2916 5.74886C96.9653 5.39175 96.8022 4.88872 96.8022 4.23977C96.8022 3.59988 96.9862 3.09957 97.3541 2.73884C97.7221 2.37629 98.2288 2.19502 98.8741 2.19502C99.2892 2.19502 99.6826 2.27478 100.054 2.4343L99.8258 2.9754C99.5031 2.82675 99.1805 2.75243 98.8578 2.75243C98.4336 2.75243 98.0983 2.88567 97.8517 3.15214C97.6052 3.41861 97.4819 3.78296 97.4819 4.24521C97.4819 4.73102 97.5925 5.10081 97.8137 5.35459C98.0366 5.60656 98.3566 5.73254 98.7735 5.73254C98.9838 5.73254 99.2085 5.70626 99.4478 5.65369V4.6286H98.6239V4.07119ZM100.71 6.22742V2.25212H101.36V5.67001H103.043V6.22742H100.71ZM104.517 4.06575L105.458 2.25212H106.165L104.84 4.6857V6.22742H104.188V4.70745L102.869 2.25212H103.576L104.517 4.06575ZM3.16561 12.1011H3.61698C3.9197 12.1011 4.13904 12.0449 4.27499 11.9325C4.41095 11.8201 4.47893 11.6534 4.47893 11.4322C4.47893 11.2074 4.40551 11.0461 4.25868 10.9482C4.11185 10.8503 3.8907 10.8014 3.59522 10.8014H3.16561V12.1011ZM3.16561 12.6395V14.2274H2.51575V10.2521H3.63873C4.15173 10.2521 4.53149 10.3482 4.77802 10.5403C5.02455 10.7325 5.14782 11.0225 5.14782 11.4104C5.14782 11.9053 4.89041 12.2579 4.3756 12.4682L5.49858 14.2274H4.75899L3.80731 12.6395H3.16561ZM7.9923 14.2274H5.74362V10.2521H7.9923V10.8014H6.39348V11.8836H7.8917V12.4274H6.39348V13.6754H7.9923V14.2274ZM10.2114 10.7524C9.83798 10.7524 9.54432 10.8848 9.33042 11.1494C9.11652 11.4141 9.00957 11.7793 9.00957 12.2452C9.00957 12.7328 9.11199 13.1017 9.31682 13.3519C9.52347 13.602 9.82167 13.7271 10.2114 13.7271C10.38 13.7271 10.5431 13.7108 10.7008 13.6782C10.8585 13.6437 11.0226 13.6002 11.193 13.5476V14.1051C10.8812 14.2229 10.5277 14.2818 10.1325 14.2818C9.55066 14.2818 9.10383 14.106 8.79204 13.7543C8.48025 13.4008 8.32436 12.896 8.32436 12.2398C8.32436 11.8265 8.39959 11.4648 8.55004 11.1549C8.70231 10.8449 8.92165 10.6074 9.20806 10.4425C9.49447 10.2775 9.83073 10.195 10.2168 10.195C10.6229 10.195 10.9981 10.2802 11.3425 10.4506L11.1087 10.9917C10.9746 10.9283 10.8323 10.873 10.6818 10.8258C10.5332 10.7769 10.3764 10.7524 10.2114 10.7524ZM15.2447 12.2343C15.2447 12.8815 15.0825 13.3845 14.758 13.7434C14.4354 14.1023 13.9777 14.2818 13.3849 14.2818C12.7849 14.2818 12.3235 14.1042 12.0009 13.7489C11.68 13.3918 11.5196 12.8851 11.5196 12.2289C11.5196 11.5727 11.6809 11.0688 12.0036 10.7171C12.3281 10.3654 12.7903 10.1896 13.3903 10.1896C13.9813 10.1896 14.4381 10.3681 14.7607 10.7252C15.0834 11.0823 15.2447 11.5854 15.2447 12.2343ZM12.2103 12.2343C12.2103 12.7238 12.309 13.0954 12.5066 13.3492C12.7042 13.6011 12.997 13.7271 13.3849 13.7271C13.771 13.7271 14.0619 13.602 14.2577 13.3519C14.4553 13.1017 14.5541 12.7292 14.5541 12.2343C14.5541 11.7467 14.4562 11.3769 14.2604 11.1249C14.0665 10.873 13.7764 10.747 13.3903 10.747C13.0006 10.747 12.706 10.873 12.5066 11.1249C12.309 11.3769 12.2103 11.7467 12.2103 12.2343ZM17.4829 14.2274L16.33 10.9074H16.3082C16.339 11.4005 16.3545 11.8627 16.3545 12.2942V14.2274H15.7644V10.2521H16.6807L17.7847 13.4144H17.801L18.9376 10.2521H19.8566V14.2274H19.2312V12.2615C19.2312 12.0639 19.2358 11.8065 19.2448 11.4893C19.2557 11.1721 19.2648 10.9799 19.272 10.9129H19.2503L18.0566 14.2274H17.4829ZM22.2878 14.2274L21.1349 10.9074H21.1132C21.144 11.4005 21.1594 11.8627 21.1594 12.2942V14.2274H20.5694V10.2521H21.4857L22.5896 13.4144H22.6059L23.7425 10.2521H24.6616V14.2274H24.0362V12.2615C24.0362 12.0639 24.0407 11.8065 24.0498 11.4893C24.0607 11.1721 24.0697 10.9799 24.077 10.9129H24.0552L22.8615 14.2274H22.2878ZM27.623 14.2274H25.3743V10.2521H27.623V10.8014H26.0242V11.8836H27.5224V12.4274H26.0242V13.6754H27.623V14.2274ZM31.4626 14.2274H30.666L28.7109 11.0597H28.6892L28.7028 11.2364C28.7282 11.5736 28.7408 11.8818 28.7408 12.1609V14.2274H28.1508V10.2521H28.9393L30.8889 13.4035H30.9052C30.9016 13.3618 30.8944 13.2105 30.8835 12.9494C30.8726 12.6866 30.8672 12.4818 30.8672 12.3349V10.2521H31.4626V14.2274ZM35.4111 12.2017C35.4111 12.8579 35.2289 13.36 34.8645 13.7081C34.5002 14.0543 33.9754 14.2274 33.2902 14.2274H32.1781V10.2521H33.4071C34.0398 10.2521 34.5319 10.4225 34.8836 10.7633C35.2352 11.1041 35.4111 11.5836 35.4111 12.2017ZM34.7259 12.2235C34.7259 11.2718 34.2808 10.7959 33.3908 10.7959H32.828V13.6809H33.2902C34.2473 13.6809 34.7259 13.1951 34.7259 12.2235ZM38.1689 12.0657L39.1097 10.2521H39.8166L38.4925 12.6857V14.2274H37.8399V12.7075L36.5211 10.2521H37.2281L38.1689 12.0657ZM43.5367 12.2343C43.5367 12.8815 43.3744 13.3845 43.05 13.7434C42.7273 14.1023 42.2696 14.2818 41.6768 14.2818C41.0768 14.2818 40.6155 14.1042 40.2928 13.7489C39.972 13.3918 39.8115 12.8851 39.8115 12.2289C39.8115 11.5727 39.9729 11.0688 40.2955 10.7171C40.62 10.3654 41.0822 10.1896 41.6823 10.1896C42.2732 10.1896 42.73 10.3681 43.0527 10.7252C43.3753 11.0823 43.5367 11.5854 43.5367 12.2343ZM40.5022 12.2343C40.5022 12.7238 40.601 13.0954 40.7986 13.3492C40.9961 13.6011 41.2889 13.7271 41.6768 13.7271C42.0629 13.7271 42.3539 13.602 42.5496 13.3519C42.7472 13.1017 42.846 12.7292 42.846 12.2343C42.846 11.7467 42.7481 11.3769 42.5524 11.1249C42.3584 10.873 42.0684 10.747 41.6823 10.747C41.2925 10.747 40.998 10.873 40.7986 11.1249C40.601 11.3769 40.5022 11.7467 40.5022 12.2343ZM47.1724 10.2521V12.8244C47.1724 13.118 47.109 13.3754 46.9821 13.5966C46.857 13.8159 46.6748 13.9854 46.4355 14.1051C46.1981 14.2229 45.9135 14.2818 45.5817 14.2818C45.0887 14.2818 44.7053 14.1513 44.4316 13.8903C44.1579 13.6292 44.021 13.2703 44.021 12.8135V10.2521H44.6736V12.7673C44.6736 13.0954 44.7497 13.3374 44.902 13.4933C45.0542 13.6492 45.2881 13.7271 45.6035 13.7271C46.2162 13.7271 46.5225 13.4053 46.5225 12.7618V10.2521H47.1724ZM50.3408 14.2274H49.6909V10.8095H48.5217V10.2521H51.51V10.8095H50.3408V14.2274ZM55.317 12.2343C55.317 12.8815 55.1548 13.3845 54.8303 13.7434C54.5077 14.1023 54.0499 14.2818 53.4572 14.2818C52.8572 14.2818 52.3958 14.1042 52.0732 13.7489C51.7523 13.3918 51.5919 12.8851 51.5919 12.2289C51.5919 11.5727 51.7532 11.0688 52.0759 10.7171C52.4004 10.3654 52.8626 10.1896 53.4626 10.1896C54.0536 10.1896 54.5104 10.3681 54.833 10.7252C55.1557 11.0823 55.317 11.5854 55.317 12.2343ZM52.2825 12.2343C52.2825 12.7238 52.3813 13.0954 52.5789 13.3492C52.7765 13.6011 53.0693 13.7271 53.4572 13.7271C53.8433 13.7271 54.1342 13.602 54.33 13.3519C54.5276 13.1017 54.6264 12.7292 54.6264 12.2343C54.6264 11.7467 54.5285 11.3769 54.3327 11.1249C54.1388 10.873 53.8487 10.747 53.4626 10.747C53.0729 10.747 52.7783 10.873 52.5789 11.1249C52.3813 11.3769 52.2825 11.7467 52.2825 12.2343ZM59.9836 14.2274H59.2304L57.9824 12.4274L57.599 12.7401V14.2274H56.9491V10.2521H57.599V12.15C57.7766 11.9325 57.9534 11.7231 58.1292 11.5219L59.2033 10.2521H59.9428C59.2486 11.0678 58.751 11.6488 58.4501 11.9951L59.9836 14.2274ZM62.4257 14.2274H60.177V10.2521H62.4257V10.8014H60.8269V11.8836H62.3251V12.4274H60.8269V13.6754H62.4257V14.2274ZM65.2022 14.2274H62.9535V10.2521H65.2022V10.8014H63.6034V11.8836H65.1016V12.4274H63.6034V13.6754H65.2022V14.2274ZM68.3621 11.454C68.3621 11.8691 68.2261 12.1872 67.9542 12.4084C67.6823 12.6295 67.2953 12.7401 66.7932 12.7401H66.3799V14.2274H65.73V10.2521H66.8748C67.3714 10.2521 67.7431 10.3536 67.9896 10.5567C68.2379 10.7597 68.3621 11.0588 68.3621 11.454ZM66.3799 12.1935H66.7252C67.0588 12.1935 67.3035 12.1355 67.4594 12.0195C67.6153 11.9035 67.6932 11.7222 67.6932 11.4757C67.6932 11.2473 67.6234 11.0769 67.4838 10.9645C67.3443 10.8521 67.1267 10.7959 66.8313 10.7959H66.3799V12.1935ZM73.1674 12.2017C73.1674 12.8579 72.9852 13.36 72.6208 13.7081C72.2565 14.0543 71.7317 14.2274 71.0465 14.2274H69.9344V10.2521H71.1634C71.796 10.2521 72.2882 10.4225 72.6399 10.7633C72.9915 11.1041 73.1674 11.5836 73.1674 12.2017ZM72.4822 12.2235C72.4822 11.2718 72.0371 10.7959 71.1471 10.7959H70.5842V13.6809H71.0465C72.0036 13.6809 72.4822 13.1951 72.4822 12.2235ZM73.6898 14.2274V10.2521H74.3396V14.2274H73.6898ZM77.35 13.1479C77.35 13.5014 77.2222 13.7788 76.9666 13.98C76.711 14.1812 76.3584 14.2818 75.9089 14.2818C75.4593 14.2818 75.0913 14.212 74.8049 14.0724V13.4579C74.9862 13.5431 75.1783 13.6102 75.3814 13.6591C75.5862 13.7081 75.7765 13.7325 75.9524 13.7325C76.2098 13.7325 76.3992 13.6836 76.5206 13.5857C76.6439 13.4878 76.7055 13.3564 76.7055 13.1914C76.7055 13.0428 76.6493 12.9168 76.537 12.8135C76.4246 12.7102 76.1925 12.5878 75.8409 12.4464C75.4783 12.2996 75.2227 12.1319 75.0741 11.9434C74.9255 11.7549 74.8511 11.5283 74.8511 11.2636C74.8511 10.9319 74.969 10.6709 75.2046 10.4805C75.4403 10.2902 75.7566 10.195 76.1536 10.195C76.5342 10.195 76.9131 10.2784 77.2901 10.4452L77.0835 10.9754C76.73 10.8268 76.4146 10.7524 76.1373 10.7524C75.927 10.7524 75.7675 10.7987 75.6587 10.8911C75.5499 10.9817 75.4956 11.1023 75.4956 11.2527C75.4956 11.3561 75.5173 11.4449 75.5608 11.5192C75.6043 11.5917 75.6759 11.6606 75.7756 11.7259C75.8753 11.7911 76.0548 11.8772 76.314 11.9842C76.6058 12.1056 76.8197 12.2189 76.9557 12.3241C77.0917 12.4292 77.1914 12.5479 77.2548 12.6803C77.3182 12.8126 77.35 12.9685 77.35 13.1479ZM79.1585 14.2274H78.5086V10.8095H77.3394V10.2521H80.3277V10.8095H79.1585V14.2274ZM83.0716 14.2274L82.6746 13.1235H81.1546L80.7658 14.2274H80.0806L81.5679 10.2358H82.2749L83.7622 14.2274H83.0716ZM82.5033 12.5633L82.1308 11.4811C82.1036 11.4086 82.0655 11.2944 82.0166 11.1385C81.9694 10.9826 81.9368 10.8684 81.9187 10.7959C81.8697 11.0189 81.7981 11.2627 81.7039 11.5274L81.3449 12.5633H82.5033ZM87.2647 14.2274H86.468L84.513 11.0597H84.4912L84.5048 11.2364C84.5302 11.5736 84.5429 11.8818 84.5429 12.1609V14.2274H83.9529V10.2521H84.7414L86.691 13.4035H86.7073C86.7037 13.3618 86.6964 13.2105 86.6855 12.9494C86.6747 12.6866 86.6692 12.4818 86.6692 12.3349V10.2521H87.2647V14.2274ZM89.6714 10.7524C89.298 10.7524 89.0043 10.8848 88.7904 11.1494C88.5765 11.4141 88.4696 11.7793 88.4696 12.2452C88.4696 12.7328 88.572 13.1017 88.7768 13.3519C88.9835 13.602 89.2817 13.7271 89.6714 13.7271C89.84 13.7271 90.0032 13.7108 90.1609 13.6782C90.3186 13.6437 90.4826 13.6002 90.653 13.5476V14.1051C90.3412 14.2229 89.9877 14.2818 89.5926 14.2818C89.0107 14.2818 88.5639 14.106 88.2521 13.7543C87.9403 13.4008 87.7844 12.896 87.7844 12.2398C87.7844 11.8265 87.8596 11.4648 88.0101 11.1549C88.1623 10.8449 88.3817 10.6074 88.6681 10.4425C88.9545 10.2775 89.2908 10.195 89.6769 10.195C90.0829 10.195 90.4581 10.2802 90.8026 10.4506L90.5687 10.9917C90.4346 10.9283 90.2923 10.873 90.1418 10.8258C89.9932 10.7769 89.8364 10.7524 89.6714 10.7524ZM93.4241 14.2274H91.1754V10.2521H93.4241V10.8014H91.8253V11.8836H93.3235V12.4274H91.8253V13.6754H93.4241V14.2274ZM97.5305 14.2274L97.1336 13.1235H95.6136L95.2248 14.2274H94.5396L96.0269 10.2358H96.7339L98.2212 14.2274H97.5305ZM96.9623 12.5633L96.5897 11.4811C96.5626 11.4086 96.5245 11.2944 96.4755 11.1385C96.4284 10.9826 96.3958 10.8684 96.3777 10.7959C96.3287 11.0189 96.2571 11.2627 96.1628 11.5274L95.8039 12.5633H96.9623ZM101.724 14.2274H100.927L98.972 11.0597H98.9502L98.9638 11.2364C98.9892 11.5736 99.0019 11.8818 99.0019 12.1609V14.2274H98.4119V10.2521H99.2004L101.15 13.4035H101.166C101.163 13.3618 101.155 13.2105 101.145 12.9494C101.134 12.6866 101.128 12.4818 101.128 12.3349V10.2521H101.724V14.2274ZM105.672 12.2017C105.672 12.8579 105.49 13.36 105.126 13.7081C104.761 14.0543 104.236 14.2274 103.551 14.2274H102.439V10.2521H103.668C104.301 10.2521 104.793 10.4225 105.145 10.7633C105.496 11.1041 105.672 11.5836 105.672 12.2017ZM104.987 12.2235C104.987 11.2718 104.542 10.7959 103.652 10.7959H103.089V13.6809H103.551C104.508 13.6809 104.987 13.1951 104.987 12.2235ZM4.80793 21.1479C4.80793 21.5014 4.68014 21.7788 4.42454 21.98C4.16895 22.1812 3.81638 22.2818 3.36682 22.2818C2.91727 22.2818 2.54928 22.212 2.26287 22.0724V21.4579C2.44415 21.5431 2.6363 21.6102 2.83932 21.6591C3.04416 21.7081 3.23449 21.7325 3.41033 21.7325C3.66773 21.7325 3.85716 21.6836 3.97861 21.5857C4.10188 21.4878 4.16351 21.3564 4.16351 21.1914C4.16351 21.0428 4.10732 20.9168 3.99493 20.8135C3.88254 20.7102 3.65051 20.5878 3.29884 20.4464C2.9363 20.2996 2.68071 20.1319 2.53206 19.9434C2.38342 19.7549 2.3091 19.5283 2.3091 19.2636C2.3091 18.9319 2.42693 18.6709 2.66258 18.4805C2.89823 18.2902 3.21455 18.195 3.61154 18.195C3.99221 18.195 4.37107 18.2784 4.74811 18.4452L4.54146 18.9754C4.18798 18.8268 3.87257 18.7524 3.59522 18.7524C3.38495 18.7524 3.22543 18.7987 3.11667 18.8911C3.0079 18.9817 2.95352 19.1023 2.95352 19.2527C2.95352 19.3561 2.97527 19.4449 3.01878 19.5192C3.06228 19.5917 3.13389 19.6606 3.23359 19.7259C3.33329 19.7911 3.51275 19.8772 3.77196 19.9842C4.06381 20.1056 4.27771 20.2189 4.41367 20.3241C4.54962 20.4292 4.64932 20.5479 4.71277 20.6803C4.77621 20.8126 4.80793 20.9685 4.80793 21.1479ZM6.61645 22.2274H5.96659V18.8095H4.79738V18.2521H7.78565V18.8095H6.61645V22.2274ZM10.5295 22.2274L10.1325 21.1235H8.61258L8.22375 22.2274H7.53854L9.02588 18.2358H9.73284L11.2202 22.2274H10.5295ZM9.96125 20.5633L9.58873 19.4811C9.56154 19.4086 9.52347 19.2944 9.47453 19.1385C9.4274 18.9826 9.39477 18.8684 9.37664 18.7959C9.3277 19.0189 9.2561 19.2627 9.16184 19.5274L8.80292 20.5633H9.96125ZM12.5338 20.0657L13.4746 18.2521H14.1816L12.8574 20.6857V22.2274H12.2048V20.7075L10.8861 18.2521H11.593L12.5338 20.0657ZM19.014 20.2343C19.014 20.8815 18.8518 21.3845 18.5273 21.7434C18.2047 22.1023 17.747 22.2818 17.1542 22.2818C16.5542 22.2818 16.0928 22.1042 15.7702 21.7489C15.4493 21.3918 15.2889 20.8851 15.2889 20.2289C15.2889 19.5727 15.4502 19.0688 15.7729 18.7171C16.0974 18.3654 16.5596 18.1896 17.1596 18.1896C17.7506 18.1896 18.2074 18.3681 18.53 18.7252C18.8527 19.0823 19.014 19.5854 19.014 20.2343ZM15.9795 20.2343C15.9795 20.7238 16.0783 21.0954 16.2759 21.3492C16.4735 21.6011 16.7663 21.7271 17.1542 21.7271C17.5403 21.7271 17.8312 21.602 18.027 21.3519C18.2246 21.1017 18.3234 20.7292 18.3234 20.2343C18.3234 19.7467 18.2255 19.3769 18.0297 19.1249C17.8358 18.873 17.5457 18.747 17.1596 18.747C16.7699 18.747 16.4753 18.873 16.2759 19.1249C16.0783 19.3769 15.9795 19.7467 15.9795 20.2343ZM22.6498 18.2521V20.8244C22.6498 21.118 22.5863 21.3754 22.4594 21.5966C22.3344 21.8159 22.1522 21.9854 21.9129 22.1051C21.6754 22.2229 21.3908 22.2818 21.0591 22.2818C20.5661 22.2818 20.1827 22.1513 19.9089 21.8903C19.6352 21.6292 19.4984 21.2703 19.4984 20.8135V18.2521H20.1509V20.7673C20.1509 21.0954 20.2271 21.3374 20.3793 21.4933C20.5316 21.6492 20.7655 21.7271 21.0809 21.7271C21.6936 21.7271 21.9999 21.4053 21.9999 20.7618V18.2521H22.6498ZM24.7057 22.2274H24.0559V18.8095H22.8867V18.2521H25.8749V18.8095H24.7057V22.2274ZM28.4448 21.1479C28.4448 21.5014 28.317 21.7788 28.0614 21.98C27.8058 22.1812 27.4532 22.2818 27.0037 22.2818C26.5541 22.2818 26.1861 22.212 25.8997 22.0724V21.4579C26.081 21.5431 26.2732 21.6102 26.4762 21.6591C26.681 21.7081 26.8714 21.7325 27.0472 21.7325C27.3046 21.7325 27.494 21.6836 27.6155 21.5857C27.7387 21.4878 27.8004 21.3564 27.8004 21.1914C27.8004 21.0428 27.7442 20.9168 27.6318 20.8135C27.5194 20.7102 27.2874 20.5878 26.9357 20.4464C26.5732 20.2996 26.3176 20.1319 26.1689 19.9434C26.0203 19.7549 25.946 19.5283 25.946 19.2636C25.946 18.9319 26.0638 18.6709 26.2994 18.4805C26.5351 18.2902 26.8514 18.195 27.2484 18.195C27.6291 18.195 28.0079 18.2784 28.385 18.4452L28.1783 18.9754C27.8248 18.8268 27.5094 18.7524 27.2321 18.7524C27.0218 18.7524 26.8623 18.7987 26.7535 18.8911C26.6448 18.9817 26.5904 19.1023 26.5904 19.2527C26.5904 19.3561 26.6121 19.4449 26.6556 19.5192C26.6991 19.5917 26.7707 19.6606 26.8704 19.7259C26.9701 19.7911 27.1496 19.8772 27.4088 19.9842C27.7007 20.1056 27.9146 20.2189 28.0505 20.3241C28.1865 20.4292 28.2862 20.5479 28.3496 20.6803C28.4131 20.8126 28.4448 20.9685 28.4448 21.1479ZM28.8802 22.2274V18.2521H29.53V22.2274H28.8802ZM33.4812 20.2017C33.4812 20.8579 33.299 21.36 32.9346 21.7081C32.5703 22.0543 32.0455 22.2274 31.3603 22.2274H30.2482V18.2521H31.4772C32.1099 18.2521 32.602 18.4225 32.9537 18.7633C33.3054 19.1041 33.4812 19.5836 33.4812 20.2017ZM32.796 20.2235C32.796 19.2718 32.351 18.7959 31.4609 18.7959H30.8981V21.6809H31.3603C32.3174 21.6809 32.796 21.1951 32.796 20.2235ZM36.2523 22.2274H34.0036V18.2521H36.2523V18.8014H34.6534V19.8836H36.1516V20.4274H34.6534V21.6754H36.2523V22.2274ZM39.2656 22.2274H38.6158V18.8095H37.4466V18.2521H40.4349V18.8095H39.2656V22.2274ZM43.8476 22.2274H43.195V20.4355H41.3624V22.2274H40.7125V18.2521H41.3624V19.8781H43.195V18.2521H43.8476V22.2274ZM46.809 22.2274H44.5604V18.2521H46.809V18.8014H45.2102V19.8836H46.7084V20.4274H45.2102V21.6754H46.809V22.2274ZM50.1406 18.7524C49.7671 18.7524 49.4735 18.8848 49.2596 19.1494C49.0457 19.4141 48.9387 19.7793 48.9387 20.2452C48.9387 20.7328 49.0411 21.1017 49.246 21.3519C49.4526 21.602 49.7508 21.7271 50.1406 21.7271C50.3091 21.7271 50.4723 21.7108 50.63 21.6782C50.7877 21.6437 50.9518 21.6002 51.1221 21.5476V22.1051C50.8104 22.2229 50.4569 22.2818 50.0617 22.2818C49.4798 22.2818 49.033 22.106 48.7212 21.7543C48.4094 21.4008 48.2535 20.896 48.2535 20.2398C48.2535 19.8265 48.3287 19.4648 48.4792 19.1549C48.6315 18.8449 48.8508 18.6074 49.1372 18.4425C49.4236 18.2775 49.7599 18.195 50.146 18.195C50.552 18.195 50.9273 18.2802 51.2717 18.4506L51.0379 18.9917C50.9037 18.9283 50.7614 18.873 50.611 18.8258C50.4623 18.7769 50.3055 18.7524 50.1406 18.7524ZM54.1107 22.2274L53.7138 21.1235H52.1938L51.805 22.2274H51.1198L52.6071 18.2358H53.3141L54.8014 22.2274H54.1107ZM53.5425 20.5633L53.1699 19.4811C53.1428 19.4086 53.1047 19.2944 53.0557 19.1385C53.0086 18.9826 52.976 18.8684 52.9579 18.7959C52.9089 19.0189 52.8373 19.2627 52.743 19.5274L52.3841 20.5633H53.5425ZM57.6241 19.454C57.6241 19.8691 57.4882 20.1872 57.2163 20.4084C56.9444 20.6295 56.5573 20.7401 56.0552 20.7401H55.6419V22.2274H54.9921V18.2521H56.1368C56.6335 18.2521 57.0051 18.3536 57.2516 18.5567C57.5 18.7597 57.6241 19.0588 57.6241 19.454ZM55.6419 20.1935H55.9872C56.3208 20.1935 56.5655 20.1355 56.7214 20.0195C56.8773 19.9035 56.9552 19.7222 56.9552 19.4757C56.9552 19.2473 56.8854 19.0769 56.7459 18.9645C56.6063 18.8521 56.3888 18.7959 56.0933 18.7959H55.6419V20.1935ZM60.3762 21.1479C60.3762 21.5014 60.2484 21.7788 59.9928 21.98C59.7372 22.1812 59.3846 22.2818 58.935 22.2818C58.4855 22.2818 58.1175 22.212 57.8311 22.0724V21.4579C58.0124 21.5431 58.2045 21.6102 58.4075 21.6591C58.6124 21.7081 58.8027 21.7325 58.9785 21.7325C59.236 21.7325 59.4254 21.6836 59.5468 21.5857C59.6701 21.4878 59.7317 21.3564 59.7317 21.1914C59.7317 21.0428 59.6755 20.9168 59.5632 20.8135C59.4508 20.7102 59.2187 20.5878 58.8671 20.4464C58.5045 20.2996 58.2489 20.1319 58.1003 19.9434C57.9516 19.7549 57.8773 19.5283 57.8773 19.2636C57.8773 18.9319 57.9951 18.6709 58.2308 18.4805C58.4665 18.2902 58.7828 18.195 59.1798 18.195C59.5604 18.195 59.9393 18.2784 60.3163 18.4452L60.1097 18.9754C59.7562 18.8268 59.4408 18.7524 59.1634 18.7524C58.9532 18.7524 58.7937 18.7987 58.6849 18.8911C58.5761 18.9817 58.5217 19.1023 58.5217 19.2527C58.5217 19.3561 58.5435 19.4449 58.587 19.5192C58.6305 19.5917 58.7021 19.6606 58.8018 19.7259C58.9015 19.7911 59.081 19.8772 59.3402 19.9842C59.632 20.1056 59.8459 20.2189 59.9819 20.3241C60.1178 20.4292 60.2175 20.5479 60.281 20.6803C60.3444 20.8126 60.3762 20.9685 60.3762 21.1479ZM63.9276 18.2521V20.8244C63.9276 21.118 63.8642 21.3754 63.7373 21.5966C63.6122 21.8159 63.43 21.9854 63.1907 22.1051C62.9533 22.2229 62.6687 22.2818 62.3369 22.2818C61.8439 22.2818 61.4605 22.1513 61.1868 21.8903C60.913 21.6292 60.7762 21.2703 60.7762 20.8135V18.2521H61.4288V20.7673C61.4288 21.0954 61.5049 21.3374 61.6572 21.4933C61.8094 21.6492 62.0433 21.7271 62.3587 21.7271C62.9714 21.7271 63.2777 21.4053 63.2777 20.7618V18.2521H63.9276ZM64.6104 22.2274V18.2521H65.2603V21.67H66.9434V22.2274H64.6104ZM69.7607 22.2274L69.3637 21.1235H67.8437L67.4549 22.2274H66.7697L68.257 18.2358H68.964L70.4513 22.2274H69.7607ZM69.1924 20.5633L68.8199 19.4811C68.7927 19.4086 68.7546 19.2944 68.7057 19.1385C68.6585 18.9826 68.6259 18.8684 68.6078 18.7959C68.5588 19.0189 68.4872 19.2627 68.393 19.5274L68.0341 20.5633H69.1924Z" fill="black"/>
</svg>
