<svg width="31" height="162" viewBox="0 0 31 162" fill="none" xmlns="http://www.w3.org/2000/svg">
<path d="M7 11.9528L7 0.995148L8.96818 0.995148L13.1589 5.16372C14.4194 6.39475 15.3113 7.2093 15.8347 7.60736C16.3655 8.01279 16.863 8.30765 17.3274 8.49194C17.7918 8.67622 18.2894 8.76837 18.8202 8.76837C19.5499 8.76837 20.1249 8.54722 20.5451 8.10493C20.9653 7.67002 21.1753 7.06556 21.1753 6.29155C21.1753 5.67235 21.0611 5.07157 20.8326 4.48923C20.6041 3.91425 20.1913 3.24713 19.5942 2.48787L21.308 1.08361C22.0673 1.98293 22.6054 2.85645 22.9224 3.70416C23.2394 4.55188 23.3978 5.45489 23.3978 6.41318C23.3978 7.91696 23.0035 9.1222 22.2147 10.0289C21.4333 10.9356 20.3792 11.3889 19.0524 11.3889C18.3226 11.3889 17.6297 11.2562 16.9736 10.9909C16.3175 10.7329 15.6394 10.3311 14.9391 9.78563C14.2462 9.24751 13.3063 8.34819 12.1195 7.08767L9.39941 4.27914L9.28884 4.27914L9.28884 11.9528L7 11.9528ZM15.0828 23.5311C12.2743 23.5311 10.1882 23.0777 8.82444 22.171C7.46072 21.2717 6.77885 19.8932 6.77886 18.0356C6.77886 16.237 7.48283 14.8733 8.89078 13.9445C10.2987 13.0157 12.3627 12.5513 15.0828 12.5513C17.9356 12.5513 20.0364 13.0009 21.3854 13.9002C22.7418 14.8069 23.42 16.1854 23.42 18.0356C23.42 19.8416 22.7123 21.2091 21.297 22.1379C19.8816 23.0667 17.8103 23.5311 15.0828 23.5311ZM15.0828 15.1829C12.8787 15.1829 11.3049 15.4077 10.3614 15.8574C9.41784 16.3144 8.94607 17.0405 8.94607 18.0356C8.94607 19.0308 9.42521 19.7569 10.3835 20.2139C11.3418 20.6783 12.9082 20.9105 15.0828 20.9105C17.25 20.9105 18.8165 20.6783 19.7821 20.2139C20.7552 19.7569 21.2417 19.0308 21.2417 18.0356C21.2417 17.0405 20.7662 16.3144 19.8153 15.8574C18.8644 15.4077 17.2869 15.1829 15.0828 15.1829Z" fill="black"/>
<path d="M7 148.953L7 137.995L8.96818 137.995L13.1589 142.164C14.4194 143.395 15.3113 144.209 15.8347 144.607C16.3655 145.013 16.863 145.308 17.3274 145.492C17.7918 145.676 18.2894 145.768 18.8202 145.768C19.5499 145.768 20.1249 145.547 20.5451 145.105C20.9653 144.67 21.1753 144.066 21.1753 143.292C21.1753 142.672 21.0611 142.072 20.8326 141.489C20.6041 140.914 20.1913 140.247 19.5942 139.488L21.308 138.084C22.0673 138.983 22.6054 139.856 22.9224 140.704C23.2394 141.552 23.3978 142.455 23.3978 143.413C23.3978 144.917 23.0035 146.122 22.2147 147.029C21.4333 147.936 20.3792 148.389 19.0524 148.389C18.3226 148.389 17.6297 148.256 16.9736 147.991C16.3175 147.733 15.6394 147.331 14.9391 146.786C14.2462 146.248 13.3063 145.348 12.1195 144.088L9.39941 141.279L9.28884 141.279L9.28884 148.953L7 148.953ZM7 157.203L7 154.604L17.438 154.604C18.6838 154.604 19.6716 154.634 20.4013 154.693C20.2244 154.523 20.0291 154.313 19.8153 154.063C19.6015 153.819 18.9234 152.994 17.7808 151.586L19.4283 150.281L23.1656 155.036L23.1656 157.203L7 157.203Z" fill="black"/>
<line x1="16.5" y1="50" x2="16.5" y2="112" stroke="black"/>
</svg>
