<svg width="78" height="25" viewBox="0 0 78 25" fill="none" xmlns="http://www.w3.org/2000/svg">
<path d="M35.7466 18.0443H23.4V6.66347H35.7466V8.23593H26.9681V11.3341H35.1942V12.891H26.9681V16.4641H35.7466V18.0443Z" fill="black"/>
<path d="M48.3894 8.09581C46.3391 8.09581 44.7267 8.47465 43.5523 9.23234C42.3778 9.99002 41.7906 11.0357 41.7906 12.3695C41.7906 13.7655 42.353 14.8216 43.4776 15.5377C44.6123 16.2539 46.2495 16.612 48.3894 16.612C49.315 16.612 50.2108 16.5653 51.0767 16.4719C51.9426 16.3733 52.8433 16.2487 53.7789 16.0982V17.694C52.067 18.0313 50.1262 18.2 47.9565 18.2C44.7616 18.2 42.3082 17.6966 40.5963 16.6898C38.8844 15.6778 38.0284 14.2325 38.0284 12.3539C38.0284 11.1707 38.4415 10.1353 39.2676 9.2479C40.1036 8.36048 41.3079 7.68064 42.8805 7.20838C44.453 6.73613 46.2993 6.5 48.4193 6.5C50.6487 6.5 52.709 6.74391 54.6 7.23174L53.3161 8.78084C52.5796 8.5992 51.7983 8.44092 50.9722 8.30599C50.156 8.16587 49.2951 8.09581 48.3894 8.09581Z" fill="black"/>
<path fill-rule="evenodd" clip-rule="evenodd" d="M73.9356 15.8427C75.7291 14.4999 76.3404 13.3029 76.3404 12.35C76.3404 11.3971 75.7291 10.2001 73.9356 8.85728C72.1696 7.53513 69.5091 6.27417 66.0726 5.18594C59.2186 3.0155 49.6467 1.64667 39 1.64667C28.3533 1.64667 18.7814 3.0155 11.9274 5.18594C8.4909 6.27417 5.83038 7.53513 4.06441 8.85728C2.27085 10.2001 1.65957 11.3971 1.65957 12.35C1.65957 13.3029 2.27085 14.4999 4.06441 15.8427C5.83038 17.1649 8.4909 18.4258 11.9274 19.5141C18.7814 21.6845 28.3533 23.0533 39 23.0533C49.6467 23.0533 59.2186 21.6845 66.0726 19.5141C69.5091 18.4258 72.1696 17.1649 73.9356 15.8427ZM39 24.7C60.5391 24.7 78 19.1707 78 12.35C78 5.52928 60.5391 0 39 0C17.4609 0 0 5.52928 0 12.35C0 19.1707 17.4609 24.7 39 24.7Z" fill="black"/>
</svg>
