<svg width="232" height="61" viewBox="0 0 232 61" fill="none" xmlns="http://www.w3.org/2000/svg">
<path d="M10.1304 28.0076C9.07889 28.0076 8.25501 28.3437 7.65879 29.0158C7.06256 29.6771 6.72109 30.6202 6.63436 31.8452H13.5939C13.5723 30.6202 13.2525 29.6771 12.6346 29.0158C12.0167 28.3437 11.1819 28.0076 10.1304 28.0076ZM10.8296 43.3252C7.9027 43.3252 5.61536 42.5176 3.96761 40.9024C2.31986 39.2871 1.49598 36.9998 1.49598 34.0404C1.49598 30.9942 2.25482 28.6418 3.77248 26.9832C5.30099 25.3138 7.40946 24.4791 10.0979 24.4791C12.6671 24.4791 14.6671 25.2108 16.0981 26.6743C17.529 28.1377 18.2445 30.1595 18.2445 32.7395V35.1461H6.52054C6.57474 36.5553 6.9921 37.6557 7.77261 38.447C8.55313 39.2384 9.64801 39.634 11.0573 39.634C12.1522 39.634 13.1874 39.5202 14.1631 39.2926C15.1387 39.0649 16.1577 38.7018 17.2201 38.2031V42.0406C16.3528 42.4742 15.426 42.794 14.4395 43C13.453 43.2168 12.2497 43.3252 10.8296 43.3252ZM25.1683 33.7151L19.3145 24.8205H24.9407L28.4692 30.6093L32.0303 24.8205H37.6565L31.7376 33.7151L37.933 43H32.2905L28.4692 36.7722L24.6317 43H19.0055L25.1683 33.7151ZM47.5235 39.3739C48.3908 39.3739 49.4314 39.1842 50.6456 38.8047V42.4959C49.4098 43.0488 47.8921 43.3252 46.0926 43.3252C44.1088 43.3252 42.6616 42.8266 41.751 41.8292C40.8512 40.8211 40.4013 39.3142 40.4013 37.3088V28.5442H38.0273V26.4466L40.7591 24.788L42.19 20.9505H45.3608V24.8205H50.4504V28.5442H45.3608V37.3088C45.3608 38.0134 45.556 38.5337 45.9462 38.8698C46.3473 39.2058 46.8731 39.3739 47.5235 39.3739ZM63.6509 24.4791C64.323 24.4791 64.8813 24.5278 65.3257 24.6254L64.9517 29.276C64.5506 29.1676 64.0628 29.1134 63.4883 29.1134C61.9056 29.1134 60.6698 29.5199 59.7808 30.3329C58.9028 31.146 58.4637 32.2842 58.4637 33.7477V43H53.5042V24.8205H57.2604L57.9922 27.8776H58.2361C58.7998 26.8585 59.5586 26.0401 60.5126 25.4222C61.4774 24.7934 62.5235 24.4791 63.6509 24.4791ZM79.3392 43L78.3798 40.5284H78.2497C77.415 41.5799 76.5532 42.3116 75.6643 42.7236C74.7862 43.1247 73.6371 43.3252 72.217 43.3252C70.4717 43.3252 69.095 42.8266 68.0868 41.8292C67.0895 40.8319 66.5908 39.4118 66.5908 37.5689C66.5908 35.6393 67.2629 34.2192 68.6071 33.3086C69.9622 32.3872 72.0002 31.8777 74.7212 31.7801L77.8757 31.6826V30.8858C77.8757 29.0429 76.9326 28.1215 75.0464 28.1215C73.5938 28.1215 71.8864 28.5605 69.9243 29.4386L68.2819 26.0889C70.3741 24.994 72.694 24.4465 75.2415 24.4465C77.6806 24.4465 79.5506 24.9777 80.8514 26.0401C82.1523 27.1025 82.8027 28.7177 82.8027 30.8858V43H79.3392ZM77.8757 34.577L75.957 34.642C74.5152 34.6854 73.442 34.9455 72.7374 35.4225C72.0327 35.8995 71.6804 36.6258 71.6804 37.6014C71.6804 38.9999 72.4826 39.6991 74.087 39.6991C75.2361 39.6991 76.1521 39.3684 76.8351 38.7072C77.5288 38.0459 77.8757 37.1678 77.8757 36.0729V34.577ZM102.293 43.3252C96.6341 43.3252 93.8047 40.2194 93.8047 34.0078C93.8047 30.9183 94.5744 28.5605 96.1137 26.9344C97.6531 25.2975 99.8591 24.4791 102.732 24.4791C104.835 24.4791 106.721 24.891 108.391 25.7149L106.927 29.5524C106.147 29.238 105.42 28.9833 104.748 28.7881C104.076 28.5822 103.404 28.4792 102.732 28.4792C100.152 28.4792 98.8618 30.3112 98.8618 33.9753C98.8618 37.531 100.152 39.3088 102.732 39.3088C103.686 39.3088 104.569 39.1842 105.382 38.9348C106.195 38.6747 107.008 38.2736 107.821 37.7315V41.9756C107.019 42.4851 106.206 42.8374 105.382 43.0325C104.569 43.2276 103.539 43.3252 102.293 43.3252ZM122.762 43L121.802 40.5284H121.672C120.838 41.5799 119.976 42.3116 119.087 42.7236C118.209 43.1247 117.06 43.3252 115.64 43.3252C113.894 43.3252 112.518 42.8266 111.509 41.8292C110.512 40.8319 110.013 39.4118 110.013 37.5689C110.013 35.6393 110.685 34.2192 112.03 33.3086C113.385 32.3872 115.423 31.8777 118.144 31.7801L121.298 31.6826V30.8858C121.298 29.0429 120.355 28.1215 118.469 28.1215C117.016 28.1215 115.309 28.5605 113.347 29.4386L111.704 26.0889C113.797 24.994 116.117 24.4465 118.664 24.4465C121.103 24.4465 122.973 24.9777 124.274 26.0401C125.575 27.1025 126.225 28.7177 126.225 30.8858V43H122.762ZM121.298 34.577L119.38 34.642C117.938 34.6854 116.865 34.9455 116.16 35.4225C115.455 35.8995 115.103 36.6258 115.103 37.6014C115.103 38.9999 115.905 39.6991 117.51 39.6991C118.659 39.6991 119.575 39.3684 120.258 38.7072C120.951 38.0459 121.298 37.1678 121.298 36.0729V34.577ZM139.666 43.3252C137.531 43.3252 135.856 42.5501 134.642 40.9999H134.382C134.555 42.5176 134.642 43.3957 134.642 43.6342V51.0003H129.682V24.8205H133.715L134.414 27.1783H134.642C135.802 25.3788 137.52 24.4791 139.796 24.4791C141.943 24.4791 143.623 25.3084 144.837 26.967C146.051 28.6255 146.658 30.9291 146.658 33.8777C146.658 35.8182 146.371 37.5039 145.797 38.9348C145.233 40.3658 144.425 41.4552 143.374 42.2032C142.322 42.9512 141.086 43.3252 139.666 43.3252ZM138.203 28.4467C136.978 28.4467 136.084 28.8261 135.52 29.5849C134.956 30.3329 134.664 31.5741 134.642 33.3086V33.8452C134.642 35.7965 134.929 37.1949 135.504 38.0405C136.089 38.886 137.01 39.3088 138.268 39.3088C140.49 39.3088 141.601 37.4768 141.601 33.8127C141.601 32.024 141.325 30.6852 140.772 29.7963C140.23 28.8966 139.374 28.4467 138.203 28.4467ZM161.774 37.6014C161.774 39.466 161.124 40.8861 159.823 41.8618C158.533 42.8374 156.598 43.3252 154.018 43.3252C152.696 43.3252 151.568 43.2331 150.636 43.0488C149.704 42.8753 148.831 42.6152 148.018 42.2683V38.1706C148.939 38.6042 149.975 38.9673 151.124 39.26C152.284 39.5527 153.303 39.6991 154.181 39.6991C155.98 39.6991 156.88 39.1787 156.88 38.1381C156.88 37.7478 156.761 37.4334 156.522 37.1949C156.284 36.9456 155.872 36.6692 155.286 36.3656C154.701 36.0513 153.921 35.6881 152.945 35.2762C151.546 34.6908 150.517 34.1488 149.855 33.6501C149.205 33.1514 148.728 32.5823 148.424 31.9427C148.132 31.2923 147.985 30.4955 147.985 29.5524C147.985 27.9372 148.609 26.6905 149.855 25.8124C151.113 24.9235 152.891 24.4791 155.189 24.4791C157.379 24.4791 159.509 24.956 161.579 25.91L160.083 29.4874C159.173 29.0971 158.322 28.7773 157.53 28.528C156.739 28.2786 155.931 28.154 155.108 28.154C153.644 28.154 152.912 28.5497 152.912 29.341C152.912 29.7855 153.145 30.1703 153.612 30.4955C154.089 30.8207 155.124 31.3031 156.717 31.9427C158.137 32.5173 159.178 33.0539 159.839 33.5525C160.501 34.0512 160.989 34.6257 161.303 35.2762C161.617 35.9266 161.774 36.7017 161.774 37.6014ZM176.858 43L176.191 40.6747H175.931C175.4 41.5203 174.646 42.1761 173.671 42.6423C172.695 43.0976 171.584 43.3252 170.337 43.3252C168.202 43.3252 166.592 42.7561 165.508 41.6178C164.424 40.4688 163.882 38.821 163.882 36.6746V24.8205H168.841V35.4388C168.841 36.7505 169.074 37.737 169.541 38.3982C170.007 39.0487 170.749 39.3739 171.768 39.3739C173.156 39.3739 174.159 38.9131 174.776 37.9917C175.394 37.0594 175.703 35.5201 175.703 33.3737V24.8205H180.663V43H176.858ZM189.161 43H184.201V17.6984H189.161V43ZM204.26 43L203.301 40.5284H203.171C202.336 41.5799 201.474 42.3116 200.585 42.7236C199.707 43.1247 198.558 43.3252 197.138 43.3252C195.393 43.3252 194.016 42.8266 193.008 41.8292C192.011 40.8319 191.512 39.4118 191.512 37.5689C191.512 35.6393 192.184 34.2192 193.528 33.3086C194.883 32.3872 196.921 31.8777 199.642 31.7801L202.797 31.6826V30.8858C202.797 29.0429 201.854 28.1215 199.968 28.1215C198.515 28.1215 196.808 28.5605 194.845 29.4386L193.203 26.0889C195.295 24.994 197.615 24.4465 200.163 24.4465C202.602 24.4465 204.472 24.9777 205.773 26.0401C207.073 27.1025 207.724 28.7177 207.724 30.8858V43H204.26ZM202.797 34.577L200.878 34.642C199.436 34.6854 198.363 34.9455 197.659 35.4225C196.954 35.8995 196.602 36.6258 196.602 37.6014C196.602 38.9999 197.404 39.6991 199.008 39.6991C200.157 39.6991 201.073 39.3684 201.756 38.7072C202.45 38.0459 202.797 37.1678 202.797 36.0729V34.577Z" fill="black"/>
<path d="M221.257 16.1827C222.804 16.1827 224.174 16.5355 225.368 17.241C226.589 17.9465 227.539 18.9234 228.217 20.1716C228.923 21.4198 229.275 22.8172 229.275 24.3639C229.275 25.9106 228.923 27.3081 228.217 28.5563C227.539 29.7773 226.589 30.7406 225.368 31.4461C224.174 32.1516 222.804 32.5044 221.257 32.5044C219.71 32.5044 218.326 32.1516 217.105 31.4461C215.884 30.7406 214.921 29.7773 214.215 28.5563C213.537 27.3081 213.198 25.9106 213.198 24.3639C213.198 22.8172 213.537 21.4198 214.215 20.1716C214.921 18.9234 215.884 17.9465 217.105 17.241C218.326 16.5355 219.71 16.1827 221.257 16.1827ZM221.257 31.1612C223.211 31.1612 224.785 30.5235 225.978 29.2482C227.2 27.9729 227.81 26.3448 227.81 24.3639C227.81 22.3831 227.2 20.755 225.978 19.4796C224.785 18.2043 223.211 17.5666 221.257 17.5666C219.276 17.5666 217.675 18.2043 216.454 19.4796C215.26 20.755 214.663 22.3831 214.663 24.3639C214.663 26.3448 215.26 27.9729 216.454 29.2482C217.675 30.5235 219.276 31.1612 221.257 31.1612ZM224.798 22.573C224.798 23.2514 224.608 23.8212 224.228 24.2825C223.848 24.7167 223.319 25.0016 222.641 25.1373L225.083 28.6377L223.007 28.6784L220.769 25.2187H219.832V28.6784H218.082V19.9274H221.868C222.763 19.9274 223.468 20.1716 223.984 20.66C224.527 21.1213 224.798 21.759 224.798 22.573ZM219.832 23.7534H221.745C222.125 23.7534 222.437 23.6584 222.682 23.4685C222.926 23.2785 223.048 22.9936 223.048 22.6137C223.048 22.2338 222.926 21.9625 222.682 21.7997C222.437 21.6097 222.125 21.5148 221.745 21.5148H219.832V23.7534Z" fill="black"/>
</svg>
