<svg width="22" height="21" viewBox="0 0 22 21" fill="none" xmlns="http://www.w3.org/2000/svg">
<circle cx="11.0011" cy="10.2923" r="9.33772" stroke="black" stroke-width="1.69777"/>
<path d="M15.3107 8.08219C15.3107 8.92896 15.0827 9.64024 14.6266 10.216C14.1706 10.758 13.5353 11.1136 12.721 11.283L15.6527 15.6523L13.1607 15.7031L10.4733 11.3846H9.3494V15.7031H7.24829V4.7798H11.7926C12.8676 4.7798 13.7145 5.08464 14.3334 5.69431C14.985 6.27011 15.3107 7.06607 15.3107 8.08219ZM9.3494 9.55557H11.646C12.102 9.55557 12.4766 9.43702 12.7698 9.19992C13.063 8.96283 13.2096 8.60719 13.2096 8.133C13.2096 7.65881 13.063 7.3201 12.7698 7.11688C12.4766 6.87978 12.102 6.76124 11.646 6.76124H9.3494V9.55557Z" fill="black"/>
</svg>
