<svg width="24" height="24" viewBox="0 0 24 24" fill="none" xmlns="http://www.w3.org/2000/svg">
<path d="M1.99319 11.8992C1.93666 15.1226 2.95831 17.6914 5.08785 19.6369C7.21777 21.5667 9.60303 22.5323 12.2292 22.5323C13.9886 22.5323 15.6496 22.1204 17.1967 21.2966C18.7429 20.4589 19.9925 19.2663 20.9594 17.6766C21.9093 16.1008 22.3786 14.2701 22.3638 12.1689C22.336 10.1543 21.8524 8.39356 20.9025 6.873C19.9643 5.356 18.7165 4.17638 17.1689 3.35529C15.6209 2.5185 13.9886 2.1057 12.2993 2.1057C11.1358 2.1057 9.97057 2.31791 8.79363 2.72983C7.61581 3.15473 6.50754 3.79456 5.48632 4.64707C4.44986 5.51304 3.62649 6.53381 3.01493 7.74125C2.39079 8.93208 2.05116 10.3248 1.99323 11.8993L1.99319 11.8992ZM7.68575 7.37239C7.45873 7.79821 7.23166 8.47843 7.00465 9.4153C6.77627 10.3513 6.64972 11.176 6.63583 11.8997H2.94578C3.17236 9.43011 3.9531 7.48457 5.2866 6.09318C5.42932 6.2359 5.6137 6.36419 5.86898 6.50507C6.12475 6.64686 6.40877 6.78909 6.7197 6.93089C7.04772 7.07268 7.35952 7.21535 7.68575 7.37239V7.37239ZM9.60298 3.45309C8.92096 4.41777 8.36685 5.45472 7.92758 6.57553C6.84936 6.06448 6.18127 5.69563 5.91162 5.45472C6.83415 4.51785 8.05548 3.85021 9.60298 3.45309V3.45309ZM10.8221 3.18431C10.9235 3.1695 11.0218 3.15469 11.1074 3.14124C11.2075 3.12643 11.3062 3.12643 11.4345 3.12643H11.7603V7.55546C11.4197 7.55546 10.9799 7.4985 10.4258 7.37239C9.87259 7.25842 9.3041 7.10226 8.73653 6.93089C9.27632 5.59603 9.97044 4.34775 10.8221 3.18431V3.18431ZM11.7598 8.49233V11.8997H7.50084C7.50084 10.5783 7.81404 9.17343 8.4377 7.68376C9.82952 8.22219 10.9369 8.49233 11.7598 8.49233ZM11.7598 12.7643V16.2139C10.923 16.2139 9.82908 16.4849 8.49466 17.0237C8.2977 16.6401 8.08365 15.9738 7.84226 15.0082C7.61568 14.0283 7.50084 13.2906 7.50084 12.7648L11.7598 12.7643V12.7643ZM6.63579 12.7643C6.63579 13.8722 6.96241 15.391 7.62874 17.3213C6.16826 18.0598 5.38664 18.4717 5.28612 18.557C4.56239 17.7771 4.00958 16.8255 3.61163 15.7185C3.215 14.6107 3.01488 13.6312 3.01488 12.7644H6.63583L6.63579 12.7643ZM11.7598 17.0233V21.6085L10.8216 21.5524C10.0139 20.4298 9.30367 19.1527 8.73653 17.7479C9.13453 17.55 10.1419 17.3091 11.7598 17.0233V17.0233ZM7.92709 18.1024C8.66472 19.6369 9.23325 20.686 9.65903 21.2544C8.42512 20.8856 7.17505 20.2027 5.91065 19.2098C6.59311 18.7692 7.26032 18.4003 7.92709 18.1024V18.1024ZM13.577 21.5524L12.6545 21.6085V17.0803C13.6192 17.1364 14.6275 17.3643 15.6778 17.748C14.8257 19.6217 14.1164 20.8856 13.577 21.5524ZM18.5032 19.2098C17.5533 20.2027 16.3311 20.8713 14.8114 21.1832C15.1102 20.8134 15.3655 20.4164 15.5921 20.0184C15.807 19.6212 16.0044 19.2094 16.1744 18.7687C16.3454 18.3438 16.4445 18.1177 16.4598 18.102C17.5945 18.657 18.2752 19.0249 18.5031 19.2098L18.5032 19.2098ZM21.4282 12.7643C21.4282 13.786 21.2142 14.8517 20.7601 15.9595C20.306 17.0672 19.7806 17.9319 19.1565 18.5569C19.0004 18.4291 18.7168 18.272 18.3035 18.0602C17.8925 17.8471 17.3815 17.5783 16.7865 17.2656C17.5098 15.4057 17.8642 13.9152 17.8642 12.7648L21.4282 12.7643H21.4282ZM16.9131 12.7643C16.9131 14.0148 16.6008 15.4197 15.9757 17.0233C15.6208 16.8254 15.0959 16.6253 14.3999 16.4422C13.7188 16.2426 13.1373 16.1721 12.6545 16.2134V12.7638L16.913 12.7643L16.9131 12.7643ZM12.6545 8.49233C13.5349 8.49233 14.6422 8.22219 15.9753 7.68332C16.174 8.00954 16.3872 8.64889 16.6003 9.57186C16.7991 10.4795 16.9126 11.2607 16.9126 11.8997H12.6545V8.49233H12.6545ZM19.0996 6.09274C19.8098 6.7752 20.3765 7.64029 20.8033 8.71983C21.2286 9.79848 21.4287 10.8641 21.4287 11.8992H17.8078C17.8078 10.5357 17.4672 9.03163 16.787 7.37191C17.8212 6.87252 18.6024 6.4485 19.0996 6.0927V6.09274ZM18.5032 5.45472C18.2753 5.65352 17.6229 6.05059 16.5159 6.63253C16.0045 5.36989 15.3933 4.28992 14.6992 3.397C16.0471 3.79412 17.3245 4.47518 18.5032 5.45472ZM13.5205 3.18431C14.3582 4.20688 15.0824 5.42597 15.6783 6.873C15.125 7.2306 14.1168 7.45766 12.655 7.55546V3.12643H12.9812C13.2657 3.12643 13.4488 3.14124 13.5205 3.18431V3.18431Z" fill="black" stroke="black" stroke-width="0.565922"/>
</svg>
